<?xml version="1.0" encoding="UTF-8"?>
<svg version="1.1" xmlns="http://www.w3.org/2000/svg" width="500" height="500" viewBox="0 0 500 500">
<path d="M0 0 C4.81982533 3.44420994 7.95020426 7.70386767 9.8203125 13.30078125 C9.83747969 15.26567469 9.81351968 17.23124856 9.75390625 19.1953125 C10.02451423 22.94877734 10.18257892 24.66997792 12.88720703 27.34521484 C15.81354748 29.12667125 18.75988707 30.57976523 21.8828125 31.98828125 C24.08649228 33.07569936 26.28961651 34.16424403 28.4921875 35.25390625 C29.57435547 35.77017578 30.65652344 36.28644531 31.77148438 36.81835938 C35.82742415 38.7904659 39.73057978 40.98124072 43.6328125 43.23828125 C48.80213704 46.1720102 53.98798789 49.07027287 59.2265625 51.87890625 C61.08008722 52.8949951 62.91144834 53.95194296 64.7265625 55.03515625 C65.685625 55.5971875 66.6446875 56.15921875 67.6328125 56.73828125 C68.48488281 57.25261719 69.33695313 57.76695312 70.21484375 58.296875 C73.49654606 59.56133901 75.45428312 59.16928255 78.8203125 58.30078125 C79.4803125 57.97078125 80.1403125 57.64078125 80.8203125 57.30078125 C89.09659641 56.42198229 95.80868914 56.60865904 102.76171875 61.4609375 C107.82990503 65.99056888 110.64794503 71.61828667 111.8203125 78.30078125 C111.91145832 84.58984264 110.46490299 90.13761139 106.8203125 95.30078125 C104.10827152 98.08546618 101.30842366 100.55672567 97.8203125 102.30078125 C96.38528845 111.71345648 96.62978134 121.50627221 96.50390625 131.01171875 C96.48325639 132.35934975 96.46225837 133.70697546 96.44093323 135.05459595 C96.38653933 138.54947535 96.33677659 142.04440479 96.28808594 145.53936768 C96.23725481 149.12654919 96.18189516 152.71366077 96.12695312 156.30078125 C96.02038791 163.3007203 95.91873084 170.30072251 95.8203125 177.30078125 C96.59246094 177.58308594 97.36460937 177.86539063 98.16015625 178.15625 C103.92449024 180.63635258 108.46798841 186.46734029 111.1328125 192.05078125 C112.54275728 198.71597474 111.38356339 206.43121911 107.8203125 212.30078125 C102.31683569 218.40974863 97.4393456 221.82295024 89.1953125 222.67578125 C84.42377476 222.63942668 80.47957491 220.6357146 76.23828125 218.58984375 C70.54875736 218.10867259 66.55331983 221.39564261 61.8203125 224.30078125 C59.93670947 225.39115987 58.05129011 226.47840688 56.1640625 227.5625 C54.21524479 228.70288867 52.2673527 229.84486039 50.3203125 230.98828125 C48.21632552 232.22035898 46.11215641 233.45212574 44.0078125 234.68359375 C42.97011719 235.29106445 41.93242187 235.89853516 40.86328125 236.52441406 C35.60848511 239.59196033 30.33711799 242.63096478 25.06054688 245.66088867 C23.65970448 246.46853996 22.26344232 247.28420345 20.87255859 248.10888672 C19.44818248 248.93612966 18.0007865 249.72448058 16.53759766 250.48095703 C14.43540452 251.62891708 12.60725261 252.70497152 10.8203125 254.30078125 C9.8663598 257.55074905 9.8663598 257.55074905 10.1953125 261.05078125 C10.06886246 269.1014336 7.71838344 273.13600019 2.3359375 278.88671875 C-2.62195304 283.49809006 -8.49859132 284.77346378 -15.14453125 284.54296875 C-22.68853727 283.64521755 -28.08377959 279.78416603 -33.1796875 274.30078125 C-36.48757711 269.17888766 -37.68285708 264.01089081 -36.5625 257.9765625 C-36.78393989 254.32236653 -36.78393989 254.32236653 -38.96118164 252.69848633 C-41.70220022 250.96796388 -44.49834282 249.43528663 -47.3671875 247.92578125 C-49.55938358 246.71236334 -51.7507526 245.49745034 -53.94140625 244.28125 C-55.12282419 243.63579525 -56.30430342 242.99045268 -57.48583984 242.34521484 C-63.31985597 239.13877583 -69.04284143 235.73983676 -74.77676392 232.35882568 C-76.64220912 231.26035055 -78.5104167 230.16674078 -80.37963867 229.07470703 C-80.96832733 228.73013458 -81.55701599 228.38556213 -82.1635437 228.0305481 C-83.84367361 227.0476622 -85.52496706 226.06676607 -87.20629883 225.0859375 C-89.77532797 223.54354969 -92.24460764 221.91624833 -94.72265625 220.234375 C-97.9055024 218.05224095 -97.9055024 218.05224095 -100.82421875 218.43359375 C-101.89736328 218.92472656 -101.89736328 218.92472656 -102.9921875 219.42578125 C-104.08466797 219.89371094 -104.08466797 219.89371094 -105.19921875 220.37109375 C-105.85277344 220.67789063 -106.50632813 220.9846875 -107.1796875 221.30078125 C-113.82433807 223.51566477 -119.50420086 222.43974462 -125.78125 219.6875 C-131.97971076 216.1036994 -135.90394532 210.51369877 -137.80859375 203.6640625 C-138.70829896 197.93436089 -138.15284634 193.07931292 -135.3671875 187.98828125 C-134.6453125 187.10140625 -133.9234375 186.21453125 -133.1796875 185.30078125 C-132.5403125 184.41390625 -131.9009375 183.52703125 -131.2421875 182.61328125 C-129.06460032 180.17174411 -127.09617903 178.75902701 -124.1796875 177.30078125 C-123.5196875 177.30078125 -122.8596875 177.30078125 -122.1796875 177.30078125 C-122.10173798 167.77288631 -122.07242637 158.24642484 -122.10452938 148.71826077 C-122.1179242 144.29337625 -122.11481512 139.86980699 -122.07348633 135.44506836 C-122.03418499 131.17149144 -122.03889318 126.89998451 -122.07361031 122.62639046 C-122.07919229 120.9993677 -122.06914223 119.37221097 -122.04292107 117.74538994 C-121.62744634 108.75008 -121.62744634 108.75008 -125.15115356 100.85159302 C-127.48604789 98.98260477 -127.48604789 98.98260477 -129.95655823 97.65394592 C-134.39669639 94.95134191 -136.58009137 90.09956963 -138.1796875 85.30078125 C-138.94514276 77.83759246 -137.42260904 72.06888943 -133.6171875 65.67578125 C-127.49100185 59.70667729 -121.98896238 56.76388073 -113.3046875 56.80078125 C-106.84426904 56.95997021 -106.84426904 56.95997021 -104.046875 58.39453125 C-101.39644999 59.68093 -100.00247242 59.06510145 -97.1796875 58.30078125 C-95.29598832 57.3931823 -93.44737857 56.41099969 -91.62890625 55.37890625 C-90.00903809 54.46782104 -90.00903809 54.46782104 -88.35644531 53.53833008 C-87.78752563 53.21426178 -87.21860596 52.89019348 -86.63244629 52.55630493 C-83.62305037 50.842098 -80.60146495 49.14956625 -77.58203125 47.453125 C-76.65935959 46.93337349 -76.65935959 46.93337349 -75.7180481 46.40312195 C-68.51409179 42.35025489 -61.23788742 38.4322367 -53.9597168 34.51464844 C-52.57586792 33.76876465 -52.57586792 33.76876465 -51.1640625 33.0078125 C-50.30619141 32.54584473 -49.44832031 32.08387695 -48.56445312 31.60791016 C-46.39733758 30.42007881 -44.26313416 29.18969473 -42.1328125 27.9375 C-39.1796875 26.30078125 -39.1796875 26.30078125 -37.1796875 26.30078125 C-37.2209375 25.14578125 -37.2621875 23.99078125 -37.3046875 22.80078125 C-37.24522298 14.35681946 -34.98023945 8.53049098 -29.1796875 2.30078125 C-20.42211101 -4.77981251 -9.78139052 -5.44510606 0 0 Z M-14.1796875 48.30078125 C-16.05657447 51.5705351 -17.93083322 54.84178861 -19.8046875 58.11328125 C-20.32675781 59.02271484 -20.84882813 59.93214844 -21.38671875 60.86914062 C-26.55873924 69.90421345 -31.5469684 79.01988003 -36.3125 88.27587891 C-43.94463405 103.08920465 -52.1407961 117.55500439 -60.45703125 131.9921875 C-65.00621447 139.89903498 -69.50773229 147.75444997 -73.46875 155.9765625 C-76.50984776 161.88517937 -79.88529941 167.60995835 -83.21875 173.35742188 C-83.72921875 174.23978516 -84.2396875 175.12214844 -84.765625 176.03125 C-85.2301709 176.82942139 -85.6947168 177.62759277 -86.17333984 178.44995117 C-87.25930125 180.09608182 -87.25930125 180.09608182 -87.1796875 181.30078125 C-38.3396875 181.30078125 10.5003125 181.30078125 60.8203125 181.30078125 C57.91191105 175.48397836 55.0488248 169.79330014 51.8203125 164.17578125 C47.97430502 157.41395962 44.25807064 150.58752429 40.5703125 143.73828125 C36.26392695 135.74798375 31.87557731 127.81273006 27.3828125 119.92578125 C22.13044884 110.7024085 17.07433062 101.38477471 12.06860352 92.02563477 C7.58093664 83.65755548 2.96120667 75.37162441 -1.7421875 67.12304688 C-5.29663035 60.88888734 -8.76337911 54.61171441 -12.1796875 48.30078125 C-12.8396875 48.30078125 -13.4996875 48.30078125 -14.1796875 48.30078125 Z M-46.10546875 53.94140625 C-47.12044434 54.51221924 -48.13541992 55.08303223 -49.18115234 55.67114258 C-50.27379395 56.29142334 -51.36643555 56.9117041 -52.4921875 57.55078125 C-54.1620874 58.49183716 -54.1620874 58.49183716 -55.86572266 59.4519043 C-61.38982172 62.56966341 -66.90086471 65.70970146 -72.40234375 68.8671875 C-73.35778076 69.41536133 -74.31321777 69.96353516 -75.29760742 70.52832031 C-77.10549752 71.56762099 -78.91171412 72.60983938 -80.71606445 73.65527344 C-81.52648193 74.12223633 -82.33689941 74.58919922 -83.171875 75.0703125 C-83.87683105 75.47870361 -84.58178711 75.88709473 -85.30810547 76.30786133 C-87.1796875 77.30078125 -87.1796875 77.30078125 -90.1796875 78.30078125 C-90.99414637 80.83037646 -90.99414637 80.83037646 -91.4921875 83.86328125 C-92.82155851 89.78888182 -94.91426786 93.96407326 -99.1796875 98.30078125 C-100.1696875 98.79578125 -100.1696875 98.79578125 -101.1796875 99.30078125 C-101.35681252 107.18489452 -101.52275623 115.06913029 -101.67446327 122.95376968 C-101.74525896 126.61499261 -101.81989159 130.27605315 -101.90332031 133.93701172 C-101.9837046 137.47059233 -102.0539742 141.00424311 -102.11725998 144.53816986 C-102.15576776 146.54132034 -102.2047252 148.54426108 -102.2538147 150.54718018 C-102.27398651 151.76814392 -102.29415833 152.98910767 -102.31494141 154.24707031 C-102.33714752 155.32184631 -102.35935364 156.39662231 -102.38223267 157.50396729 C-102.17887093 160.31205673 -101.63441514 161.92162033 -100.1796875 164.30078125 C-99.8487207 163.65866699 -99.51775391 163.01655273 -99.17675781 162.35498047 C-92.36085448 149.14770185 -85.44180908 136.0123827 -78.2890625 122.984375 C-74.81574371 116.65350275 -71.40602971 110.28885722 -67.9921875 103.92578125 C-62.83112127 94.31925882 -57.57291832 84.77844604 -52.1796875 75.30078125 C-50.57228915 72.46926682 -48.96905064 69.63542982 -47.3671875 66.80078125 C-47.00584717 66.16575684 -46.64450684 65.53073242 -46.2722168 64.87646484 C-43.75429501 60.42163509 -41.43975036 55.89201008 -39.1796875 51.30078125 C-42.02104339 51.30078125 -43.6335384 52.54525399 -46.10546875 53.94140625 Z M13.8203125 51.30078125 C15.15584784 55.76814697 16.9408462 59.48512176 19.3203125 63.48828125 C22.62965353 69.13710311 25.7354987 74.8686337 28.7578125 80.67578125 C31.70948815 86.33533961 34.71288026 91.94809389 37.8828125 97.48828125 C42.47684694 105.53898178 46.79621658 113.73481499 51.1328125 121.92578125 C58.87434566 136.54074183 58.87434566 136.54074183 66.6953125 151.11328125 C67.17653564 152.01320801 67.65775879 152.91313477 68.15356445 153.84033203 C68.59788818 154.65872559 69.04221191 155.47711914 69.5 156.3203125 C69.87882324 157.02260986 70.25764648 157.72490723 70.64794922 158.44848633 C71.8547317 160.35516244 73.20680891 161.7353366 74.8203125 163.30078125 C74.98302459 155.22494867 75.10714062 147.14980893 75.1829977 139.07273865 C75.21941957 135.32150074 75.26875898 131.57139001 75.34838867 127.82080078 C75.42485596 124.1961777 75.46638575 120.57263348 75.4844532 116.94726562 C75.49731564 115.56932603 75.52243446 114.19144074 75.5604229 112.81396484 C75.88054477 103.47533803 75.88054477 103.47533803 71.40258789 95.640625 C70.78227188 95.07593506 70.16195587 94.51124512 69.52284241 93.92944336 C67.67547059 92.16222361 66.77115636 90.66183129 65.8203125 88.30078125 C65.79602571 86.73833111 65.77542567 85.17582087 65.7578125 83.61328125 C64.97245859 79.56841335 64.09605088 78.49685425 60.68359375 76.0703125 C57.02112267 74.0672208 53.23546877 72.3217041 49.45019531 70.56494141 C44.6801562 68.27202806 40.07536287 65.67399552 35.4453125 63.11328125 C33.66711184 62.13981138 31.8884754 61.16713704 30.109375 60.1953125 C29.25375977 59.72689941 28.39814453 59.25848633 27.51660156 58.77587891 C22.9536833 56.27957756 18.38692575 53.79031495 13.8203125 51.30078125 Z M-82.1796875 202.30078125 C-78.65921926 205.82124949 -76.41962806 207.42285282 -72.1171875 209.61328125 C-67.80062427 211.87043387 -63.63818207 214.2075409 -59.5546875 216.86328125 C-55.33071927 219.60282636 -51.05122303 222.07223091 -46.59375 224.41015625 C-43.73472735 225.99341365 -40.97614286 227.65287575 -38.203125 229.37890625 C-37.29675293 229.92973877 -36.39038086 230.48057129 -35.45654297 231.0480957 C-33.64251446 232.15223843 -31.84120886 233.27763751 -30.05517578 234.42651367 C-24.21470577 237.93376373 -20.47107109 238.73931022 -13.74438477 237.62597656 C-11.20644373 237.30417385 -9.67881253 237.53241783 -7.23828125 238.1640625 C-1.15997126 239.11046941 3.90318171 234.62718808 8.7578125 231.48828125 C10.99445528 230.09321055 13.23143531 228.69868039 15.46875 227.3046875 C16.55510742 226.61777832 17.64146484 225.93086914 18.76074219 225.22314453 C22.75692327 222.71229791 26.80687184 220.30418167 30.8828125 217.92578125 C31.54337646 217.53672607 32.20394043 217.1476709 32.88452148 216.74682617 C36.3588235 214.70734676 39.85552831 212.71526008 43.37890625 210.76171875 C44.12325928 210.34841309 44.8676123 209.93510742 45.63452148 209.50927734 C47.05681758 208.7229079 48.48198228 207.94169729 49.91040039 207.16650391 C53.47481786 205.37212226 53.47481786 205.37212226 55.8203125 202.30078125 C10.2803125 202.30078125 -35.2596875 202.30078125 -82.1796875 202.30078125 Z " fill="#DB68A4" transform="translate(263.1796875,115.69921875)"/>
<path d="M0 0 C0.66 0.99 1.32 1.98 2 3 C1.34 4.32 0.68 5.64 0 7 C48.51 7.33 97.02 7.66 147 8 C147 8.66 147 9.32 147 10 C96.84 10.33 46.68 10.66 -5 11 C-4 6 -4 6 -2 3 C-1.34 3 -0.68 3 0 3 C0 2.01 0 1.02 0 0 Z " fill="#965176" transform="translate(177,289)"/>
<path d="M0 0 C1.499087 0.00854775 1.499087 0.00854775 3.0284586 0.01726818 C4.17126789 0.02141735 5.31407719 0.02556652 6.49151707 0.02984142 C8.38896168 0.04454731 8.38896168 0.04454731 10.3247385 0.05955029 C11.66152339 0.06641575 12.99831046 0.07286562 14.33509922 0.07892895 C17.97559527 0.09689739 21.61601893 0.12145083 25.25646377 0.1476891 C28.29090054 0.16913388 31.32535204 0.18781559 34.35980612 0.20662087 C41.51645004 0.25118358 48.67303893 0.30148752 55.82962132 0.35496044 C63.22256975 0.4100681 70.61552762 0.45405494 78.00857824 0.4928115 C84.346637 0.52651267 90.68461608 0.56783107 97.02258784 0.6151368 C100.81206223 0.64329642 104.60149587 0.6683476 108.39103603 0.68579578 C111.95414827 0.70247332 115.51706559 0.72860077 119.0800581 0.7621069 C121.01669824 0.77792201 122.95341089 0.78388526 124.89010715 0.78960705 C126.03573627 0.80221569 127.18136539 0.81482433 128.36171055 0.82781506 C129.86136309 0.83805942 129.86136309 0.83805942 131.39131165 0.84851074 C133.75857639 1.11301708 133.75857639 1.11301708 135.75857639 3.11301708 C90.54857639 3.44301708 45.33857639 3.77301708 -1.24142361 4.11301708 C1.23357639 6.09301708 1.23357639 6.09301708 3.75857639 8.11301708 C1.50857639 8.80051708 1.50857639 8.80051708 -1.24142361 9.11301708 C-3.55392361 7.67551708 -3.55392361 7.67551708 -5.24142361 6.11301708 C-2.9474228 0.14861498 -2.9474228 0.14861498 0 0 Z " fill="#AB5581" transform="translate(183.24142360687256,314.88698291778564)"/>
<path d="M0 0 C1.98 0 3.96 0 6 0 C6 0.66 6 1.32 6 2 C6.804375 2.04125 7.60875 2.0825 8.4375 2.125 C13.30075931 3.31948474 17.1674927 5.78921055 21 9 C21 9.66 21 10.32 21 11 C22.093125 11.12375 23.18625 11.2475 24.3125 11.375 C28 12 28 12 31 14 C31 14.66 31 15.32 31 16 C30.34 16 29.68 16 29 16 C29 16.66 29 17.32 29 18 C29.66 18 30.32 18 31 18 C31.03738281 18.88042969 31.07476562 19.76085937 31.11328125 20.66796875 C31.21189453 22.41013672 31.21189453 22.41013672 31.3125 24.1875 C31.37050781 25.33605469 31.42851562 26.48460937 31.48828125 27.66796875 C32.02693153 31.17536331 33.10393242 33.05677446 35 36 C35 36.99 35 37.98 35 39 C35.78375 39.144375 36.5675 39.28875 37.375 39.4375 C40 40 40 40 42 41 C42 41.66 42 42.32 42 43 C44.72998676 42.88562349 47.4584582 42.75888594 50.1875 42.625 C51.34088867 42.57859375 51.34088867 42.57859375 52.51757812 42.53125 C56.8140145 42.30997431 60.0020978 41.68101921 64 40 C65.485 40.495 65.485 40.495 67 41 C61.68294375 45.8336875 56.23163607 47.4917764 49.03515625 47.2421875 C41.49115023 46.3444363 36.09590791 42.48338478 31 37 C28.25259848 32.74595894 27.44028043 29.01919693 27 24 C27.2371875 22.92105469 27.474375 21.84210938 27.71875 20.73046875 C27.39685494 16.93643336 27.39685494 16.93643336 24.79956055 15.17211914 C21.65276985 13.23456869 18.45741512 11.47159633 15.1875 9.75 C12.97065597 8.54011621 10.75572316 7.32672217 8.54296875 6.109375 C7.0583313 5.31998535 7.0583313 5.31998535 5.54370117 4.51464844 C3.29929749 3.17821688 1.71728379 1.94371084 0 0 Z " fill="#A3557F" transform="translate(199,353)"/>
<path d="M0 0 C0.70125 0.309375 1.4025 0.61875 2.125 0.9375 C5.44704186 2.2674499 5.44704186 2.2674499 11 3 C11 28.08 11 53.16 11 79 C9.515 79.495 9.515 79.495 8 80 C8.0030162 79.08402542 8.00603241 78.16805084 8.00914001 77.22431946 C8.03139574 68.58718971 8.02020051 59.95088805 7.97153378 51.31385517 C7.94769084 46.87346974 7.93673325 42.43383483 7.95532227 37.9934082 C7.97279057 33.70705311 7.95628212 29.4220457 7.91632271 25.13585472 C7.90703657 23.50164298 7.90994394 21.86731449 7.92530632 20.23314857 C8.3871329 11.58949406 8.3871329 11.58949406 5.38162231 3.89511108 C3.2942008 2.31720586 3.2942008 2.31720586 0 1 C0 0.67 0 0.34 0 0 Z " fill="#BD5F90" transform="translate(133,213)"/>
<path d="M0 0 C1.49551724 3.88834483 0.45463696 6.19590396 -1 10 C-2.33079424 12.81806882 -3.77728233 15.56637753 -5.25 18.3125 C-5.64968994 19.0650708 -6.04937988 19.8176416 -6.46118164 20.59301758 C-9.01087477 25.33416554 -11.77307726 29.81170754 -14.86328125 34.22265625 C-16.4268968 36.66748468 -17.15853162 39.23517532 -18 42 C-19.2473971 44.38997091 -20.6245071 46.67885573 -22 49 C-22.33 49.78375 -22.66 50.5675 -23 51.375 C-24 53 -24 53 -26.125 53.75 C-26.74375 53.8325 -27.3625 53.915 -28 54 C-28 54.99 -28 55.98 -28 57 C-28.66 57 -29.32 57 -30 57 C-30.495 59.475 -30.495 59.475 -31 62 C-31.66 62 -32.32 62 -33 62 C-31.72490223 57.77040738 -30.12029477 54.26006837 -27.8125 50.5 C-25.2314355 46.18229333 -22.88481438 41.83730141 -20.6875 37.3125 C-17.63277022 31.08608007 -14.20490663 25.15927945 -10.64160156 19.2121582 C-7.51280066 13.95989779 -4.70352298 8.63963998 -2.05859375 3.125 C-1 1 -1 1 0 0 Z " fill="#B15A85" transform="translate(213,186)"/>
<path d="M0 0 C2.375 -0.125 2.375 -0.125 5 0 C7 2 7 2 7.24050903 4.74612427 C7.23606781 5.91416595 7.23162659 7.08220764 7.22705078 8.28564453 C7.22734283 8.92967224 7.22763489 9.57369995 7.22793579 10.23724365 C7.22654074 12.36923627 7.21097174 14.50088082 7.1953125 16.6328125 C7.19158298 18.10968841 7.18873572 19.58656678 7.18673706 21.06344604 C7.17909574 24.95317398 7.15944308 28.84275288 7.1373291 32.73242188 C7.11688135 36.70050032 7.10773764 40.66860282 7.09765625 44.63671875 C7.07619756 52.42454716 7.04205572 60.21225271 7 68 C5.68 67.67 4.36 67.34 3 67 C3.00222061 66.21739304 3.00444122 65.43478607 3.00672913 64.62846375 C3.02675816 57.25661032 3.04198749 49.88477007 3.05181217 42.51289654 C3.0570329 38.72285998 3.0641159 34.93284589 3.07543945 31.14282227 C3.08629704 27.48591198 3.09228295 23.82902332 3.09487724 20.17209816 C3.0967263 18.77623975 3.10033699 17.38038253 3.10573006 15.98453331 C3.11297844 14.03096036 3.11340838 12.07736569 3.11352539 10.1237793 C3.115746 9.0112529 3.11796661 7.8987265 3.12025452 6.75248718 C3.12220281 3.9090776 3.12220281 3.9090776 2 1 C1.34 0.67 0.68 0.34 0 0 Z " fill="#A24F7B" transform="translate(334,212)"/>
<path d="M0 0 C0.90105469 0.10183594 1.80210937 0.20367187 2.73046875 0.30859375 C3.41753906 0.39238281 4.10460937 0.47617187 4.8125 0.5625 C5.3075 2.0475 5.3075 2.0475 5.8125 3.5625 C4.884375 3.10875 3.95625 2.655 3 2.1875 C0.24115134 1.40068532 -0.92094063 1.45012667 -3.59838867 2.57885742 C-4.4669751 3.08263916 -5.33556152 3.5864209 -6.23046875 4.10546875 C-7.20072998 4.66105469 -8.17099121 5.21664063 -9.1706543 5.7890625 C-10.16621338 6.37429688 -11.16177246 6.95953125 -12.1875 7.5625 C-13.12311768 8.10132813 -14.05873535 8.64015625 -15.02270508 9.1953125 C-17.91860911 10.86744332 -20.80395136 12.55666084 -23.6875 14.25 C-25.78759911 15.47944224 -27.8878618 16.70860511 -29.98828125 17.9375 C-31.54409912 18.84822266 -31.54409912 18.84822266 -33.13134766 19.77734375 C-38.48092402 22.90213225 -43.84535952 26.00118056 -49.2109375 29.09838867 C-50.28794922 29.72064331 -50.28794922 29.72064331 -51.38671875 30.35546875 C-52.04720215 30.73493652 -52.70768555 31.1144043 -53.38818359 31.50537109 C-54.9769972 32.43882604 -56.53257523 33.42835814 -58.08203125 34.42578125 C-58.77683594 34.80089844 -59.47164063 35.17601562 -60.1875 35.5625 C-62.1875 34.5625 -62.1875 34.5625 -63.1875 32.5625 C-61.2075 32.5625 -59.2275 32.5625 -57.1875 32.5625 C-56.8575 31.5725 -56.5275 30.5825 -56.1875 29.5625 C-55.5275 29.5625 -54.8675 29.5625 -54.1875 29.5625 C-54.1875 28.9025 -54.1875 28.2425 -54.1875 27.5625 C-52.5375 27.5625 -50.8875 27.5625 -49.1875 27.5625 C-49.14625 26.94375 -49.105 26.325 -49.0625 25.6875 C-48.1875 23.5625 -48.1875 23.5625 -45.375 22.3125 C-42.1875 21.5625 -42.1875 21.5625 -38.1875 21.5625 C-38.1875 20.2425 -38.1875 18.9225 -38.1875 17.5625 C-22.70498252 8.81774476 -22.70498252 8.81774476 -15.1875 6.5625 C-15.1875 5.9025 -15.1875 5.2425 -15.1875 4.5625 C-14.218125 4.27375 -13.24875 3.985 -12.25 3.6875 C-9.08085797 2.92035318 -9.08085797 2.92035318 -8.1875 0.5625 C-4.98734144 -0.50421952 -3.30205706 -0.38595472 0 0 Z " fill="#A45783" transform="translate(337.1875,332.4375)"/>
<path d="M0 0 C0.66 0 1.32 0 2 0 C0.69589588 4.95559566 -1.62336848 8.86765285 -4.29150391 13.17749023 C-9.83595249 22.33716014 -14.61000779 31.96349173 -19.5 41.48242188 C-22.75960021 47.77667593 -26.04298454 54.10878379 -30 60 C-30.33 60 -30.66 60 -31 60 C-31 58.35 -31 56.7 -31 55 C-30.34 55 -29.68 55 -29 55 C-28.814375 53.824375 -28.814375 53.824375 -28.625 52.625 C-28 50 -28 50 -26 48 C-25.3574765 45.93125966 -25.3574765 45.93125966 -25 44 C-24.34 44 -23.68 44 -23 44 C-22.67 41.03 -22.34 38.06 -22 35 C-21.34 35 -20.68 35 -20 35 C-18.92474806 32.34771188 -17.90543849 29.71631546 -17 27 C-16.34 27 -15.68 27 -15 27 C-15 25.68 -15 24.36 -15 23 C-14.34 23 -13.68 23 -13 23 C-12.88785156 22.43796875 -12.77570313 21.8759375 -12.66015625 21.296875 C-11.90942661 18.68486892 -10.78832624 16.60528678 -9.4375 14.25 C-8.98246094 13.45078125 -8.52742188 12.6515625 -8.05859375 11.828125 C-7.70925781 11.22484375 -7.35992187 10.6215625 -7 10 C-6.34 10 -5.68 10 -5 10 C-4.67 8.68 -4.34 7.36 -4 6 C-3.34 6 -2.68 6 -2 6 C-1.855625 5.195625 -1.71125 4.39125 -1.5625 3.5625 C-1 1 -1 1 0 0 Z " fill="#C25E94" transform="translate(244,169)"/>
<path d="M0 0 C2.47707965 4.95415931 2.18257716 7.72187987 1 13 C-1.25409587 19.75003709 -5.60024047 24.80012023 -12 28 C-13.43502405 37.41267523 -13.19053116 47.20549096 -13.31640625 56.7109375 C-13.33705611 58.0585685 -13.35805413 59.40619421 -13.37937927 60.7538147 C-13.43377317 64.2486941 -13.48353591 67.74362354 -13.53222656 71.23858643 C-13.58305769 74.82576794 -13.63841734 78.41287952 -13.69335938 82 C-13.79992459 88.99993905 -13.90158166 95.99994126 -14 103 C-13.34 103.33 -12.68 103.66 -12 104 C-13.32 104 -14.64 104 -16 104 C-16 77.93 -16 51.86 -16 25 C-13.69 24.34 -11.38 23.68 -9 23 C-9 22.34 -9 21.68 -9 21 C-4.52941176 17 -4.52941176 17 -2 17 C-1.34 11.39 -0.68 5.78 0 0 Z " fill="#834F6D" transform="translate(373,190)"/>
<path d="M0 0 C0.33 0 0.66 0 1 0 C1.81135502 15.97815262 2.16005243 31.91923994 2.13037109 47.91748047 C2.12488515 51.44893452 2.13042383 54.98026791 2.13671875 58.51171875 C2.13605991 60.76562528 2.13478279 63.01953174 2.1328125 65.2734375 C2.13483673 66.32526215 2.13686096 67.37708679 2.13894653 68.46078491 C2.13579437 69.42424835 2.13264221 70.38771179 2.12939453 71.38037109 C2.12859894 72.22731537 2.12780334 73.07425964 2.12698364 73.9468689 C2 76 2 76 1 78 C2.051875 78.061875 3.10375 78.12375 4.1875 78.1875 C8.74212532 79.15815786 10.04383018 80.48455481 13 84 C13.78375 84.86625 14.5675 85.7325 15.375 86.625 C15.91125 87.40875 16.4475 88.1925 17 89 C16.67 89.99 16.34 90.98 16 92 C15.67 91.01 15.34 90.02 15 89 C14.01 88.67 13.02 88.34 12 88 C11.34 86.35 10.68 84.7 10 83 C6.7 81.68 3.4 80.36 0 79 C0 52.93 0 26.86 0 0 Z " fill="#BD5B8F" transform="translate(356,216)"/>
<path d="M0 0 C0.33 0.66 0.66 1.32 1 2 C0.27003428 3.92445508 -0.46424597 5.84750364 -1.23046875 7.7578125 C-2.39506965 11.15111663 -2.68164191 14.43438934 -3 18 C-2.01 18.33 -1.02 18.66 0 19 C1.09765625 20.70703125 1.09765625 20.70703125 2.0625 22.8125 C2.38347656 23.49957031 2.70445312 24.18664062 3.03515625 24.89453125 C3.69178185 26.3274106 4.33183999 27.76797254 4.95703125 29.21484375 C5.89820645 31.29820491 5.89820645 31.29820491 8.625 31.75 C9.40875 31.8325 10.1925 31.915 11 32 C11 32.33 11 32.66 11 33 C17.27 33 23.54 33 30 33 C30 32.34 30 31.68 30 31 C35.37305699 30.03108808 35.37305699 30.03108808 38 30 C40 31.4375 40 31.4375 41 33 C40.505 33.99 40.505 33.99 40 35 C39.05125 34.5875 38.1025 34.175 37.125 33.75 C32.57583134 32.408225 29.6385232 34.17612998 25.47265625 36.0234375 C19.97020079 38.19660316 15.43765818 37.35827365 9.9375 35.5 C3.08665489 32.49616791 -1.26414974 27.55663854 -4 20.625 C-5.53284094 15.11248508 -5.60048794 9.24615094 -3.03125 4.03515625 C-1.9375 2.375 -1.9375 2.375 0 0 Z " fill="#954A79" transform="translate(130,301)"/>
<path d="M0 0 C-2.62940645 3.02384629 -5.7160404 4.64596813 -9.21484375 6.546875 C-9.82582413 6.88116516 -10.4368045 7.21545532 -11.06629944 7.55987549 C-13.02072652 8.62817738 -14.9788696 9.68942735 -16.9375 10.75 C-19.48963767 12.13814616 -22.03989875 13.5297063 -24.58984375 14.921875 C-25.21369965 15.26093872 -25.83755554 15.60000244 -26.48031616 15.94934082 C-31.60933185 18.7495871 -36.6223709 21.71539754 -41.61157227 24.75878906 C-44 26 -44 26 -47 26 C-47.33 29.3 -47.66 32.6 -48 36 C-48.33 36 -48.66 36 -49 36 C-49.2493357 34.39884424 -49.47378648 32.79379841 -49.6875 31.1875 C-49.81511719 30.29417969 -49.94273437 29.40085938 -50.07421875 28.48046875 C-50 26 -50 26 -48.76953125 24.17578125 C-47 23 -47 23 -43 23 C-42.67 22.01 -42.34 21.02 -42 20 C-42 20.66 -42 21.32 -42 22 C-41.3503125 21.319375 -41.3503125 21.319375 -40.6875 20.625 C-37.62196597 17.67300427 -36.35179141 17 -32 17 C-32 16.34 -32 15.68 -32 15 C-30.39125 14.38125 -30.39125 14.38125 -28.75 13.75 C-26.15266546 12.6612969 -25.00704488 12.00772664 -23.0625 9.875 C-19.9501263 7.04556936 -17.13953219 7.27596881 -13 7 C-13 6.01 -13 5.02 -13 4 C-11.35 4 -9.7 4 -8 4 C-8 3.01 -8 2.02 -8 1 C-5.07175348 0.02391783 -3.04386724 -0.08226668 0 0 Z " fill="#A0597F" transform="translate(220,168)"/>
<path d="M0 0 C4.98423802 1.48284963 9.32591891 3.60277051 13.875 6.0625 C14.60807373 6.45518066 15.34114746 6.84786133 16.09643555 7.25244141 C21.35871896 10.08368384 26.59496899 12.96217128 31.8125 15.875 C32.80709229 16.42812866 32.80709229 16.42812866 33.82177734 16.99243164 C37.0490595 18.81086011 40.10652943 20.68230821 43 23 C40.03 23.495 40.03 23.495 37 24 C37 23.34 37 22.68 37 22 C36.236875 21.896875 35.47375 21.79375 34.6875 21.6875 C31.81583516 20.95288806 30.76957906 20.3283935 29 18 C29 17.34 29 16.68 29 16 C28.01 16 27.02 16 26 16 C26 15.34 26 14.68 26 14 C25.01 14.33 24.02 14.66 23 15 C20.3125 14.5625 20.3125 14.5625 18 14 C18 13.34 18 12.68 18 12 C17.21689453 11.85498047 17.21689453 11.85498047 16.41796875 11.70703125 C13.15160343 10.75192281 10.32659434 9.26373971 7.3125 7.6875 C6.15363281 7.09324219 4.99476563 6.49898437 3.80078125 5.88671875 C1 4 1 4 0.10546875 1.76953125 C0.07066406 1.18558594 0.03585937 0.60164062 0 0 Z " fill="#B65E8C" transform="translate(290,151)"/>
<path d="M0 0 C3.21077888 2.71714724 4.89555538 6.23762085 6.80078125 9.90625 C7.15963913 10.58619019 7.51849701 11.26613037 7.88822937 11.9666748 C9.03486074 14.14175634 10.17389472 16.32070804 11.3125 18.5 C12.43884571 20.6438073 13.56674473 22.78678901 14.69528198 24.92944336 C15.42865137 26.32374609 16.1600569 27.71908365 16.88943481 29.11547852 C19.50273714 34.10824367 22.24340719 39.01684819 25.09057617 43.88085938 C26 46 26 46 25 49 C24.67 47.68 24.34 46.36 24 45 C23.34 45 22.68 45 22 45 C20.52734375 43.20703125 20.52734375 43.20703125 18.9375 40.8125 C18.41027344 40.03519531 17.88304687 39.25789063 17.33984375 38.45703125 C15.96190733 35.93014494 15.40767177 33.83357045 15 31 C14.34 31 13.68 31 13 31 C12.608125 30.05125 12.21625 29.1025 11.8125 28.125 C10.0962881 24.07374979 8.0594185 20.21159512 5.98828125 16.33203125 C5 14 5 14 5 10 C4.34 10 3.68 10 3 10 C3 8.68 3 7.36 3 6 C2.34 6 1.68 6 1 6 C0.67 4.02 0.34 2.04 0 0 Z " fill="#9C537D" transform="translate(310,230)"/>
<path d="M0 0 C0.33 0.66 0.66 1.32 1 2 C1.66 2.33 2.32 2.66 3 3 C2.34 3 1.68 3 1 3 C1 24.45 1 45.9 1 68 C0.34 68 -0.32 68 -1 68 C-1.02314216 59.42921353 -1.04092467 50.85844005 -1.05181217 42.28763008 C-1.05703689 38.30811588 -1.0641271 34.32862301 -1.07543945 30.34912109 C-1.08628291 26.51066757 -1.09227994 22.6722346 -1.09487724 18.83376694 C-1.09672885 17.36730501 -1.10034444 15.90084423 -1.10573006 14.43439102 C-1.11295983 12.38478388 -1.11399012 10.33526232 -1.11352539 8.28564453 C-1.115746 7.11760284 -1.11796661 5.94956116 -1.12025452 4.74612427 C-1 2 -1 2 0 0 Z " fill="#934973" transform="translate(161,212)"/>
<path d="M0 0 C0.53625 0.2475 1.0725 0.495 1.625 0.75 C-2.125 3.75 -2.125 3.75 -4.375 3.75 C-4.375 4.41 -4.375 5.07 -4.375 5.75 C-5.035 5.75 -5.695 5.75 -6.375 5.75 C-7.035 7.07 -7.695 8.39 -8.375 9.75 C-9.035 9.75 -9.695 9.75 -10.375 9.75 C-11.8167753 14.07532591 -11.69319253 18.50571107 -11.8046875 23.03320312 C-11.8984375 25.16015625 -11.8984375 25.16015625 -12.375 28.75 C-15.37940021 30.75293347 -17.08493945 31.24271626 -20.5625 31.875 C-21.91408203 32.12636719 -21.91408203 32.12636719 -23.29296875 32.3828125 C-23.98003906 32.50398438 -24.66710937 32.62515625 -25.375 32.75 C-22.66422757 29.77873292 -20.24348614 28.86756266 -16.375 27.75 C-16.41625 26.595 -16.4575 25.44 -16.5 24.25 C-16.44054637 15.80758417 -14.17610371 9.97725114 -8.375 3.75 C-5.76894954 1.40712213 -3.66548133 -0.38584014 0 0 Z " fill="#B45A89" transform="translate(242.375,114.25)"/>
<path d="M0 0 C5.74680552 4.92583331 9.42322718 11.57888446 11 19 C11.66 19 12.32 19 13 19 C14.03544174 20.90881434 15.05290085 22.82739204 16.0625 24.75 C16.63097656 25.81734375 17.19945312 26.8846875 17.78515625 27.984375 C19.01044806 31.02593537 19.25348607 32.04893565 18 35 C13.02981064 30.50466513 10.33742711 24.73248678 7.23461914 18.90014648 C6.18535131 16.93347265 5.11788413 14.97745728 4.04882812 13.02148438 C3.37908638 11.77403922 2.71042787 10.52601174 2.04296875 9.27734375 C1.43477295 8.14546631 0.82657715 7.01358887 0.19995117 5.84741211 C-1 3 -1 3 0 0 Z " fill="#9F4E7B" transform="translate(303,255)"/>
<path d="M0 0 C0.66 0 1.32 0 2 0 C2 0.66 2 1.32 2 2 C2.99 2 3.98 2 5 2 C6.85776765 5.13498292 7.20140476 7.37471432 7 11 C7.66 11 8.32 11 9 11 C9 11.66 9 12.32 9 13 C9.66 13 10.32 13 11 13 C11 13.99 11 14.98 11 16 C11.99 16.33 12.98 16.66 14 17 C15.16796875 18.7421875 15.16796875 18.7421875 16.1875 20.875 C16.53167969 21.57367188 16.87585938 22.27234375 17.23046875 22.9921875 C18 25 18 25 18 28 C18.66 28.33 19.32 28.66 20 29 C21.03013277 30.64821244 22.03114628 32.31503702 23 34 C23.495 34.495 23.495 34.495 24 35 C24.04092937 37.33297433 24.04241723 39.66705225 24 42 C21.33394828 39.61074877 19.81744247 37.10132975 18.14453125 33.94921875 C17.339552 32.44500366 17.339552 32.44500366 16.51831055 30.91040039 C15.95539307 29.84684326 15.39247559 28.78328613 14.8125 27.6875 C13.64974923 25.51231914 12.48569037 23.337837 11.3203125 21.1640625 C10.75473633 20.10864258 10.18916016 19.05322266 9.60644531 17.96582031 C6.93095491 13.0263283 4.12433491 8.16767486 1.29296875 3.31640625 C0 1 0 1 0 0 Z " fill="#A35981" transform="translate(278,214)"/>
<path d="M0 0 C2.82807771 4.24211656 1.92367977 7.15265487 1 12 C-0.52492683 19.47074247 -4.92536421 23.62207283 -11 28 C-15.70667643 30.3053109 -19.84992172 30.33226311 -25 30 C-27.2421875 28.984375 -27.2421875 28.984375 -29 28 C-28.09378906 27.92523438 -27.18757813 27.85046875 -26.25390625 27.7734375 C-18.83424732 26.97258543 -13.59117726 25.89306785 -7.671875 21.2421875 C-6 20 -6 20 -4 20 C-4.04125 19.319375 -4.0825 18.63875 -4.125 17.9375 C-3.97450035 14.40075832 -3.05624147 11.36676967 -2 8 C-1.34 8 -0.68 8 0 8 C0 5.36 0 2.72 0 0 Z " fill="#AA5B83" transform="translate(373,308)"/>
<path d="M0 0 C1.98 0 3.96 0 6 0 C6 0.66 6 1.32 6 2 C6.804375 2.04125 7.60875 2.0825 8.4375 2.125 C13.30075931 3.31948474 17.1674927 5.78921055 21 9 C21 9.66 21 10.32 21 11 C22.093125 11.12375 23.18625 11.2475 24.3125 11.375 C28 12 28 12 31 14 C31 14.66 31 15.32 31 16 C25.9404052 15.50734382 22.43067729 14.4648909 18.06640625 11.875 C17.00615234 11.25109375 15.94589844 10.6271875 14.85351562 9.984375 C13.76748047 9.32953125 12.68144531 8.6746875 11.5625 8 C10.44939453 7.34515625 9.33628906 6.6903125 8.18945312 6.015625 C2.29938373 2.5198634 2.29938373 2.5198634 0 1 C0 0.67 0 0.34 0 0 Z " fill="#B75A90" transform="translate(199,353)"/>
<path d="M0 0 C0.66 0.33 1.32 0.66 2 1 C1.34 3.31 0.68 5.62 0 8 C-0.66 8 -1.32 8 -2 8 C-3.05619003 12.28297531 -3.11702092 16.42985646 -3.0625 20.8125 C-3.05798828 21.50537109 -3.05347656 22.19824219 -3.04882812 22.91210938 C-3.03713156 24.60811068 -3.01919924 26.30406703 -3 28 C-2.01 27.67 -1.02 27.34 0 27 C0.33 29.31 0.66 31.62 1 34 C-3.57397956 29.92050471 -6.46736004 26.04952295 -7.28515625 19.83203125 C-7.59658201 11.96514582 -5.29549249 5.84330206 0 0 Z " fill="#9F517E" transform="translate(132,179)"/>
<path d="M0 0 C0.53625 0.391875 1.0725 0.78375 1.625 1.1875 C0.7175 1.435 -0.19 1.6825 -1.125 1.9375 C-4.41836374 2.95164355 -4.41836374 2.95164355 -6.4375 5.25 C-8.74252258 7.55502258 -10.2307335 7.67761895 -13.375 8.1875 C-13.705 8.8475 -14.035 9.5075 -14.375 10.1875 C-15.695 9.8575 -17.015 9.5275 -18.375 9.1875 C-18.375 9.8475 -18.375 10.5075 -18.375 11.1875 C-19.035 11.1875 -19.695 11.1875 -20.375 11.1875 C-20.375 12.1775 -20.375 13.1675 -20.375 14.1875 C-23.88276784 15.79105101 -26.51854879 16.40786864 -30.375 16.1875 C-30.375 16.8475 -30.375 17.5075 -30.375 18.1875 C-32.025 18.1875 -33.675 18.1875 -35.375 18.1875 C-32.43532016 15.88650826 -29.41481674 13.98867231 -26.1640625 12.15625 C-25.16632813 11.59292969 -24.16859375 11.02960938 -23.140625 10.44921875 C-22.10421875 9.86785156 -21.0678125 9.28648437 -20 8.6875 C-18.45699219 7.81544922 -18.45699219 7.81544922 -16.8828125 6.92578125 C-14.05412467 5.33282174 -11.21791563 3.75490026 -8.375 2.1875 C-7.72160645 1.82358154 -7.06821289 1.45966309 -6.39501953 1.0847168 C-2.6619896 -0.91068065 -2.6619896 -0.91068065 0 0 Z " fill="#A15379" transform="translate(206.375,153.8125)"/>
<path d="M0 0 C0.99 0.495 0.99 0.495 2 1 C2 22.78 2 44.56 2 67 C2.99 65.68 3.98 64.36 5 63 C5.66 62.34 6.32 61.68 7 61 C7.6875 63.3125 7.6875 63.3125 8 66 C6.48151913 68.23776128 5.38757109 68.87819194 2.8125 69.6875 C2.214375 69.790625 1.61625 69.89375 1 70 C-0.4278535 67.14429301 -0.11941486 64.72285644 -0.11352539 61.53076172 C-0.11367142 60.86722687 -0.11381744 60.20369202 -0.1139679 59.52005005 C-0.11327031 57.32322947 -0.10548514 55.1264933 -0.09765625 52.9296875 C-0.09579152 51.40796963 -0.09436788 49.88625116 -0.09336853 48.36453247 C-0.08954767 44.35648953 -0.07972104 40.34848274 -0.06866455 36.3404541 C-0.05844118 32.25171396 -0.05386892 28.16296799 -0.04882812 24.07421875 C-0.0380984 16.04946256 -0.02102713 8.02473578 0 0 Z " fill="#C15A91" transform="translate(159,213)"/>
<path d="M0 0 C2.97 0.99 5.94 1.98 9 3 C9 28.41 9 53.82 9 80 C8.67 80 8.34 80 8 80 C8.0030162 79.08402542 8.00603241 78.16805084 8.00914001 77.22431946 C8.03139574 68.58718971 8.02020051 59.95088805 7.97153378 51.31385517 C7.94769084 46.87346974 7.93673325 42.43383483 7.95532227 37.9934082 C7.97279057 33.70705311 7.95628212 29.4220457 7.91632271 25.13585472 C7.90703657 23.50164298 7.90994394 21.86731449 7.92530632 20.23314857 C8.3871329 11.58949406 8.3871329 11.58949406 5.38162231 3.89511108 C3.2942008 2.31720586 3.2942008 2.31720586 0 1 C0 0.67 0 0.34 0 0 Z " fill="#864E6F" transform="translate(133,213)"/>
<path d="M0 0 C1.65 0 3.3 0 5 0 C4.67 0.66 4.34 1.32 4 2 C3.92158213 4.18698723 3.86206252 6.37466864 3.8125 8.5625 C3.3954004 15.54532267 1.53900286 19.75307927 -3 25 C-3.66 24.01 -4.32 23.02 -5 22 C-4.125 18.8125 -4.125 18.8125 -3 16 C-2.34 16 -1.68 16 -1 16 C-0.67 10.72 -0.34 5.44 0 0 Z " fill="#BB5C92" transform="translate(270,368)"/>
<path d="M0 0 C0 0.99 0 1.98 0 3 C-4.77220134 7.4462313 -8.11042991 8.57490217 -14.578125 8.48828125 C-15.45984375 8.45089844 -16.3415625 8.41351563 -17.25 8.375 C-18.1471875 8.36082031 -19.044375 8.34664063 -19.96875 8.33203125 C-23.59762892 8.25054445 -26.53498984 8.15500339 -30 7 C-29.67 6.34 -29.34 5.68 -29 5 C-23.94162772 3.97765762 -18.86860795 3.69244754 -13.8125 4.75 C-9.12798739 5.05718115 -7.34731931 3.82164579 -3.6640625 1.12890625 C-2 0 -2 0 0 0 Z " fill="#BA5D8C" transform="translate(270,348)"/>
<path d="M0 0 C2.68940309 2.40295779 4.1993876 4.94586511 5.875 8.125 C8.2178044 12.53532928 10.62775159 16.89354285 13.1171875 21.22265625 C14 23 14 23 14 25 C11.39722618 24.64099671 10.27253709 24.32571506 8.55859375 22.27734375 C3.61944146 15.06048714 0.28959327 8.83259477 0 0 Z " fill="#AB5882" transform="translate(296,204)"/>
<path d="M0 0 C2.47707965 4.95415931 2.18257716 7.72187987 1 13 C-1.04795841 19.13274502 -4.54945669 23.50824569 -10 27 C-12.9375 27.875 -12.9375 27.875 -15 28 C-15 30.31 -15 32.62 -15 35 C-15.33 35 -15.66 35 -16 35 C-16 31.7 -16 28.4 -16 25 C-13.69 24.34 -11.38 23.68 -9 23 C-9 22.34 -9 21.68 -9 21 C-4.52941176 17 -4.52941176 17 -2 17 C-1.34 11.39 -0.68 5.78 0 0 Z " fill="#B3588B" transform="translate(373,190)"/>
<path d="M0 0 C8.34335546 -0.64919481 14.88897784 -0.73373856 21.93359375 4.140625 C25.08108126 6.97276877 27.333423 10.10547269 29 14 C29 14.66 29 15.32 29 16 C26.625 15.375 26.625 15.375 24 14 C23.33333333 12 22.66666667 10 22 8 C19.76740335 6.77227173 19.76740335 6.77227173 17 6 C15.948125 5.319375 14.89625 4.63875 13.8125 3.9375 C9.47000409 1.3531385 4.95830531 1.19952939 0 1 C0 0.67 0 0.34 0 0 Z " fill="#B55D8C" transform="translate(344,173)"/>
<path d="M0 0 C2.90041704 1.45020852 3.36120506 3.47047725 4.75 6.375 C7.30072378 11.62722925 10.02576322 16.73788877 12.8984375 21.8203125 C14 24 14 24 14 26 C13.01 25.67 12.02 25.34 11 25 C10.67 24.01 10.34 23.02 10 22 C9.1028125 21.13375 9.1028125 21.13375 8.1875 20.25 C2.75606404 14.66338015 0 7.77577214 0 0 Z " fill="#AE5587" transform="translate(282,178)"/>
<path d="M0 0 C5.26797595 2.00160969 9.95421018 4.73302621 14.8125 7.5625 C15.69615234 8.06974609 16.57980469 8.57699219 17.49023438 9.09960938 C18.32490234 9.58365234 19.15957031 10.06769531 20.01953125 10.56640625 C20.78370361 11.00927979 21.54787598 11.45215332 22.33520508 11.90844727 C22.8845874 12.26865967 23.43396973 12.62887207 24 13 C24 13.33 24 13.66 24 14 C18.03435204 13.49228528 13.36190101 11.61407872 8 9 C8 8.34 8 7.68 8 7 C7.236875 6.9175 6.47375 6.835 5.6875 6.75 C2.45284809 5.84730645 1.64900735 4.86406539 0 2 C0 1.34 0 0.68 0 0 Z " fill="#AC5C85" transform="translate(215,339)"/>
<path d="M0 0 C1.35158203 0.15275391 1.35158203 0.15275391 2.73046875 0.30859375 C3.41753906 0.39238281 4.10460937 0.47617187 4.8125 0.5625 C5.1425 1.5525 5.4725 2.5425 5.8125 3.5625 C4.884375 3.10875 3.95625 2.655 3 2.1875 C-0.91146917 1.06768423 -3.00257313 2.14487675 -6.5 4.0625 C-8.40928668 5.20701715 -10.30503352 6.37438591 -12.1875 7.5625 C-14.0395706 8.69094739 -15.89361796 9.8161594 -17.75 10.9375 C-18.55566406 11.44023437 -19.36132812 11.94296875 -20.19140625 12.4609375 C-22.1875 13.5625 -22.1875 13.5625 -24.1875 13.5625 C-24.1875 12.5725 -24.1875 11.5825 -24.1875 10.5625 C-21.2175 9.2425 -18.2475 7.9225 -15.1875 6.5625 C-15.1875 5.9025 -15.1875 5.2425 -15.1875 4.5625 C-14.218125 4.27375 -13.24875 3.985 -12.25 3.6875 C-9.08085797 2.92035318 -9.08085797 2.92035318 -8.1875 0.5625 C-4.98734144 -0.50421952 -3.30205706 -0.38595472 0 0 Z " fill="#9F547E" transform="translate(337.1875,332.4375)"/>
<path d="M0 0 C5.40540541 1.40540541 5.40540541 1.40540541 7 3 C7.07226502 4.85287502 7.0838122 6.70833878 7.0625 8.5625 C7.05347656 9.57441406 7.04445313 10.58632812 7.03515625 11.62890625 C7.02355469 12.41136719 7.01195312 13.19382813 7 14 C7.66 14 8.32 14 9 14 C9.66 16.31 10.32 18.62 11 21 C10.01 21 9.02 21 8 21 C4.19053359 15.34724339 3.27259009 10.77386385 3 4 C1.02 3.34 -0.96 2.68 -3 2 C-2.01 1.34 -1.02 0.68 0 0 Z " fill="#AD5387" transform="translate(324,190)"/>
<path d="M0 0 C0.66 0.99 1.32 1.98 2 3 C1.01 4.98 0.02 6.96 -1 9 C11.54 9 24.08 9 37 9 C37 9.33 37 9.66 37 10 C16.21 10.495 16.21 10.495 -5 11 C-4 6 -4 6 -2 3 C-1.34 3 -0.68 3 0 3 C0 2.01 0 1.02 0 0 Z " fill="#CB709E" transform="translate(177,289)"/>
<path d="M0 0 C4.21878192 -0.19622241 7.17010894 0.19769832 11 2 C11 2.66 11 3.32 11 4 C11.99 4.33 12.98 4.66 14 5 C15.34187818 5.6492959 16.67479497 6.31731862 18 7 C19.0828125 7.433125 19.0828125 7.433125 20.1875 7.875 C22 9 22 9 22.75 11.125 C22.87375 12.053125 22.87375 12.053125 23 13 C17.92365174 11.2010497 13.36286389 8.50973545 8.6875 5.875 C7.85154297 5.40707031 7.01558594 4.93914062 6.15429688 4.45703125 C4.10133767 3.3073741 2.04997798 2.15496198 0 1 C0 0.67 0 0.34 0 0 Z " fill="#A4517D" transform="translate(298,178)"/>
<path d="M0 0 C2.71185401 0.35346815 3.74570831 0.68213538 5.484375 2.85546875 C7.94414581 7.38782423 9.6814647 10.68457536 9 16 C9.639375 16.226875 10.27875 16.45375 10.9375 16.6875 C13 18 13 18 13.75 20.625 C13.8325 21.40875 13.915 22.1925 14 23 C13.34 23.33 12.68 23.66 12 24 C9.99321599 20.37871557 7.9957352 16.75238357 6 13.125 C5.42765625 12.09246094 4.8553125 11.05992187 4.265625 9.99609375 C3.72421875 9.00996094 3.1828125 8.02382812 2.625 7.0078125 C2.12226563 6.09660645 1.61953125 5.18540039 1.1015625 4.24658203 C0 2 0 2 0 0 Z " fill="#A14E7C" transform="translate(259,178)"/>
<path d="M0 0 C3.61646109 1.36839068 6.93820562 2.99008303 10.3125 4.875 C14.82395862 7.36913973 19.37226169 9.72978876 24 12 C23.34 12.66 22.68 13.32 22 14 C20.68 14 19.36 14 18 14 C18 13.34 18 12.68 18 12 C17.236875 11.896875 16.47375 11.79375 15.6875 11.6875 C12.81583516 10.95288806 11.76957906 10.3283935 10 8 C10 7.34 10 6.68 10 6 C9.01 6 8.02 6 7 6 C7 5.34 7 4.68 7 4 C6.01 4.33 5.02 4.66 4 5 C1.8125 3.6875 1.8125 3.6875 0 2 C0 1.34 0 0.68 0 0 Z " fill="#AA5885" transform="translate(309,161)"/>
<path d="M0 0 C0.66 0.33 1.32 0.66 2 1 C0.60746468 4.48133831 -0.63176216 5.47886033 -4 7 C-4.33 7.66 -4.66 8.32 -5 9 C-5.66 9 -6.32 9 -7 9 C-7.97415762 12.54558268 -8.51742181 16.11614542 -9.0625 19.75 C-9.23910156 20.92046875 -9.41570312 22.0909375 -9.59765625 23.296875 C-9.79681641 24.63492187 -9.79681641 24.63492187 -10 26 C-10.66 26 -11.32 26 -12 26 C-12.7518362 18.33127078 -10.62396941 11.76354687 -7 5 C-4.74402484 2.67876936 -2.89304952 1.53161445 0 0 Z " fill="#C86298" transform="translate(139,293)"/>
<path d="M0 0 C0.66 0.33 1.32 0.66 2 1 C-2.95 9.91 -2.95 9.91 -8 19 C-8.66 17.68 -9.32 16.36 -10 15 C-8.86065188 11.85322899 -7.49311803 8.98623607 -6 6 C-5.34 6 -4.68 6 -4 6 C-3.566875 4.7934375 -3.566875 4.7934375 -3.125 3.5625 C-2 1 -2 1 0 0 Z " fill="#BA598F" transform="translate(211,230)"/>
<path d="M0 0 C-2.10566816 5.46447759 -4.7919856 10.56488716 -7.5 15.75 C-8.24830078 17.20599609 -8.24830078 17.20599609 -9.01171875 18.69140625 C-9.49253906 19.61308594 -9.97335938 20.53476563 -10.46875 21.484375 C-10.90638672 22.32709961 -11.34402344 23.16982422 -11.79492188 24.03808594 C-13 26 -13 26 -15 27 C-15 25.35 -15 23.7 -15 22 C-14.34 22 -13.68 22 -13 22 C-12.87625 21.21625 -12.7525 20.4325 -12.625 19.625 C-12 17 -12 17 -10 15 C-9.3574765 12.93125966 -9.3574765 12.93125966 -9 11 C-8.34 11 -7.68 11 -7 11 C-7 10.01 -7 9.02 -7 8 C-6.34 8 -5.68 8 -5 8 C-5.061875 7.236875 -5.12375 6.47375 -5.1875 5.6875 C-5 3 -5 3 -3.625 1.1875 C-2 0 -2 0 0 0 Z " fill="#8B4A6C" transform="translate(228,202)"/>
<path d="M0 0 C4.62123013 1.54041004 5.59071101 5.20627804 7.75 9.375 C8.17410156 10.15617187 8.59820312 10.93734375 9.03515625 11.7421875 C9.43089844 12.495 9.82664062 13.2478125 10.234375 14.0234375 C10.59756836 14.71356934 10.96076172 15.40370117 11.33496094 16.11474609 C12 18 12 18 11 21 C10.67 19.68 10.34 18.36 10 17 C9.34 17 8.68 17 8 17 C6.52734375 15.20703125 6.52734375 15.20703125 4.9375 12.8125 C4.41027344 12.03519531 3.88304687 11.25789063 3.33984375 10.45703125 C1.96190733 7.93014494 1.40767177 5.83357045 1 3 C0.34 3 -0.32 3 -1 3 C-0.67 2.01 -0.34 1.02 0 0 Z " fill="#B25B88" transform="translate(324,258)"/>
<path d="M0 0 C1.1875 1.65625 1.1875 1.65625 2 4 C0.875 6.59375 0.875 6.59375 -1 9.5 C-4.28248533 14.76363031 -7.08519442 20.09502711 -9.73828125 25.69921875 C-11 28 -11 28 -13 29 C-13 27.35 -13 25.7 -13 24 C-12.34 24 -11.68 24 -11 24 C-11.33 23.01 -11.66 22.02 -12 21 C-11.01 21 -10.02 21 -9 21 C-9 19.68 -9 18.36 -9 17 C-8.34 17 -7.68 17 -7 17 C-6.67 15.35 -6.34 13.7 -6 12 C-5.34 12 -4.68 12 -4 12 C-4 10.68 -4 9.36 -4 8 C-3.34 7.67 -2.68 7.34 -2 7 C-1.26924352 4.6859378 -0.59861742 2.35171131 0 0 Z " fill="#974E74" transform="translate(200,247)"/>
<path d="M0 0 C1.12025107 3.33027019 0.89423549 5.36541892 -0.1875 8.6875 C-0.42855469 9.47511719 -0.66960937 10.26273438 -0.91796875 11.07421875 C-2 13 -2 13 -4.11328125 13.76953125 C-4.73589844 13.84558594 -5.35851562 13.92164063 -6 14 C-6 14.99 -6 15.98 -6 17 C-6.66 17 -7.32 17 -8 17 C-8.33 18.65 -8.66 20.3 -9 22 C-9.66 22 -10.32 22 -11 22 C-9.67146298 17.549401 -7.89749132 13.84711486 -5.5 9.875 C-3.54967346 6.62721047 -1.6357325 3.41868093 0 0 Z " fill="#9B5378" transform="translate(191,226)"/>
<path d="M0 0 C0.94875 0.165 1.8975 0.33 2.875 0.5 C6.02003644 1.25006513 6.02003644 1.25006513 9 0 C11.06145107 -0.068991 13.12501401 -0.08467727 15.1875 -0.0625 C16.81751953 -0.04896484 16.81751953 -0.04896484 18.48046875 -0.03515625 C19.31191406 -0.02355469 20.14335937 -0.01195312 21 0 C21 0.33 21 0.66 21 1 C18.36 1 15.72 1 13 1 C13 1.66 13 2.32 13 3 C11.68 3 10.36 3 9 3 C9 3.66 9 4.32 9 5 C3.25 6.125 3.25 6.125 1 5 C1 4.01 1 3.02 1 2 C0.34 1.67 -0.32 1.34 -1 1 C-0.67 0.67 -0.34 0.34 0 0 Z " fill="#C05F93" transform="translate(333,174)"/>
<path d="M0 0 C4.4287495 4.07911138 6.81216202 7.0058626 7.1953125 13.11328125 C7.16050781 14.69689453 7.16050781 14.69689453 7.125 16.3125 C7.10695313 17.38113281 7.08890625 18.44976562 7.0703125 19.55078125 C7.03550781 20.76314453 7.03550781 20.76314453 7 22 C4.92297641 18.88446461 4.25093145 16.60989929 3.375 13 C3.11460937 11.948125 2.85421875 10.89625 2.5859375 9.8125 C2 7 2 7 2 4 C1.34 4 0.68 4 0 4 C0 2.68 0 1.36 0 0 Z " fill="#9F517A" transform="translate(266,119)"/>
<path d="M0 0 C0.66 0.99 1.32 1.98 2 3 C1.34 3 0.68 3 0 3 C-0.061875 4.155 -0.12375 5.31 -0.1875 6.5 C-0.77618982 11.49494394 -3.10663093 14.98558388 -6 19 C-6.99 18.34 -7.98 17.68 -9 17 C-6.03 11.39 -3.06 5.78 0 0 Z " fill="#A55883" transform="translate(179,248)"/>
<path d="M0 0 C0.66 0 1.32 0 2 0 C2.09377123 7.41834582 2.17402193 14.66236293 1 22 C0.34 22 -0.32 22 -1 22 C-1.02726927 19.64575325 -1.04696719 17.29183038 -1.0625 14.9375 C-1.07990234 12.97103516 -1.07990234 12.97103516 -1.09765625 10.96484375 C-1.00452335 7.1836481 -0.61448726 3.72079293 0 0 Z " fill="#8E4372" transform="translate(358,218)"/>
<path d="M0 0 C0.33 1.32 0.66 2.64 1 4 C-0.38481328 4.87191947 -1.78345246 5.72190384 -3.1875 6.5625 C-3.96480469 7.03816406 -4.74210937 7.51382812 -5.54296875 8.00390625 C-8.48360967 9.19605797 -10.00446363 8.88855164 -13 8 C-8.98745115 4.48901975 -4.79016959 2.23462006 0 0 Z " fill="#CD619B" transform="translate(312,343)"/>
<path d="M0 0 C7.3781344 2.75626881 7.3781344 2.75626881 9 6 C7.68 6 6.36 6 5 6 C4.67 5.34 4.34 4.68 4 4 C2.16850982 3.43936438 2.16850982 3.43936438 -0.03515625 3.1484375 C-0.84404297 3.01953125 -1.65292969 2.890625 -2.48632812 2.7578125 C-3.33646484 2.63148437 -4.18660156 2.50515625 -5.0625 2.375 C-5.91650391 2.2409375 -6.77050781 2.106875 -7.65039062 1.96875 C-9.76569589 1.63786426 -11.88270604 1.31791201 -14 1 C-9.12416823 -1.60719779 -5.34577566 -1.12668814 0 0 Z " fill="#A45A7C" transform="translate(257,113)"/>
<path d="M0 0 C0.66 0 1.32 0 2 0 C2 0.66 2 1.32 2 2 C2.99 2 3.98 2 5 2 C6.85776765 5.13498292 7.20140476 7.37471432 7 11 C7.66 11 8.32 11 9 11 C9 11.66 9 12.32 9 13 C9.66 13 10.32 13 11 13 C11.33 15.64 11.66 18.28 12 21 C8.93736668 17.22374338 6.6711968 13.04461149 4.3125 8.8125 C3.89677734 8.07580078 3.48105469 7.33910156 3.05273438 6.58007812 C0 1.13127309 0 1.13127309 0 0 Z " fill="#9A517A" transform="translate(278,214)"/>
<path d="M0 0 C2.08343904 2.50012684 3.71433305 5.14195318 5.25 8 C5.60578125 8.66 5.9615625 9.32 6.328125 10 C7.13384316 12.39841683 6.81998065 13.64518377 6 16 C1.71239766 12.5994878 0.03632162 8.25909008 -1 3 C-0.67 2.01 -0.34 1.02 0 0 Z " fill="#C86097" transform="translate(315,274)"/>
<path d="M0 0 C-2.03281378 2.18520678 -3.93145018 3.66511505 -6.57421875 5.04296875 C-7.24130859 5.39423828 -7.90839844 5.74550781 -8.59570312 6.10742188 C-9.28599609 6.46384766 -9.97628906 6.82027344 -10.6875 7.1875 C-11.38939453 7.55552734 -12.09128906 7.92355469 -12.81445312 8.30273438 C-14.54037635 9.2067894 -16.26984719 10.10406601 -18 11 C-18.33 10.01 -18.66 9.02 -19 8 C-18 7 -18 7 -15.4375 6.9375 C-14.2309375 6.9684375 -14.2309375 6.9684375 -13 7 C-13 6.01 -13 5.02 -13 4 C-11.35 4 -9.7 4 -8 4 C-8 3.01 -8 2.02 -8 1 C-5.07175348 0.02391783 -3.04386724 -0.08226668 0 0 Z " fill="#964C76" transform="translate(220,168)"/>
<path d="M0 0 C1.32 0 2.64 0 4 0 C4 0.66 4 1.32 4 2 C5.093125 2.12375 6.18625 2.2475 7.3125 2.375 C11 3 11 3 14 5 C14 5.66 14 6.32 14 7 C15.32 7.33 16.64 7.66 18 8 C18 8.66 18 9.32 18 10 C13.48548686 8.6510689 9.67722719 6.83381706 5.625 4.4375 C4.56539063 3.81746094 3.50578125 3.19742188 2.4140625 2.55859375 C1.61742187 2.04425781 0.82078125 1.52992188 0 1 C0 0.67 0 0.34 0 0 Z " fill="#9E527F" transform="translate(280,168)"/>
<path d="M0 0 C0.66 0.33 1.32 0.66 2 1 C2 1.66 2 2.32 2 3 C7.44693314 3.09688221 12.63904667 3.12862175 18 2 C18 2.66 18 3.32 18 4 C14.6244732 5.6877634 10.83376289 5.18459799 7.125 5.1875 C5.90103516 5.20586914 5.90103516 5.20586914 4.65234375 5.22460938 C3.46705078 5.22750977 3.46705078 5.22750977 2.2578125 5.23046875 C1.5373877 5.23457764 0.81696289 5.23868652 0.07470703 5.24291992 C-2.34522676 4.95957865 -3.93347311 4.2776068 -6 3 C-6.33 2.34 -6.66 1.68 -7 1 C-5.5459375 1.0309375 -5.5459375 1.0309375 -4.0625 1.0625 C-1.12534105 1.35618499 -1.12534105 1.35618499 0 0 Z " fill="#CA639C" transform="translate(142,330)"/>
<path d="M0 0 C0 0.66 0 1.32 0 2 C-1.43294498 2.84114171 -2.87154405 3.67265687 -4.3125 4.5 C-5.11300781 4.9640625 -5.91351563 5.428125 -6.73828125 5.90625 C-9 7 -9 7 -12 7 C-12.33 10.3 -12.66 13.6 -13 17 C-13.33 17 -13.66 17 -14 17 C-14.2493357 15.39884424 -14.47378648 13.79379841 -14.6875 12.1875 C-14.81511719 11.29417969 -14.94273437 10.40085938 -15.07421875 9.48046875 C-15 7 -15 7 -13.76953125 5.17578125 C-12 4 -12 4 -8 4 C-7.67 3.01 -7.34 2.02 -7 1 C-7 1.66 -7 2.32 -7 3 C-6.5875 2.505 -6.175 2.01 -5.75 1.5 C-4 0 -4 0 0 0 Z " fill="#9B5077" transform="translate(185,187)"/>
<path d="M0 0 C0.33 0 0.66 0 1 0 C1.22354607 1.89409978 1.42819951 3.7904348 1.625 5.6875 C1.74101562 6.74324219 1.85703125 7.79898438 1.9765625 8.88671875 C2.00181297 12.24082259 1.75675381 14.14016822 0 17 C-2.3828125 17.92578125 -2.3828125 17.92578125 -5.125 18.3125 C-6.03507813 18.45300781 -6.94515625 18.59351563 -7.8828125 18.73828125 C-8.58148438 18.82464844 -9.28015625 18.91101563 -10 19 C-7.28922757 16.02873292 -4.86848614 15.11756266 -1 14 C-1.020625 12.80375 -1.04125 11.6075 -1.0625 10.375 C-1.06882571 6.81995131 -0.69888875 3.49444376 0 0 Z " fill="#8A4B6F" transform="translate(227,128)"/>
<path d="M0 0 C2.41696872 -0.05411124 4.83271787 -0.09372278 7.25 -0.125 C7.93191406 -0.14175781 8.61382812 -0.15851563 9.31640625 -0.17578125 C13.16374827 -0.21313409 15.65824102 0.15009771 19 2 C22.68203915 1.68873287 22.68203915 1.68873287 26 1 C26 1.66 26 2.32 26 3 C25.01 3 24.02 3 23 3 C23.33 3.99 23.66 4.98 24 6 C23.34 6 22.68 6 22 6 C22 5.34 22 4.68 22 4 C19.03 4 16.06 4 13 4 C13 3.01 13 2.02 13 1 C8.71 1 4.42 1 0 1 C0 0.67 0 0.34 0 0 Z " fill="#954A6F" transform="translate(142,173)"/>
<path d="M0 0 C0.66 0.33 1.32 0.66 2 1 C0.78904348 4.63286955 -0.79359383 5.43006752 -4.078125 7.21484375 C-6.77455384 8.31643358 -9.13141789 8.27986167 -12 8 C-9.72254211 5.51017465 -7.37664762 3.89631003 -4.4375 2.25 C-3.65246094 1.80140625 -2.86742187 1.3528125 -2.05859375 0.890625 C-1.37925781 0.59671875 -0.69992187 0.3028125 0 0 Z " fill="#9F4E78" transform="translate(302,328)"/>
<path d="M0 0 C2.97 0.495 2.97 0.495 6 1 C6.1875 3.375 6.1875 3.375 6 6 C5.01 6.66 4.02 7.32 3 8 C2.7497843 11.08365871 2.7497843 11.08365871 3 14 C2.01 14 1.02 14 0 14 C-0.33 14.66 -0.66 15.32 -1 16 C-2 13 -2 13 -0.78515625 10.51953125 C-0.21667969 9.62621094 0.35179687 8.73289063 0.9375 7.8125 C1.50339844 6.91144531 2.06929687 6.01039063 2.65234375 5.08203125 C3.09707031 4.39496094 3.54179687 3.70789063 4 3 C2.68 2.67 1.36 2.34 0 2 C0 1.34 0 0.68 0 0 Z " fill="#985177" transform="translate(219,165)"/>
<path d="M0 0 C5.10915111 2.50975844 10.08334206 5.13194953 15 8 C14.01 8.66 13.02 9.32 12 10 C5.125 6.375 5.125 6.375 4 3 C2.68 3.33 1.36 3.66 0 4 C-0.33 3.34 -0.66 2.68 -1 2 C-0.67 1.34 -0.34 0.68 0 0 Z " fill="#AF5B89" transform="translate(200,330)"/>
<path d="M0 0 C2.46612009 4.93224017 2.2112378 7.74271254 1 13 C-1.85358255 20.42679128 -1.85358255 20.42679128 -5 22 C-4.67 20.35 -4.34 18.7 -4 17 C-3.34 17 -2.68 17 -2 17 C-1.34 11.39 -0.68 5.78 0 0 Z " fill="#874B6D" transform="translate(373,190)"/>
<path d="M0 0 C4.12146058 -0.32325181 6.3675734 -0.39022067 9.9375 1.8125 C12 4 12 4 12 7 C7.69235185 5.43358249 3.93828536 3.31663844 0 1 C0 0.67 0 0.34 0 0 Z " fill="#A85480" transform="translate(175,339)"/>
<path d="M0 0 C0.33 0.66 0.66 1.32 1 2 C0.67 2.66 0.34 3.32 0 4 C-1.010625 3.608125 -2.02125 3.21625 -3.0625 2.8125 C-7.5592842 1.48079515 -9.892873 3.02541971 -14 5 C-14.99 4.67 -15.98 4.34 -17 4 C-14.69 3.34 -12.38 2.68 -10 2 C-10 1.34 -10 0.68 -10 0 C-6.33291043 -0.94296589 -3.64653273 -1.11421833 0 0 Z " fill="#A25885" transform="translate(170,332)"/>
<path d="M0 0 C2.50411413 3.7561712 2.06898772 5.27948163 1.4921875 9.5703125 C0.74570504 13.2553291 -0.55068688 16.53425124 -2 20 C-3.30660357 15.70272603 -2.6596762 12.39784135 -2 8 C-1.34 8 -0.68 8 0 8 C0 5.36 0 2.72 0 0 Z " fill="#8B4C6F" transform="translate(373,308)"/>
<path d="M0 0 C2 3 2 3 1.875 5.4375 C0.83687696 8.47771747 -0.60145094 9.91094114 -3 12 C-4.25541557 8.23375329 -3.37061958 6.62811066 -2 3 C-1.34 3 -0.68 3 0 3 C0 2.01 0 1.02 0 0 Z " fill="#C96299" transform="translate(269,381)"/>
<path d="M0 0 C1 2 1 2 0.5 4.75 C-1.43654598 8.94584963 -4.17115241 11.45345514 -8 14 C-8.66 14 -9.32 14 -10 14 C-9.01437243 10.68470727 -8.34552581 9.25050621 -5.5 7.1875 C-3 6 -3 6 -1 6 C-1.020625 5.195625 -1.04125 4.39125 -1.0625 3.5625 C-1 1 -1 1 0 0 Z " fill="#AA5886" transform="translate(370,322)"/>
<path d="M0 0 C2.24973447 -0.054138 4.49984383 -0.09285491 6.75 -0.125 C8.00296875 -0.14820313 9.2559375 -0.17140625 10.546875 -0.1953125 C13.72820492 -0.01537302 15.36521896 0.31001418 18 2 C18 2.99 18 3.98 18 5 C18.66 5.33 19.32 5.66 20 6 C17.43413514 5.50656445 15.66945601 4.81111772 13.375 3.5 C8.95362011 1.53494227 4.78939679 1.27449112 0 1 C0 0.67 0 0.34 0 0 Z " fill="#9B5276" transform="translate(344,173)"/>
<path d="M0 0 C1.65 0 3.3 0 5 0 C1.33997803 3.05001831 -4.07851471 7 -9 7 C-9.33 7.66 -9.66 8.32 -10 9 C-10.33 8.01 -10.66 7.02 -11 6 C-10.01 6 -9.02 6 -8 6 C-8 5.01 -8 4.02 -8 3 C-5.29120665 1.64560332 -2.99066732 1.93498549 0 2 C0 1.34 0 0.68 0 0 Z " fill="#C46295" transform="translate(176,170)"/>
<path d="M0 0 C4.23429756 1.31061591 8.07407404 2.94356259 12 5 C9 7 9 7 6.5625 6.875 C3.48605913 5.824508 2.04502416 4.49947397 0 2 C0 1.34 0 0.68 0 0 Z " fill="#9F527B" transform="translate(290,151)"/>
<path d="M0 0 C-0.99 0.33 -1.98 0.66 -3 1 C-3.33 1.99 -3.66 2.98 -4 4 C-7.24484731 6.28341107 -10.12459955 6.17615457 -14 6 C-12.61326942 3.22653883 -10.86966354 2.70074287 -8.125 1.3125 C-7.24070312 0.85488281 -6.35640625 0.39726562 -5.4453125 -0.07421875 C-3 -1 -3 -1 0 0 Z " fill="#AB6089" transform="translate(318,322)"/>
<path d="M0 0 C0.99 0.33 1.98 0.66 3 1 C4.0625 3.75 4.0625 3.75 5 7 C5.65411685 8.67163195 6.31653318 10.34015202 7 12 C3.73539027 10.19587357 2.11070205 9.16605307 0 6 C-0.125 2.8125 -0.125 2.8125 0 0 Z " fill="#A0527C" transform="translate(275,166)"/>
<path d="M0 0 C5.76727681 2.82709647 8.74811426 5.41082138 12 11 C11.67 11.99 11.34 12.98 11 14 C10.67 13.01 10.34 12.02 10 11 C9.01 10.67 8.02 10.34 7 10 C6.731875 9.195625 6.46375 8.39125 6.1875 7.5625 C5.19646841 4.66973024 5.19646841 4.66973024 1.875 3.6875 C0.92625 3.460625 -0.0225 3.23375 -1 3 C-0.67 2.01 -0.34 1.02 0 0 Z " fill="#A2567E" transform="translate(361,294)"/>
<path d="M0 0 C1.32 0.66 2.64 1.32 4 2 C-1.94 5.465 -1.94 5.465 -8 9 C-8.66 7.68 -9.32 6.36 -10 5 C-6.38026598 3.68373308 -3.90432869 3 0 3 C0 2.01 0 1.02 0 0 Z " fill="#9A527B" transform="translate(299,351)"/>
<path d="M0 0 C0 3.67214448 -1.09830092 5.37039233 -2.875 8.5625 C-3.40867188 9.53316406 -3.94234375 10.50382813 -4.4921875 11.50390625 C-6 14 -6 14 -8 16 C-8 14.35 -8 12.7 -8 11 C-7.34 11 -6.68 11 -6 11 C-6 10.01 -6 9.02 -6 8 C-5.34 8 -4.68 8 -4 8 C-3.896875 7.236875 -3.79375 6.47375 -3.6875 5.6875 C-2.95635961 2.82940576 -2.23048087 1.84257115 0 0 Z " fill="#924E77" transform="translate(238,182)"/>
<path d="M0 0 C4.21878192 -0.19622241 7.17010894 0.19769832 11 2 C11 3.32 11 4.64 11 6 C6.95743617 4.77782954 3.50711041 3.37245704 0 1 C0 0.67 0 0.34 0 0 Z " fill="#A65688" transform="translate(298,178)"/>
<path d="M0 0 C1.64936913 0.78427352 3.29441127 1.57765259 4.9375 2.375 C5.85402344 2.81585938 6.77054688 3.25671875 7.71484375 3.7109375 C10 5 10 5 11 7 C6.78121808 7.19622241 3.82989106 6.80230168 0 5 C0 3.35 0 1.7 0 0 Z " fill="#AB5D83" transform="translate(188,323)"/>
<path d="M0 0 C2.97 0.495 2.97 0.495 6 1 C6.33 1.99 6.66 2.98 7 4 C6.01 4 5.02 4 4 4 C4 5.65 4 7.3 4 9 C1.49701566 6.06171403 0.53069061 3.82097239 0 0 Z " fill="#CA5E96" transform="translate(271,162)"/>
<path d="M0 0 C1.35158203 0.15275391 1.35158203 0.15275391 2.73046875 0.30859375 C3.41753906 0.39238281 4.10460937 0.47617187 4.8125 0.5625 C5.1425 1.5525 5.4725 2.5425 5.8125 3.5625 C4.801875 3.170625 3.79125 2.77875 2.75 2.375 C-1.72628308 1.05038562 -4.17084956 2.43121609 -8.1875 4.5625 C-8.1875 3.2425 -8.1875 1.9225 -8.1875 0.5625 C-4.98734144 -0.50421952 -3.30205706 -0.38595472 0 0 Z " fill="#965276" transform="translate(337.1875,332.4375)"/>
<path d="M0 0 C0.66 0.99 1.32 1.98 2 3 C0.875 6.625 0.875 6.625 -1 10 C-3.1875 10.9375 -3.1875 10.9375 -5 11 C-4.45276317 7.62537285 -3.9451 5.91765 -2 3 C-1.34 3 -0.68 3 0 3 C0 2.01 0 1.02 0 0 Z " fill="#BB5E90" transform="translate(177,289)"/>
<path d="M0 0 C0.66 0.33 1.32 0.66 2 1 C0.53967505 6.31027254 -1.98320986 10.46330032 -5 15 C-5.66 13.68 -6.32 12.36 -7 11 C-6.34 11 -5.68 11 -5 11 C-4.67 9.68 -4.34 8.36 -4 7 C-3.34 7 -2.68 7 -2 7 C-2 6.01 -2 5.02 -2 4 C-1.34 4 -0.68 4 0 4 C0 2.68 0 1.36 0 0 Z " fill="#975276" transform="translate(185,275)"/>
<path d="M0 0 C1.05607181 2.74578671 0.96271597 4.18642013 0.375 7.125 C-1 10 -1 10 -3.625 11.375 C-4.40875 11.58125 -5.1925 11.7875 -6 12 C-4.43358249 7.69235185 -2.31663844 3.93828536 0 0 Z " fill="#9E517E" transform="translate(213,186)"/>
<path d="M0 0 C0.66 0 1.32 0 2 0 C0.58707905 4.8274799 -1.42974154 8.7162359 -4 13 C-4.33 13 -4.66 13 -5 13 C-5 11.02 -5 9.04 -5 7 C-4.01 6.67 -3.02 6.34 -2 6 C-1.855625 5.195625 -1.71125 4.39125 -1.5625 3.5625 C-1 1 -1 1 0 0 Z " fill="#9B4F7C" transform="translate(244,169)"/>
<path d="M0 0 C2.31 0.66 4.62 1.32 7 2 C7.33 3.65 7.66 5.3 8 7 C7.01 7 6.02 7 5 7 C4.67 6.01 4.34 5.02 4 4 C3.34 4 2.68 4 2 4 C1.34 4.66 0.68 5.32 0 6 C0 4.02 0 2.04 0 0 Z " fill="#9D4E7B" transform="translate(247,161)"/>
<path d="M0 0 C3.82669043 3.42388092 5.72278474 6.00724943 7 11 C6.566875 10.525625 6.13375 10.05125 5.6875 9.5625 C3.97690387 7.76313043 3.97690387 7.76313043 1 7 C-0.1875 3.9375 -0.1875 3.9375 -1 1 C-0.67 0.67 -0.34 0.34 0 0 Z " fill="#B55C8A" transform="translate(303,255)"/>
<path d="M0 0 C6.625 0.75 6.625 0.75 10 3 C10 3.66 10 4.32 10 5 C3.49955237 4.38675022 3.49955237 4.38675022 1.0625 2.5 C0 1 0 1 0 0 Z " fill="#B85A91" transform="translate(220,364)"/>
<path d="M0 0 C-2.68841859 2.25245881 -4.64641875 3.88213958 -8 5 C-10.1875 4.0625 -10.1875 4.0625 -12 3 C-4.8 -1.6 -4.8 -1.6 0 0 Z " fill="#B7618E" transform="translate(295,336)"/>
<path d="M0 0 C0.66 0 1.32 0 2 0 C2.69710731 1.28650706 3.38242876 2.57940665 4.0625 3.875 C4.63677734 4.95394531 4.63677734 4.95394531 5.22265625 6.0546875 C5.47917969 6.69664062 5.73570312 7.33859375 6 8 C5.67 8.66 5.34 9.32 5 10 C2 9 2 9 0.8125 7.25 C-0.10819096 4.70039426 -0.14948718 2.69076919 0 0 Z " fill="#B35C8A" transform="translate(290,231)"/>
<path d="M0 0 C0 1.65 0 3.3 0 5 C0.639375 5.226875 1.27875 5.45375 1.9375 5.6875 C4 7 4 7 4.75 9.625 C4.8325 10.40875 4.915 11.1925 5 12 C4.01 12.495 4.01 12.495 3 13 C1.02 9.04 -0.96 5.08 -3 1 C-1 0 -1 0 0 0 Z " fill="#9C527A" transform="translate(268,189)"/>
<path d="M0 0 C1.875 0.3125 1.875 0.3125 4 1 C6 4 6 4 5.625 6.6875 C5.41875 7.450625 5.2125 8.21375 5 9 C1.9083091 6.47043472 1.09068668 3.77545388 0 0 Z " fill="#A95B82" transform="translate(254,169)"/>
<path d="M0 0 C3.54243452 1.36591169 6.92627929 2.90931484 10.3125 4.625 C11.63701172 5.29402344 11.63701172 5.29402344 12.98828125 5.9765625 C13.65214844 6.31429687 14.31601562 6.65203125 15 7 C15 7.33 15 7.66 15 8 C13.35 8 11.7 8 10 8 C10 7.34 10 6.68 10 6 C9.01 6 8.02 6 7 6 C7 5.34 7 4.68 7 4 C6.01 4.33 5.02 4.66 4 5 C1.8125 3.6875 1.8125 3.6875 0 2 C0 1.34 0 0.68 0 0 Z " fill="#9A4E78" transform="translate(309,161)"/>
<path d="M0 0 C5.625 -0.25 5.625 -0.25 9 2 C9.6875 4.125 9.6875 4.125 10 6 C6.40992874 4.66654496 3.20429093 3.1056769 0 1 C0 0.67 0 0.34 0 0 Z " fill="#9B517B" transform="translate(211,360)"/>
<path d="M0 0 C0 0.33 0 0.66 0 1 C-2.1026706 1.36294314 -4.20721057 1.71506972 -6.3125 2.0625 C-7.48425781 2.25972656 -8.65601563 2.45695312 -9.86328125 2.66015625 C-13 3 -13 3 -16 2 C-15.67 1.34 -15.34 0.68 -15 0 C-9.69211971 -1.19156496 -5.29063457 -0.83536335 0 0 Z " fill="#7B4662" transform="translate(256,353)"/>
<path d="M0 0 C0.66 0.33 1.32 0.66 2 1 C1.375 2.9375 1.375 2.9375 0 5 C-3.125 5.75 -3.125 5.75 -6 6 C-6 6.66 -6 7.32 -6 8 C-6.66 7.67 -7.32 7.34 -8 7 C-5.42215154 4.35247996 -3.08351902 2.05567935 0 0 Z " fill="#AA538A" transform="translate(139,293)"/>
<path d="M0 0 C0.99 0 1.98 0 3 0 C3.3125 2.1875 3.3125 2.1875 3 5 C0.5 7.8125 0.5 7.8125 -2 10 C-1.34 6.7 -0.68 3.4 0 0 Z " fill="#C05C93" transform="translate(193,222)"/>
<path d="M0 0 C0.66 0.33 1.32 0.66 2 1 C0.6062718 5.43458973 -1.60582235 7.87378374 -5 11 C-5.33 9.68 -5.66 8.36 -6 7 C-4.68 7 -3.36 7 -2 7 C-1.855625 6.030625 -1.71125 5.06125 -1.5625 4.0625 C-1 1 -1 1 0 0 Z " fill="#9C517C" transform="translate(169,203)"/>
<path d="M0 0 C2.53833449 1.26916725 2.89400901 2.41624809 4.125 4.9375 C4.47820312 5.64777344 4.83140625 6.35804688 5.1953125 7.08984375 C6 9 6 9 6 11 C4.125 10.875 4.125 10.875 2 10 C0.40155515 6.40349908 0 3.96602757 0 0 Z " fill="#944D77" transform="translate(282,178)"/>
<path d="M0 0 C0.57234375 0.22558594 1.1446875 0.45117188 1.734375 0.68359375 C-1.39051067 3.20753987 -4.57876887 5.08061282 -8.265625 6.68359375 C-8.925625 6.35359375 -9.585625 6.02359375 -10.265625 5.68359375 C-9.02827516 4.64746342 -7.77517863 3.63011573 -6.515625 2.62109375 C-5.81953125 2.05261719 -5.1234375 1.48414062 -4.40625 0.8984375 C-2.265625 -0.31640625 -2.265625 -0.31640625 0 0 Z " fill="#A1597E" transform="translate(242.265625,114.31640625)"/>
<path d="M0 0 C0.33 0.66 0.66 1.32 1 2 C1.66 2 2.32 2 3 2 C3.33 2.99 3.66 3.98 4 5 C4.66 5 5.32 5 6 5 C6 5.66 6 6.32 6 7 C6.66 7 7.32 7 8 7 C8 7.66 8 8.32 8 9 C6.68 9 5.36 9 4 9 C4 8.34 4 7.68 4 7 C3.01 6.67 2.02 6.34 1 6 C0.67 4.02 0.34 2.04 0 0 Z " fill="#C96298" transform="translate(331,273)"/>
<path d="M0 0 C0.66 0.33 1.32 0.66 2 1 C0.77782954 5.04256383 -0.62754296 8.49288959 -3 12 C-3.33 12 -3.66 12 -4 12 C-4 10.35 -4 8.7 -4 7 C-3.34 7 -2.68 7 -2 7 C-1.855625 6.21625 -1.71125 5.4325 -1.5625 4.625 C-1 2 -1 2 0 0 Z " fill="#9E527E" transform="translate(217,217)"/>
<path d="M0 0 C4.17391304 1.39130435 4.17391304 1.39130435 6 4 C6.1875 7.6875 6.1875 7.6875 6 11 C2.90407165 7.4912812 1.25805377 4.50802601 0 0 Z " fill="#915172" transform="translate(272,202)"/>
<path d="M0 0 C1.63001953 0.15275391 1.63001953 0.15275391 3.29296875 0.30859375 C4.54013672 0.43427734 4.54013672 0.43427734 5.8125 0.5625 C1.55214717 2.96430965 -1.34625348 2.86988073 -6.1875 2.5625 C-7.1775 1.9025 -8.1675 1.2425 -9.1875 0.5625 C-5.76060364 -0.57979879 -3.57647782 -0.34611076 0 0 Z " fill="#764362" transform="translate(252.1875,397.4375)"/>
<path d="M0 0 C2.52631142 3.12781414 4.42373366 6.29577411 6 10 C5.67 10.99 5.34 11.98 5 13 C4.67 11.68 4.34 10.36 4 9 C3.34 9 2.68 9 2 9 C0.14223235 5.86501708 -0.20140476 3.62528568 0 0 Z " fill="#99517D" transform="translate(330,266)"/>
<path d="M0 0 C0.99 0 1.98 0 3 0 C3 3.96 3 7.92 3 12 C0.50494038 9.50494038 0.64051624 8.32671112 0.375 4.875 C0.30023438 3.96492187 0.22546875 3.05484375 0.1484375 2.1171875 C0.09945313 1.41851562 0.05046875 0.71984375 0 0 Z " fill="#984E7A" transform="translate(327,194)"/>
<path d="M0 0 C0.66 0 1.32 0 2 0 C2 0.66 2 1.32 2 2 C2.66 2 3.32 2 4 2 C4 2.66 4 3.32 4 4 C4.99 4.33 5.98 4.66 7 5 C6.67 6.32 6.34 7.64 6 9 C2.91910327 6.22719294 1.31224548 3.93673644 0 0 Z " fill="#9B4D7D" transform="translate(315,281)"/>
<path d="M0 0 C2.375 -0.125 2.375 -0.125 5 0 C7 2 7 2 7.125 5.625 C7.08375 6.73875 7.0425 7.8525 7 9 C6.67 9 6.34 9 6 9 C6 7.35 6 5.7 6 4 C4.68 3.67 3.36 3.34 2 3 C2 2.34 2 1.68 2 1 C1.34 0.67 0.68 0.34 0 0 Z " fill="#A85480" transform="translate(334,212)"/>
<path d="M0 0 C2 1 2 1 3 3 C-0.4352048 5.29013653 -1.985331 5.17842973 -6 5 C-4.06745228 2.9754262 -2.36841312 1.57894208 0 0 Z " fill="#A75382" transform="translate(276,343)"/>
<path d="M0 0 C3.875 1.875 3.875 1.875 5 3 C5.04063832 4.66617115 5.042721 6.33388095 5 8 C4.34 8 3.68 8 3 8 C0 2.25 0 2.25 0 0 Z " fill="#B45888" transform="translate(321,290)"/>
<path d="M0 0 C3 1 3 1 4.75 3.375 C6 6 6 6 5 9 C0.57142857 3.85714286 0.57142857 3.85714286 0 0 Z " fill="#954D78" transform="translate(293,240)"/>
<path d="M0 0 C0.99 0.33 1.98 0.66 3 1 C2.67 1.99 2.34 2.98 2 4 C-0.5625 5.1875 -0.5625 5.1875 -3 6 C-3.33 5.01 -3.66 4.02 -4 3 C-2.1875 1.4375 -2.1875 1.4375 0 0 Z " fill="#B5588A" transform="translate(199,176)"/>
<path d="M0 0 C1.32 0.66 2.64 1.32 4 2 C3 3 3 3 0.4375 3.0625 C-0.7690625 3.0315625 -0.7690625 3.0315625 -2 3 C-2 3.66 -2 4.32 -2 5 C-3.32 4.67 -4.64 4.34 -6 4 C-4.02 2.68 -2.04 1.36 0 0 Z " fill="#A8527F" transform="translate(140,174)"/>
<path d="M0 0 C0.33 0 0.66 0 1 0 C1 2.64 1 5.28 1 8 C-0.65 8.66 -2.3 9.32 -4 10 C-2.8905928 6.51329166 -1.73662334 3.22515763 0 0 Z " fill="#C16397" transform="translate(246,161)"/>
<path d="M0 0 C0.66 0.33 1.32 0.66 2 1 C2 1.66 2 2.32 2 3 C1.34 3 0.68 3 0 3 C0 3.66 0 4.32 0 5 C-2.31 5 -4.62 5 -7 5 C-2.25 1.125 -2.25 1.125 0 0 Z " fill="#974D72" transform="translate(213,148)"/>
<path d="M0 0 C1.32 0.33 2.64 0.66 4 1 C3.67 1.33 3.34 1.66 3 2 C2.76472227 4.34987262 2.58613583 6.70556039 2.4375 9.0625 C2.35371094 10.35285156 2.26992188 11.64320313 2.18359375 12.97265625 C2.12300781 13.97167969 2.06242187 14.97070312 2 16 C1.67 16 1.34 16 1 16 C0.67 10.72 0.34 5.44 0 0 Z " fill="#89506D" transform="translate(271,368)"/>
<path d="M0 0 C4.29 0.33 8.58 0.66 13 1 C13 1.33 13 1.66 13 2 C7.06 2.495 7.06 2.495 1 3 C0.67 2.01 0.34 1.02 0 0 Z " fill="#C86698" transform="translate(342,333)"/>
<path d="M0 0 C0.66 0.66 1.32 1.32 2 2 C1.63318342 4.93453261 1.13562754 5.86437246 -1 8 C-1.99 7.67 -2.98 7.34 -4 7 C-2.68 4.69 -1.36 2.38 0 0 Z " fill="#A84D83" transform="translate(165,274)"/>
<path d="M0 0 C0.66 0.33 1.32 0.66 2 1 C-0.475 5.455 -0.475 5.455 -3 10 C-4 6 -4 6 -3 3 C-2.34 3 -1.68 3 -1 3 C-0.67 2.01 -0.34 1.02 0 0 Z " fill="#984F79" transform="translate(206,239)"/>
<path d="M0 0 C0.99 0 1.98 0 3 0 C3 0.66 3 1.32 3 2 C3.66 2 4.32 2 5 2 C5.33 4.64 5.66 7.28 6 10 C3.47650757 6.87567603 1.72743854 3.61939504 0 0 Z " fill="#814268" transform="translate(284,225)"/>
<path d="M0 0 C-2.35277269 2.72426311 -4.62496331 3.8141763 -8 5 C-8 3.68 -8 2.36 -8 1 C-5.07175348 0.02391783 -3.04386724 -0.08226668 0 0 Z " fill="#9D557E" transform="translate(220,168)"/>
<path d="M0 0 C1.32 0 2.64 0 4 0 C4 1.32 4 2.64 4 4 C4.66 4 5.32 4 6 4 C6 4.99 6 5.98 6 7 C4.68 6.34 3.36 5.68 2 5 C2 3.68 2 2.36 2 1 C1.34 0.67 0.68 0.34 0 0 Z M2 7 C2.99 7.495 2.99 7.495 4 8 C3.01 8.495 3.01 8.495 2 9 C2 8.34 2 7.68 2 7 Z " fill="#CF6298" transform="translate(262,119)"/>
<path d="M0 0 C2.31 0.33 4.62 0.66 7 1 C7 1.66 7 2.32 7 3 C7.99 3.33 8.98 3.66 10 4 C3.375 4.25 3.375 4.25 0 2 C0 1.34 0 0.68 0 0 Z " fill="#C76598" transform="translate(233,352)"/>
<path d="M0 0 C-4.95 2.475 -4.95 2.475 -10 5 C-10 4.34 -10 3.68 -10 3 C-9.34 3 -8.68 3 -8 3 C-7.67 2.01 -7.34 1.02 -7 0 C-4.05610218 -1.17755913 -3.10046087 -1.03348696 0 0 Z " fill="#A3557F" transform="translate(313,347)"/>
<path d="M0 0 C0.99 0 1.98 0 3 0 C2.67 2.97 2.34 5.94 2 9 C1.01 9 0.02 9 -1 9 C-1 8.34 -1 7.68 -1 7 C-0.34 7 0.32 7 1 7 C0.67 4.69 0.34 2.38 0 0 Z " fill="#D263A0" transform="translate(339,278)"/>
<path d="M0 0 C1 3 1 3 0.0625 5.1875 C-0.4634375 6.0846875 -0.4634375 6.0846875 -1 7 C-1.66 7 -2.32 7 -3 7 C-3 8.32 -3 9.64 -3 11 C-3.66 11 -4.32 11 -5 11 C-3.77472971 6.94718288 -2.30119506 3.55639236 0 0 Z " fill="#CA6299" transform="translate(199,248)"/>
<path d="M0 0 C1.65 0 3.3 0 5 0 C1.52902242 2.69964923 -2.06411187 5.03205593 -6 7 C-5.34 5.35 -4.68 3.7 -4 2 C-2.68 2 -1.36 2 0 2 C0 1.34 0 0.68 0 0 Z " fill="#D0659A" transform="translate(138,177)"/>
<path d="M0 0 C2.16874252 0.50603992 3.99967627 0.99983813 6 2 C6 2.66 6 3.32 6 4 C6.99 4.33 7.98 4.66 9 5 C7.68 5 6.36 5 5 5 C5 4.34 5 3.68 5 3 C3.02 3 1.04 3 -1 3 C-0.67 2.01 -0.34 1.02 0 0 Z " fill="#C05D91" transform="translate(279,165)"/>
<path d="M0 0 C-2.35968744 2.09749995 -3.54616994 2.96905704 -6.75 3.1875 C-7.86375 3.0946875 -7.86375 3.0946875 -9 3 C-8.67 2.01 -8.34 1.02 -8 0 C-5.04215769 -1.22393475 -3.00272755 -0.96516243 0 0 Z " fill="#C16792" transform="translate(223,147)"/>
<path d="M0 0 C3.45925163 1.2491742 6.14693203 2.67527795 9 5 C7.02 5 5.04 5 3 5 C3 4.34 3 3.68 3 3 C2.01 2.67 1.02 2.34 0 2 C0 1.34 0 0.68 0 0 Z " fill="#A35B7E" transform="translate(274,142)"/>
<path d="M0 0 C1.98 0 3.96 0 6 0 C6 0.66 6 1.32 6 2 C6.99 2.33 7.98 2.66 9 3 C7.3125 3.6875 7.3125 3.6875 5 4 C2.25 2.625 2.25 2.625 0 1 C0 0.67 0 0.34 0 0 Z " fill="#995177" transform="translate(199,353)"/>
<path d="M0 0 C2.4375 0.75 2.4375 0.75 5 2 C5.8125 4.125 5.8125 4.125 6 6 C3.37812506 4.95125002 2.20628639 4.35068687 0.75 1.875 C0.5025 1.25625 0.255 0.6375 0 0 Z " fill="#9E567E" transform="translate(129,326)"/>
<path d="M0 0 C3.465 1.98 3.465 1.98 7 4 C6.34 4.66 5.68 5.32 5 6 C2.875 5.625 2.875 5.625 1 5 C0.67 3.35 0.34 1.7 0 0 Z " fill="#B96193" transform="translate(180,318)"/>
<path d="M0 0 C0.66 0.33 1.32 0.66 2 1 C1.67 2.65 1.34 4.3 1 6 C-1.64 5.67 -4.28 5.34 -7 5 C-7 4.67 -7 4.34 -7 4 C-3.535 3.505 -3.535 3.505 0 3 C0 2.01 0 1.02 0 0 Z " fill="#D2639F" transform="translate(326,295)"/>
<path d="M0 0 C0.66 0.33 1.32 0.66 2 1 C1.34 3.31 0.68 5.62 0 8 C-1.32 7.67 -2.64 7.34 -4 7 C-2.79618552 4.50638429 -1.54571278 2.31856917 0 0 Z " fill="#9A5178" transform="translate(132,179)"/>
<path d="M0 0 C2.88437779 1.29299694 4.87219421 2.65941363 7 5 C6.01 5.33 5.02 5.66 4 6 C2.62437146 4.71034824 1.29233607 3.37310707 0 2 C0 1.34 0 0.68 0 0 Z " fill="#A45E83" transform="translate(362,176)"/>
<path d="M0 0 C2 3.75 2 3.75 2 6 C1.01 6 0.02 6 -1 6 C-1.33 6.66 -1.66 7.32 -2 8 C-2.33 7.01 -2.66 6.02 -3 5 C-1.5625 2.3125 -1.5625 2.3125 0 0 Z " fill="#AE558A" transform="translate(220,173)"/>
<path d="M0 0 C2 4 2 4 2 7 C2.66 7.33 3.32 7.66 4 8 C2.02 8.99 2.02 8.99 0 10 C0 6.7 0 3.4 0 0 Z " fill="#C85D96" transform="translate(270,134)"/>
<path d="M0 0 C-0.66 0 -1.32 0 -2 0 C-2.66 1.32 -3.32 2.64 -4 4 C-4.66 4 -5.32 4 -6 4 C-6.33 4.66 -6.66 5.32 -7 6 C-7 4.35 -7 2.7 -7 1 C-3.375 -1.125 -3.375 -1.125 0 0 Z " fill="#BF618E" transform="translate(238,120)"/>
<path d="M0 0 C-8.57142857 0.28571429 -8.57142857 0.28571429 -12 -2 C-7.25042248 -3.52664992 -4.27829671 -2.29194467 0 0 Z " fill="#703258" transform="translate(356,338)"/>
<path d="M0 0 C3.96 1.98 3.96 1.98 8 4 C7.01 4.66 6.02 5.32 5 6 C4.67 5.01 4.34 4.02 4 3 C2.68 3.33 1.36 3.66 0 4 C-0.33 3.34 -0.66 2.68 -1 2 C-0.67 1.34 -0.34 0.68 0 0 Z " fill="#9E5482" transform="translate(200,330)"/>
<path d="M0 0 C0.99 0 1.98 0 3 0 C2.50168276 3.68754757 1.89932357 5.60490662 -1 8 C-1 6.35 -1 4.7 -1 3 C-0.34 3 0.32 3 1 3 C0.67 2.01 0.34 1.02 0 0 Z " fill="#9B4B7D" transform="translate(188,268)"/>
<path d="M0 0 C0.33 0.99 0.66 1.98 1 3 C-0.3125 5.1875 -0.3125 5.1875 -2 7 C-2.66 7 -3.32 7 -4 7 C-4 6.01 -4 5.02 -4 4 C-3.34 4 -2.68 4 -2 4 C-2 3.01 -2 2.02 -2 1 C-1.34 0.67 -0.68 0.34 0 0 Z " fill="#CD6398" transform="translate(187,239)"/>
<path d="M0 0 C3.93673644 1.31224548 6.22719294 2.91910327 9 6 C6.07606119 5.37344168 3.55170871 4.5838192 1 3 C0.67 2.01 0.34 1.02 0 0 Z " fill="#C56295" transform="translate(132,210)"/>
<path d="M0 0 C-1.2491742 3.45925163 -2.67527795 6.14693203 -5 9 C-5.36666667 3.5 -5.36666667 3.5 -3.625 1.125 C-2 0 -2 0 0 0 Z " fill="#96517A" transform="translate(228,202)"/>
<path d="M0 0 C1.54571278 2.31856917 2.79618552 4.50638429 4 7 C2.68 7 1.36 7 0 7 C-0.93423645 3.98968256 -1.04449911 3.13349732 0 0 Z " fill="#B85E8C" transform="translate(264,182)"/>
<path d="M0 0 C0.66 0.33 1.32 0.66 2 1 C1.67 1.99 1.34 2.98 1 4 C0.34 4 -0.32 4 -1 4 C-1.33 5.65 -1.66 7.3 -2 9 C-2.66 9 -3.32 9 -4 9 C-3.67 7.35 -3.34 5.7 -3 4 C-2.01 3.67 -1.02 3.34 0 3 C0 2.01 0 1.02 0 0 Z " fill="#C96397" transform="translate(225,168)"/>
<path d="M0 0 C0 0.99 0 1.98 0 3 C-2.97 2.67 -5.94 2.34 -9 2 C-5.23312136 0.11656068 -3.97041037 -0.22057835 0 0 Z " fill="#944577" transform="translate(252,112)"/>
<path d="M0 0 C-2.3125 2.0625 -2.3125 2.0625 -5 4 C-5.99 3.67 -6.98 3.34 -8 3 C-7.34 3 -6.68 3 -6 3 C-6 2.01 -6 1.02 -6 0 C-3 -1 -3 -1 0 0 Z " fill="#8B5275" transform="translate(266,394)"/>
<path d="M0 0 C0.99 0 1.98 0 3 0 C1.75023244 3.65316671 1.32901247 4.78065836 -2 7 C-2.33 6.01 -2.66 5.02 -3 4 C-2.34 3.34 -1.68 2.68 -1 2 C-0.67 1.34 -0.34 0.68 0 0 Z " fill="#995176" transform="translate(268,386)"/>
<path d="M0 0 C0 0.66 0 1.32 0 2 C-1.98 2.33 -3.96 2.66 -6 3 C-6.33 2.34 -6.66 1.68 -7 1 C-3.375 -1.125 -3.375 -1.125 0 0 Z " fill="#B3548E" transform="translate(329,336)"/>
<path d="M0 0 C2.97 0.99 5.94 1.98 9 3 C9 3.99 9 4.98 9 6 C5.06326356 4.68775452 2.77280706 3.08089673 0 0 Z " fill="#823F6B" transform="translate(133,213)"/>
<path d="M0 0 C-1 3 -1 3 -4 5 C-4.33 5.99 -4.66 6.98 -5 8 C-5.66 8 -6.32 8 -7 8 C-4.18918919 0 -4.18918919 0 0 0 Z " fill="#AB5A88" transform="translate(211,196)"/>
<path d="M0 0 C3.33537489 1.11179163 4.63707344 2.47411298 7 5 C6.01 5.495 6.01 5.495 5 6 C2.375 4.75 2.375 4.75 0 3 C0 2.01 0 1.02 0 0 Z " fill="#995278" transform="translate(309,182)"/>
<path d="M0 0 C1.32 0 2.64 0 4 0 C4 0.66 4 1.32 4 2 C5.32 2 6.64 2 8 2 C8 2.99 8 3.98 8 5 C4.62496331 3.8141763 2.35277269 2.72426311 0 0 Z " fill="#884D6E" transform="translate(280,168)"/>
</svg>
