<?xml version="1.0" encoding="UTF-8"?>
<svg version="1.1" xmlns="http://www.w3.org/2000/svg" width="515" height="484">
<path d="M0 0 C0.82951172 0.73669922 0.82951172 0.73669922 1.67578125 1.48828125 C1.67578125 2.14828125 1.67578125 2.80828125 1.67578125 3.48828125 C2.33578125 3.48828125 2.99578125 3.48828125 3.67578125 3.48828125 C6.67578125 6.94981971 6.67578125 6.94981971 6.67578125 9.48828125 C7.33578125 9.48828125 7.99578125 9.48828125 8.67578125 9.48828125 C8.18078125 8.49828125 8.18078125 8.49828125 7.67578125 7.48828125 C7.54296875 5.61328125 7.54296875 5.61328125 7.55078125 3.48828125 C7.54691406 2.43640625 7.54691406 2.43640625 7.54296875 1.36328125 C7.67578125 -0.51171875 7.67578125 -0.51171875 8.67578125 -2.51171875 C15.27578125 -2.51171875 21.87578125 -2.51171875 28.67578125 -2.51171875 C29.35973992 2.95995057 29.8210609 8.04245847 29.80517578 13.50219727 C29.80780426 14.63823647 29.80780426 14.63823647 29.81048584 15.79722595 C29.81485405 18.27890376 29.8119821 20.76050907 29.80859375 23.2421875 C29.80926872 24.98843906 29.81024036 26.73469053 29.81149292 28.48094177 C29.81296352 32.13647356 29.8108377 35.79198084 29.80615234 39.44750977 C29.80048516 44.09125783 29.80371895 48.7349477 29.80972481 53.37869358 C29.81337315 56.98649009 29.81217191 60.59427328 29.80959702 64.20207024 C29.80893795 65.91177312 29.80971971 67.62147728 29.81207657 69.33117867 C29.85199269 106.45257253 29.85199269 106.45257253 17.67578125 119.48828125 C15.15324341 121.74860102 12.52776372 123.66497185 9.67578125 125.48828125 C8.78632813 126.05869141 8.78632813 126.05869141 7.87890625 126.640625 C-5.94248401 134.46683957 -24.54727682 134.35652684 -39.52734375 130.33203125 C-40.91179687 129.914375 -40.91179687 129.914375 -42.32421875 129.48828125 C-43.0821875 129.27171875 -43.84015625 129.05515625 -44.62109375 128.83203125 C-53.49233376 125.94372055 -60.69179573 119.53554179 -65.32421875 111.48828125 C-66.01171875 107.61328125 -66.01171875 107.61328125 -65.32421875 104.48828125 C-63.51171875 102.55078125 -63.51171875 102.55078125 -61.32421875 101.48828125 C-60.33421875 101.48828125 -59.34421875 101.48828125 -58.32421875 101.48828125 C-58.32421875 100.82828125 -58.32421875 100.16828125 -58.32421875 99.48828125 C-55.47668123 98.06451249 -53.47567225 98.1565493 -50.32421875 98.48828125 C-48.26953125 100.31640625 -48.26953125 100.31640625 -46.44921875 102.73828125 C-43.06264214 107.22439572 -39.69097587 109.84914199 -34.32421875 111.48828125 C-29.79001419 112.04493583 -25.32486133 112.0476392 -20.76171875 111.98828125 C-19.56869141 112.00375 -18.37566406 112.01921875 -17.14648438 112.03515625 C-10.26141065 112.00453891 -5.96612686 111.47639021 -0.32421875 107.48828125 C0.33578125 107.48828125 0.99578125 107.48828125 1.67578125 107.48828125 C6.55331333 98.13439938 7.27504986 88.8520241 7.67578125 78.48828125 C7.19109375 79.019375 6.70640625 79.55046875 6.20703125 80.09765625 C-0.76866839 87.44897048 -6.97551374 91.21419057 -17.21484375 91.65625 C-32.62389289 91.81641259 -44.38658486 89.3546911 -55.86865234 78.13964844 C-62.10974419 71.05901354 -66.50503842 60.93610911 -66.32421875 51.48828125 C-66.370625 50.29847656 -66.41703125 49.10867188 -66.46484375 47.8828125 C-66.97191967 32.51523122 -64.53026958 19.76468654 -54.078125 7.94921875 C-40.17504809 -6.44620996 -17.77076937 -11.5584668 0 0 Z M-40.84375 25.37890625 C-46.25851709 33.09387783 -45.1671496 45.19378676 -43.96484375 54.171875 C-42.00558096 61.59854003 -36.33600731 67.76474591 -30.0859375 72.0078125 C-23.77262263 75.18129049 -17.52273762 75.55048138 -10.71484375 73.828125 C-2.32848429 70.89289919 3.0283897 65.77426497 6.85986328 57.82519531 C8.38806385 53.44819475 8.25081359 49.07775936 8.17578125 44.48828125 C8.19125 43.54210937 8.20671875 42.5959375 8.22265625 41.62109375 C8.17924455 33.78528103 5.95041635 28.9002339 1.67578125 22.48828125 C1.01578125 22.48828125 0.35578125 22.48828125 -0.32421875 22.48828125 C-0.32421875 21.82828125 -0.32421875 21.16828125 -0.32421875 20.48828125 C-5.1466852 15.50506592 -11.7181988 13.84888325 -18.44921875 13.17578125 C-28.14434697 14.22959953 -34.56219349 17.78002552 -40.84375 25.37890625 Z " fill="#82ABE9" transform="translate(293.32421875,257.51171875)"/>
<path d="M0 0 C4.38876248 1.053303 7.06881507 3.5001725 10.125 6.75 C11.74405108 9.98810216 11.57951717 12.16151364 11.125 15.75 C9.21848155 18.51831833 6.8536608 20.68260719 4.375 22.9375 C3.74078125 23.54013672 3.1065625 24.14277344 2.453125 24.76367188 C1.26471769 25.89142089 0.06922091 27.01178396 -1.13574219 28.12182617 C-3.09184121 29.95299187 -4.9803376 31.8553376 -6.875 33.75 C27.775 33.75 62.425 33.75 98.125 33.75 C93.505 29.13 88.885 24.51 84.125 19.75 C84.125 18.1 84.125 16.45 84.125 14.75 C84.785 14.75 85.445 14.75 86.125 14.75 C86.4653125 13.9146875 86.4653125 13.9146875 86.8125 13.0625 C88.56212275 9.97983135 90.34582429 7.96070795 93.125 5.75 C97.13671704 5.7287515 99.39922516 6.71063838 102.28125 9.35449219 C103.40862715 10.48938574 104.52256784 11.63773483 105.625 12.796875 C106.22376953 13.40509094 106.82253906 14.01330688 107.43945312 14.63995361 C109.3468182 16.58181386 111.2363023 18.53999433 113.125 20.5 C115.0170073 22.44220341 116.91257736 24.38082302 118.81054688 26.31719971 C119.98795918 27.52071247 121.16139026 28.72813797 122.33007812 29.94012451 C124.94880196 32.63736715 127.50058957 35.05683187 130.53125 37.28613281 C133.125 39.75 133.125 39.75 133.88330078 42.64477539 C132.78687578 47.13461106 130.2905759 49.31796345 126.9921875 52.43359375 C126.04800461 53.3614846 126.04800461 53.3614846 125.08474731 54.30812073 C123.07018645 56.28254848 121.03616028 58.23537709 119 60.1875 C116.98964069 62.14013756 114.98355081 64.0970339 112.97952271 66.0561676 C111.73304134 67.2719479 110.48222258 68.48330359 109.22628784 69.6893158 C105.73328323 73.0652644 102.56696056 76.52177215 99.58450317 80.36073303 C97.81000439 82.04983696 96.53816438 82.45044684 94.125 82.75 C92.6875 81.6875 92.6875 81.6875 91.125 79.75 C90.69703125 79.2653125 90.2690625 78.780625 89.828125 78.28125 C86.125 74.0372191 86.125 74.0372191 86.125 71.75 C85.465 71.75 84.805 71.75 84.125 71.75 C84.54661832 66.83111963 86.55175901 65.01252438 90.125 61.75 C91.38174109 60.52772649 92.631541 59.29828332 93.875 58.0625 C94.46796875 57.48113281 95.0609375 56.89976562 95.671875 56.30078125 C97.22141804 54.79486026 97.22141804 54.79486026 98.125 52.75 C63.145 52.75 28.165 52.75 -7.875 52.75 C1.35841342 62.04192106 1.35841342 62.04192106 11.125 70.75 C11.9375 74.0625 11.9375 74.0625 11.125 77.75 C8.45208163 82.0221003 5.6771373 85.09810233 1 87.0625 C-3.03728744 86.62366441 -4.11294184 84.6770172 -6.875 81.75 C-7.79345703 80.83154297 -8.71191406 79.91308594 -9.65820312 78.96679688 C-31.875 56.75 -31.875 56.75 -34.56054688 54.04101562 C-36.2128114 52.40548289 -37.93063333 50.83511778 -39.6875 49.3125 C-41.875 46.75 -41.875 46.75 -42.3515625 43.921875 C-41.71574064 39.69001149 -39.59629764 38.02076404 -36.4375 35.4375 C-35.33444967 34.48348839 -34.23290294 33.52773572 -33.1328125 32.5703125 C-32.58270508 32.09883789 -32.03259766 31.62736328 -31.46582031 31.14160156 C-29.15660438 29.12156921 -26.98142697 26.98142697 -24.8125 24.8125 C-24.12027344 24.12285156 -23.42804688 23.43320313 -22.71484375 22.72265625 C-20.82190371 20.77659436 -20.82190371 20.77659436 -19.25390625 18.49609375 C-18.79886719 17.91988281 -18.34382813 17.34367187 -17.875 16.75 C-17.215 16.75 -16.555 16.75 -15.875 16.75 C-15.215 15.43 -14.555 14.11 -13.875 12.75 C-13.215 12.75 -12.555 12.75 -11.875 12.75 C-11.875 12.09 -11.875 11.43 -11.875 10.75 C-11.215 10.75 -10.555 10.75 -9.875 10.75 C-9.648125 10.21375 -9.42125 9.6775 -9.1875 9.125 C-6.86080617 4.91479212 -4.83662733 1.26172887 0 0 Z " fill="#81ABE8" transform="translate(214.875,140.25)"/>
<path d="M0 0 C4.38876248 1.053303 7.06881507 3.5001725 10.125 6.75 C11.74405108 9.98810216 11.57951717 12.16151364 11.125 15.75 C9.21848155 18.51831833 6.8536608 20.68260719 4.375 22.9375 C3.74078125 23.54013672 3.1065625 24.14277344 2.453125 24.76367188 C1.26471769 25.89142089 0.06922091 27.01178396 -1.13574219 28.12182617 C-3.09184121 29.95299187 -4.9803376 31.8553376 -6.875 33.75 C27.775 33.75 62.425 33.75 98.125 33.75 C93.505 29.13 88.885 24.51 84.125 19.75 C84.125 18.1 84.125 16.45 84.125 14.75 C84.785 14.75 85.445 14.75 86.125 14.75 C86.4653125 13.9146875 86.4653125 13.9146875 86.8125 13.0625 C88.56212275 9.97983135 90.34582429 7.96070795 93.125 5.75 C97.13671704 5.7287515 99.39922516 6.71063838 102.28125 9.35449219 C103.40862715 10.48938574 104.52256784 11.63773483 105.625 12.796875 C106.22376953 13.40509094 106.82253906 14.01330688 107.43945312 14.63995361 C109.3468182 16.58181386 111.2363023 18.53999433 113.125 20.5 C115.0170073 22.44220341 116.91257736 24.38082302 118.81054688 26.31719971 C119.98795918 27.52071247 121.16139026 28.72813797 122.33007812 29.94012451 C124.94880196 32.63736715 127.50058957 35.05683187 130.53125 37.28613281 C133.125 39.75 133.125 39.75 133.88330078 42.64477539 C132.78687578 47.13461106 130.2905759 49.31796345 126.9921875 52.43359375 C126.04800461 53.3614846 126.04800461 53.3614846 125.08474731 54.30812073 C123.07018645 56.28254848 121.03616028 58.23537709 119 60.1875 C116.98964069 62.14013756 114.98355081 64.0970339 112.97952271 66.0561676 C111.73304134 67.2719479 110.48222258 68.48330359 109.22628784 69.6893158 C105.73328323 73.0652644 102.56696056 76.52177215 99.58450317 80.36073303 C97.81000439 82.04983696 96.53816438 82.45044684 94.125 82.75 C92.6875 81.6875 92.6875 81.6875 91.125 79.75 C90.69703125 79.2653125 90.2690625 78.780625 89.828125 78.28125 C86.125 74.0372191 86.125 74.0372191 86.125 71.75 C85.465 71.75 84.805 71.75 84.125 71.75 C84.54661832 66.83111963 86.55175901 65.01252438 90.125 61.75 C91.38174109 60.52772649 92.631541 59.29828332 93.875 58.0625 C94.46796875 57.48113281 95.0609375 56.89976562 95.671875 56.30078125 C97.22141804 54.79486026 97.22141804 54.79486026 98.125 52.75 C63.145 52.75 28.165 52.75 -7.875 52.75 C1.35841342 62.04192106 1.35841342 62.04192106 11.125 70.75 C11.9375 74.0625 11.9375 74.0625 11.125 77.75 C8.45208163 82.0221003 5.6771373 85.09810233 1 87.0625 C-3.03728744 86.62366441 -4.11294184 84.6770172 -6.875 81.75 C-7.79345703 80.83154297 -8.71191406 79.91308594 -9.65820312 78.96679688 C-31.875 56.75 -31.875 56.75 -34.56054688 54.04101562 C-36.2128114 52.40548289 -37.93063333 50.83511778 -39.6875 49.3125 C-41.875 46.75 -41.875 46.75 -42.3515625 43.921875 C-41.71574064 39.69001149 -39.59629764 38.02076404 -36.4375 35.4375 C-35.33444967 34.48348839 -34.23290294 33.52773572 -33.1328125 32.5703125 C-32.58270508 32.09883789 -32.03259766 31.62736328 -31.46582031 31.14160156 C-29.15660438 29.12156921 -26.98142697 26.98142697 -24.8125 24.8125 C-24.12027344 24.12285156 -23.42804688 23.43320313 -22.71484375 22.72265625 C-20.82190371 20.77659436 -20.82190371 20.77659436 -19.25390625 18.49609375 C-18.79886719 17.91988281 -18.34382813 17.34367187 -17.875 16.75 C-17.215 16.75 -16.555 16.75 -15.875 16.75 C-15.215 15.43 -14.555 14.11 -13.875 12.75 C-13.215 12.75 -12.555 12.75 -11.875 12.75 C-11.875 12.09 -11.875 11.43 -11.875 10.75 C-11.215 10.75 -10.555 10.75 -9.875 10.75 C-9.648125 10.21375 -9.42125 9.6775 -9.1875 9.125 C-6.86080617 4.91479212 -4.83662733 1.26172887 0 0 Z M-4.27734375 5.98046875 C-5.11394531 6.95628906 -5.95054687 7.93210938 -6.8125 8.9375 C-9.35205309 11.86956516 -11.84576676 14.72159607 -14.62890625 17.42578125 C-17.07090355 19.61794207 -17.07090355 19.61794207 -17.875 22.75 C-18.535 22.75 -19.195 22.75 -19.875 22.75 C-21.68567374 24.46331989 -21.68567374 24.46331989 -23.5 26.625 C-24.13164062 27.34429687 -24.76328125 28.06359375 -25.4140625 28.8046875 C-27.07517123 30.61106933 -27.07517123 30.61106933 -26.875 32.75 C-27.514375 32.87375 -28.15375 32.9975 -28.8125 33.125 C-29.493125 33.33125 -30.17375 33.5375 -30.875 33.75 C-31.205 34.41 -31.535 35.07 -31.875 35.75 C-33.36 36.245 -33.36 36.245 -34.875 36.75 C-35.205 37.74 -35.535 38.73 -35.875 39.75 C-36.865 40.41 -37.855 41.07 -38.875 41.75 C-38.79063067 44.61855713 -38.28807819 46.30682315 -36.3203125 48.41796875 C-33.04176411 51.62461482 -33.04176411 51.62461482 -28.875 52.75 C-28.6275 53.306875 -28.38 53.86375 -28.125 54.4375 C-26.07833802 58.22382467 -23.40948351 61.21551649 -20.375 64.25 C-17.875 66.75 -17.875 66.75 -15.6875 69.5625 C-15.089375 70.284375 -14.49125 71.00625 -13.875 71.75 C-13.215 71.75 -12.555 71.75 -11.875 71.75 C-11.875 72.41 -11.875 73.07 -11.875 73.75 C-11.153125 74.141875 -10.43125 74.53375 -9.6875 74.9375 C-5.95905878 77.34027323 -4.31112139 80.06101619 -1.875 83.75 C0.6 83.255 0.6 83.255 3.125 82.75 C3.125 81.76 3.125 80.77 3.125 79.75 C3.785 79.75 4.445 79.75 5.125 79.75 C6.90969266 78.03747373 6.90969266 78.03747373 8.125 75.75 C7.73471592 72.14737772 6.05299826 70.15565294 3.6875 67.5 C2.76130859 66.44039062 2.76130859 66.44039062 1.81640625 65.359375 C0.27263552 63.52022637 0.27263552 63.52022637 -1.875 63.75 C-1.875 63.09 -1.875 62.43 -1.875 61.75 C-2.865 61.42 -3.855 61.09 -4.875 60.75 C-5.205 60.09 -5.535 59.43 -5.875 58.75 C-6.865 58.75 -7.855 58.75 -8.875 58.75 C-8.875 57.76 -8.875 56.77 -8.875 55.75 C-9.535 55.42 -10.195 55.09 -10.875 54.75 C-11.37 52.275 -11.37 52.275 -11.875 49.75 C26.405 49.75 64.685 49.75 104.125 49.75 C103.135 51.4 102.145 53.05 101.125 54.75 C100.795 55.74 100.465 56.73 100.125 57.75 C98.296875 58.765625 98.296875 58.765625 96.125 59.75 C92.35558566 62.29358854 89.48334157 64.2867719 88.375 68.8125 C89.3797936 72.74794161 90.90536675 74.31738821 94.125 76.75 C96.71325707 77.58425785 96.71325707 77.58425785 99.125 76.75 C100.73407108 74.37387135 100.73407108 74.37387135 102.125 71.75 C104.3125 70.4375 104.3125 70.4375 106.125 69.75 C106.125 68.76 106.125 67.77 106.125 66.75 C107.115 66.42 108.105 66.09 109.125 65.75 C109.125 65.09 109.125 64.43 109.125 63.75 C109.7025 63.523125 110.28 63.29625 110.875 63.0625 C113.68927613 61.42083893 115.15237733 59.31440947 117.125 56.75 C117.785 56.42 118.445 56.09 119.125 55.75 C119.125 55.09 119.125 54.43 119.125 53.75 C119.99705078 53.35748047 119.99705078 53.35748047 120.88671875 52.95703125 C123.25860331 51.67795214 124.98582611 50.290563 126.9375 48.4375 C127.56269531 47.86386719 128.18789063 47.29023438 128.83203125 46.69921875 C130.36424897 44.79190368 130.36424897 44.79190368 130.0703125 42.24609375 C128.93775332 39.25557592 127.67901498 38.09838799 125.1875 36.125 C122.57350856 34.02811394 121.01422484 32.58383726 119.125 29.75 C118.135 29.75 117.145 29.75 116.125 29.75 C114.71122659 27.11095629 113.75259865 24.67879371 113.125 21.75 C111.805 21.75 110.485 21.75 109.125 21.75 C109.125 21.09 109.125 20.43 109.125 19.75 C107.15209413 17.40130253 106.12193138 16.74897713 103.125 15.75 C102.795 14.76 102.465 13.77 102.125 12.75 C98.8024711 9.60706726 97.82764718 8.75 93.125 8.75 C92.465 9.74 91.805 10.73 91.125 11.75 C90.135 12.08 89.145 12.41 88.125 12.75 C87.89071687 17.5397321 87.89071687 17.5397321 90.125 21.75 C90.785 21.75 91.445 21.75 92.125 21.75 C92.455 22.74 92.785 23.73 93.125 24.75 C93.785 24.75 94.445 24.75 95.125 24.75 C95.5271875 25.6471875 95.5271875 25.6471875 95.9375 26.5625 C97.13487475 28.76819033 98.16978984 30.18583187 100.125 31.75 C101.115 31.75 102.105 31.75 103.125 31.75 C103.125 33.4 103.125 35.05 103.125 36.75 C101.99177307 36.73747192 100.85854614 36.72494385 99.690979 36.71203613 C88.92500143 36.59316034 78.15901158 36.4754553 67.39300919 36.35884857 C61.86030694 36.29888746 56.32760956 36.23853727 50.79492188 36.17724609 C45.43917591 36.11793026 40.08341903 36.05970407 34.7276535 36.00218201 C32.70110413 35.98023481 30.67455872 35.95791815 28.64801788 35.93519592 C15.47305519 35.78778616 2.30078851 35.72172337 -10.875 35.75 C-11.205 34.43 -11.535 33.11 -11.875 31.75 C-10.555 31.42 -9.235 31.09 -7.875 30.75 C-7.875 30.09 -7.875 29.43 -7.875 28.75 C-6.555 28.75 -5.235 28.75 -3.875 28.75 C-3.875 27.43 -3.875 26.11 -3.875 24.75 C-2.885 24.75 -1.895 24.75 -0.875 24.75 C-0.875 23.76 -0.875 22.77 -0.875 21.75 C0.115 21.42 1.105 21.09 2.125 20.75 C3.79089237 18.89188287 3.79089237 18.89188287 5.3125 16.6875 C5.84230469 15.95402344 6.37210938 15.22054687 6.91796875 14.46484375 C7.31628906 13.89894531 7.71460938 13.33304688 8.125 12.75 C5.89084709 7.66508219 5.89084709 7.66508219 2.125 3.75 C-1.93280051 3.2963964 -1.93280051 3.2963964 -4.27734375 5.98046875 Z " fill="#54637A" transform="translate(214.875,140.25)"/>
<path d="M0 0 C0.33 0.99 0.66 1.98 1 3 C0.67 3.66 0.34 4.32 0 5 C-0.99 5 -1.98 5 -3 5 C-3.33 5.99 -3.66 6.98 -4 8 C-6.21430916 9.58598269 -8.52338627 10.92545646 -10.87109375 12.3046875 C-13.3992748 14.31795461 -13.93653979 16.00252611 -15 19 C-15.66 19.33 -16.32 19.66 -17 20 C-20.61272578 26.9353787 -20.42805849 33.91916391 -20.33618164 41.57348633 C-20.31243554 43.69325405 -20.31565557 45.81177214 -20.32226562 47.93164062 C-20.32340104 56.16834387 -20.32340104 56.16834387 -18 64 C-17.875 67.3125 -17.875 67.3125 -18 70 C-17.01 70.33 -16.02 70.66 -15 71 C-13.8125 74.0625 -13.8125 74.0625 -13 77 C-12.34 77 -11.68 77 -11 77 C-10.67 77.66 -10.34 78.32 -10 79 C-9.01 79.33 -8.02 79.66 -7 80 C-7 80.66 -7 81.32 -7 82 C-6.278125 82.28875 -5.55625 82.5775 -4.8125 82.875 C-2.20833333 83.91666667 0.39583333 84.95833333 3 86 C3 86.66 3 87.32 3 88 C8.49770996 89.64988901 14.25166216 89.18440482 19.9375 89.1875 C21.11763672 89.19974609 22.29777344 89.21199219 23.51367188 89.22460938 C24.65255859 89.22654297 25.79144531 89.22847656 26.96484375 89.23046875 C28.0024585 89.23457764 29.04007324 89.23868652 30.10913086 89.24291992 C33.10399975 88.99126089 35.28739701 88.25943396 38 87 C38 85.68 38 84.36 38 83 C38.639375 82.896875 39.27875 82.79375 39.9375 82.6875 C40.618125 82.460625 41.29875 82.23375 42 82 C42.495 80.515 42.495 80.515 43 79 C44.32 79 45.64 79 47 79 C47 78.34 47 77.68 47 77 C48.98 77 50.96 77 53 77 C53 84.59 53 92.18 53 100 C51.515 100.495 51.515 100.495 50 101 C50.020625 101.94875 50.04125 102.8975 50.0625 103.875 C50 107 50 107 49 109 C48.01 109 47.02 109 46 109 C45.505 110.98 45.505 110.98 45 113 C44.360625 113.12375 43.72125 113.2475 43.0625 113.375 C42.381875 113.58125 41.70125 113.7875 41 114 C40.67 114.66 40.34 115.32 40 116 C36.84176298 117.13497037 33.78737667 117.12893646 30.45703125 117.1328125 C29.38259766 117.13410156 28.30816406 117.13539063 27.20117188 117.13671875 C25.5237793 117.13091797 25.5237793 117.13091797 23.8125 117.125 C22.71357422 117.12886719 21.61464844 117.13273437 20.48242188 117.13671875 C14.2372492 117.12927072 8.19119593 116.82374941 2 116 C2 115.34 2 114.68 2 114 C1.4225 113.71125 0.845 113.4225 0.25 113.125 C-0.86375 112.568125 -0.86375 112.568125 -2 112 C-2.680625 111.731875 -3.36125 111.46375 -4.0625 111.1875 C-6.67804463 109.58442426 -7.6439055 107.71218901 -9 105 C-9 104.34 -9 103.68 -9 103 C-9.721875 103.350625 -10.44375 103.70125 -11.1875 104.0625 C-14.3122705 105.10409017 -15.88161996 104.89096572 -19 104 C-17.515 103.505 -17.515 103.505 -16 103 C-16 102.34 -16 101.68 -16 101 C-13.15246248 99.57623124 -11.1514535 99.66826805 -8 100 C-5.9453125 101.828125 -5.9453125 101.828125 -4.125 104.25 C-0.73842339 108.73611447 2.63324288 111.36086074 8 113 C12.53420456 113.55665458 16.99935742 113.55935795 21.5625 113.5 C22.75552734 113.51546875 23.94855469 113.5309375 25.17773438 113.546875 C32.0628081 113.51625766 36.35809189 112.98810896 42 109 C42.66 109 43.32 109 44 109 C48.87753208 99.64611813 49.59926861 90.36374285 50 80 C49.5153125 80.53109375 49.030625 81.0621875 48.53125 81.609375 C41.55555036 88.96068923 35.34870501 92.72590932 25.109375 93.16796875 C9.70032586 93.32813134 -2.06236611 90.86640985 -13.54443359 79.65136719 C-19.78552544 72.57073229 -24.18081967 62.44782786 -24 53 C-24.04640625 51.81019531 -24.0928125 50.62039063 -24.140625 49.39453125 C-24.64842258 34.00507904 -22.19582649 21.2483727 -11.71875 9.42578125 C-8.05534023 5.63415214 -4.61455493 2.59062733 0 0 Z " fill="#7394BF" transform="translate(251,256)"/>
<path d="M0 0 C4.3136543 3.60938421 8.37502533 7.3057388 12.2890625 11.34375 C13.92140744 12.92391953 15.60764714 14.22232607 17.4375 15.5625 C20 18 20 18 20.54345703 20.73461914 C19.75843159 25.45147234 17.26021128 27.47857166 13.8671875 30.68359375 C13.23773224 31.30218765 12.60827698 31.92078156 11.95974731 32.55812073 C9.94518645 34.53254848 7.91116028 36.48537709 5.875 38.4375 C3.86464069 40.39013756 1.85855081 42.3470339 -0.14547729 44.3061676 C-1.39195866 45.5219479 -2.64277742 46.73330359 -3.89871216 47.9393158 C-7.39171677 51.3152644 -10.55803944 54.77177215 -13.54049683 58.61073303 C-15.31499561 60.29983696 -16.58683562 60.70044684 -19 61 C-20.4375 59.9375 -20.4375 59.9375 -22 58 C-22.42796875 57.5153125 -22.8559375 57.030625 -23.296875 56.53125 C-27 52.2872191 -27 52.2872191 -27 50 C-27.66 50 -28.32 50 -29 50 C-28.57838168 45.08111963 -26.57324099 43.26252438 -23 40 C-21.24488101 38.15457288 -19.49168824 36.30756718 -17.74609375 34.453125 C-15.82566122 32.85491269 -14.44010671 32.40579455 -12 32 C-12 31.34 -12 30.68 -12 30 C-48.96 29.67 -85.92 29.34 -124 29 C-123.67 29.99 -123.34 30.98 -123 32 C-122.34 32.33 -121.68 32.66 -121 33 C-120.375 35.0625 -120.375 35.0625 -120 37 C-120.66 37 -121.32 37 -122 37 C-122 36.01 -122 35.02 -122 34 C-122.99 33.67 -123.98 33.34 -125 33 C-125 31.35 -125 29.7 -125 28 C-121.70122469 27.26372908 -118.65181435 26.874615 -115.27412415 26.87301636 C-114.35299835 26.87019653 -113.43187256 26.86737671 -112.48283386 26.86447144 C-111.48472183 26.86649567 -110.4866098 26.8685199 -109.45825195 26.87060547 C-108.39759521 26.86885315 -107.33693848 26.86710083 -106.24414062 26.86529541 C-102.74217081 26.86089792 -99.24025157 26.86380689 -95.73828125 26.8671875 C-93.30641164 26.86651401 -90.8745421 26.8655436 -88.44267273 26.86428833 C-83.34938922 26.86281433 -78.25612326 26.86495693 -73.1628418 26.86962891 C-66.62211625 26.8753351 -60.08143165 26.87203966 -53.54070759 26.86605644 C-48.52143543 26.86245056 -43.50217306 26.86358939 -38.48290062 26.86618423 C-36.0702635 26.86685296 -33.65762549 26.86602699 -31.2449894 26.86370468 C-27.88115697 26.86117674 -24.51739184 26.86502038 -21.15356445 26.87060547 C-20.14937973 26.86858124 -19.14519501 26.86655701 -18.11058044 26.86447144 C-16.74158096 26.86870117 -16.74158096 26.86870117 -15.34492493 26.87301636 C-14.15172622 26.8735819 -14.15172622 26.8735819 -12.93442249 26.87415886 C-11 27 -11 27 -9 28 C-9.47424857 32.26823714 -11.95761403 34.17492731 -15 37 C-15.556875 37.598125 -16.11375 38.19625 -16.6875 38.8125 C-18 40 -18 40 -20 40 C-20.33 40.99 -20.66 41.98 -21 43 C-21.99 43.495 -21.99 43.495 -23 44 C-23.65772428 47.02934491 -23.65772428 47.02934491 -24 50 C-23.360625 50.28875 -22.72125 50.5775 -22.0625 50.875 C-20 52 -20 52 -19 54 C-16.47266765 54.65555119 -16.47266765 54.65555119 -14 55 C-13.7525 54.21625 -13.505 53.4325 -13.25 52.625 C-11.80505715 49.59062001 -10.94434181 49.32970275 -8 48 C-7.67 47.01 -7.34 46.02 -7 45 C-5.2578125 43.31640625 -5.2578125 43.31640625 -3.125 41.5625 C-0.89360158 39.72221385 0.9162724 38.1139737 2.6328125 35.77734375 C3.30957031 34.89755859 3.30957031 34.89755859 4 34 C4.66 34 5.32 34 6 34 C6 33.34 6 32.68 6 32 C7.6796875 30.34375 7.6796875 30.34375 9.875 28.5 C11.99035504 26.71066742 14.04019124 24.95980876 16 23 C16.16687448 20.41645782 16.16687448 20.41645782 16 18 C15.195625 17.690625 15.195625 17.690625 14.375 17.375 C11.08021991 15.46749574 8.40636372 12.95180616 6 10 C6 9.34 6 8.68 6 8 C5.01 8 4.02 8 3 8 C0.19744677 5.0936485 0 4.21174952 0 0 Z " fill="#637B9D" transform="translate(328,162)"/>
<path d="M0 0 C6.6 0 13.2 0 20 0 C20.68395867 5.47166932 21.14527965 10.55417722 21.12939453 16.01391602 C21.13114685 16.77127548 21.13289917 17.52863495 21.13470459 18.3089447 C21.1390728 20.79062251 21.13620085 23.27222782 21.1328125 25.75390625 C21.13348747 27.50015781 21.13445911 29.24640928 21.13571167 30.99266052 C21.13718227 34.64819231 21.13505645 38.30369959 21.13037109 41.95922852 C21.12470391 46.60297658 21.1279377 51.24666645 21.13394356 55.89041233 C21.1375919 59.49820884 21.13639066 63.10599203 21.13381577 66.71378899 C21.1331567 68.42349187 21.13393846 70.13319603 21.13629532 71.84289742 C21.17565224 108.44423605 21.17565224 108.44423605 9 122 C3.86585366 127 3.86585366 127 1 127 C1.33 125.68 1.66 124.36 2 123 C3.98 122.505 3.98 122.505 6 122 C6.09410156 121.41347656 6.18820312 120.82695312 6.28515625 120.22265625 C7.15726282 117.51102436 8.39634018 116.40227546 10.4375 114.4375 C14.7772492 109.71613686 15.26135666 105.17865173 16 99 C16.495 97.515 16.495 97.515 17 96 C17.12066387 93.00330247 17.18544984 90.02817644 17.20532227 87.03051758 C17.21522186 86.11324387 17.22512146 85.19597015 17.23532104 84.25090027 C17.2669378 81.21547029 17.29169423 78.18002465 17.31640625 75.14453125 C17.33697562 73.04131155 17.35797209 70.93809598 17.37937927 68.83488464 C17.43460167 63.29634956 17.48401025 57.75777716 17.53222656 52.21917725 C17.58244033 46.56861038 17.63812705 40.91809777 17.69335938 35.26757812 C17.80094302 24.17843176 17.90238758 13.0892383 18 2 C12.72 2 7.44 2 2 2 C2 4.64 2 7.28 2 10 C1 13 1 13 0 15 C-0.66 15 -1.32 15 -2 15 C-2 14.01 -2 13.02 -2 12 C-1.34 12 -0.68 12 0 12 C-0.33 11.34 -0.66 10.68 -1 10 C-1.1328125 8.125 -1.1328125 8.125 -1.125 6 C-1.12886719 4.948125 -1.12886719 4.948125 -1.1328125 3.875 C-1 2 -1 2 0 0 Z " fill="#6D8DBB" transform="translate(302,255)"/>
<path d="M0 0 C6.93 0 13.86 0 21 0 C21.495 1.485 21.495 1.485 22 3 C23.1446875 2.87625 23.1446875 2.87625 24.3125 2.75 C27 3 27 3 28.8125 4.875 C30 7 30 7 30 9 C30.598125 9.0825 31.19625 9.165 31.8125 9.25 C34.65025411 10.22294427 35.49676067 11.44449313 37 14 C37 14.99 37 15.98 37 17 C37.66 17 38.32 17 39 17 C41.07168121 21.14336242 40.31789696 26.44733072 40.375 31 C40.43107422 32.64935547 40.43107422 32.64935547 40.48828125 34.33203125 C40.57109067 42.08851367 39.11253511 47.41399709 35 54 C34.34 54 33.68 54 33 54 C32.731875 54.598125 32.46375 55.19625 32.1875 55.8125 C29.64226963 60.50108226 26.03461011 62.44812778 21 64 C17.82146998 64.41208943 14.70127912 64.42051582 11.5 64.375 C10.27603516 64.39240234 10.27603516 64.39240234 9.02734375 64.41015625 C3.61151242 64.38407681 -0.16908751 63.45441522 -5 61 C-5 60.34 -5 59.68 -5 59 C-6.32 58.34 -7.64 57.68 -9 57 C-9 56.34 -9 55.68 -9 55 C-9.66 55 -10.32 55 -11 55 C-11 53.35 -11 51.7 -11 50 C-10.278125 50.7425 -9.55625 51.485 -8.8125 52.25 C-2.9342775 57.99759533 2.43123183 62.05653326 10.8125 62.4375 C17.55601909 62.1714431 23.25563592 60.45983135 28.3359375 55.90625 C35.12916858 48.54896002 36.36199791 42.98457316 36.375 33.1875 C36.41173828 31.74793945 36.41173828 31.74793945 36.44921875 30.27929688 C36.47243484 24.61070229 35.84735888 20.56794657 32.95947266 15.6496582 C32 14 32 14 31 11 C30.34 11 29.68 11 29 11 C29 10.34 29 9.68 29 9 C28.46375 8.731875 27.9275 8.46375 27.375 8.1875 C25 7 25 7 22.4375 5.4375 C15.02056232 2.33587152 7.51382367 2.32558819 0 5 C-3.23761134 6.85250004 -3.23761134 6.85250004 -6 9 C-6.78375 9.5775 -7.5675 10.155 -8.375 10.75 C-9.179375 11.36875 -9.179375 11.36875 -10 12 C-9.5020163 8.26512223 -9.12508244 6.18762365 -7 3 C-3.875 2.8125 -3.875 2.8125 -1 3 C-0.67 2.01 -0.34 1.02 0 0 Z " fill="#6885AF" transform="translate(264,269)"/>
<path d="M0 0 C0.33 0.99 0.66 1.98 1 3 C0.67 3.66 0.34 4.32 0 5 C-0.99 5 -1.98 5 -3 5 C-3.33 5.99 -3.66 6.98 -4 8 C-6.21430916 9.58598269 -8.52338627 10.92545646 -10.87109375 12.3046875 C-13.3992748 14.31795461 -13.93653979 16.00252611 -15 19 C-15.66 19.33 -16.32 19.66 -17 20 C-20.61272578 26.9353787 -20.42805849 33.91916391 -20.33618164 41.57348633 C-20.31243554 43.69325405 -20.31565557 45.81177214 -20.32226562 47.93164062 C-20.32340104 56.16834387 -20.32340104 56.16834387 -18 64 C-17.875 67.3125 -17.875 67.3125 -18 70 C-17.01 70.33 -16.02 70.66 -15 71 C-13.8125 74.0625 -13.8125 74.0625 -13 77 C-12.34 77 -11.68 77 -11 77 C-10.67 77.66 -10.34 78.32 -10 79 C-9.01 79.33 -8.02 79.66 -7 80 C-7 80.66 -7 81.32 -7 82 C-6.278125 82.28875 -5.55625 82.5775 -4.8125 82.875 C-2.20833333 83.91666667 0.39583333 84.95833333 3 86 C3 86.66 3 87.32 3 88 C6.33004485 89.00115097 9.36263292 89.12899007 12.83203125 89.1328125 C13.96060547 89.13410156 15.08917969 89.13539063 16.25195312 89.13671875 C17.42693359 89.13285156 18.60191406 89.12898438 19.8125 89.125 C21.55756836 89.13080078 21.55756836 89.13080078 23.33789062 89.13671875 C28.994489 89.13027982 34.43124236 89.02432622 40 88 C34.41634229 92.91361879 27.72599626 93.34182667 20.625 93.25 C19.87694092 93.24395752 19.12888184 93.23791504 18.3581543 93.23168945 C5.59348021 93.00263331 -4.3602281 88.62198651 -13.54443359 79.65136719 C-19.78552544 72.57073229 -24.18081967 62.44782786 -24 53 C-24.04640625 51.81019531 -24.0928125 50.62039063 -24.140625 49.39453125 C-24.64842258 34.00507904 -22.19582649 21.2483727 -11.71875 9.42578125 C-8.05534023 5.63415214 -4.61455493 2.59062733 0 0 Z " fill="#597091" transform="translate(251,256)"/>

<path d="M0 0 C0.92112579 -0.00281982 1.84225159 -0.00563965 2.79129028 -0.00854492 C3.78940231 -0.00652069 4.78751434 -0.00449646 5.81587219 -0.00241089 C6.87652893 -0.00416321 7.93718567 -0.00591553 9.02998352 -0.00772095 C12.53195334 -0.01211844 16.03387257 -0.00920947 19.5358429 -0.00582886 C21.9677125 -0.00650235 24.39958204 -0.00747275 26.83145142 -0.00872803 C31.92473492 -0.01020202 37.01800088 -0.00805943 42.11128235 -0.00338745 C48.6520079 0.00231874 55.1926925 -0.00097669 61.73341656 -0.00695992 C66.75268871 -0.0105658 71.77195108 -0.00942697 76.79122353 -0.00683212 C79.20386065 -0.0061634 81.61649865 -0.00698937 84.02913475 -0.00931168 C87.39296718 -0.01183961 90.7567323 -0.00799598 94.12055969 -0.00241089 C95.12474442 -0.00443512 96.12892914 -0.00645935 97.1635437 -0.00854492 C98.53254318 -0.00431519 98.53254318 -0.00431519 99.92919922 0 C101.12239792 0.00056554 101.12239792 0.00056554 102.33970165 0.0011425 C104.27412415 0.12698364 104.27412415 0.12698364 106.27412415 1.12698364 C105.67724981 4.46947993 104.53808538 6.59134706 102.27412415 9.12698364 C101.61412415 9.12698364 100.95412415 9.12698364 100.27412415 9.12698364 C100.60412415 7.80698364 100.93412415 6.48698364 101.27412415 5.12698364 C101.93412415 5.12698364 102.59412415 5.12698364 103.27412415 5.12698364 C103.27412415 4.46698364 103.27412415 3.80698364 103.27412415 3.12698364 C66.31412415 2.79698364 29.35412415 2.46698364 -8.72587585 2.12698364 C-8.39587585 3.11698364 -8.06587585 4.10698364 -7.72587585 5.12698364 C-7.06587585 5.45698364 -6.40587585 5.78698364 -5.72587585 6.12698364 C-5.10087585 8.18948364 -5.10087585 8.18948364 -4.72587585 10.12698364 C-5.38587585 10.12698364 -6.04587585 10.12698364 -6.72587585 10.12698364 C-6.72587585 9.13698364 -6.72587585 8.14698364 -6.72587585 7.12698364 C-7.71587585 6.79698364 -8.70587585 6.46698364 -9.72587585 6.12698364 C-9.72587585 4.47698364 -9.72587585 2.82698364 -9.72587585 1.12698364 C-6.42710055 0.39071272 -3.3776902 0.00159865 0 0 Z " fill="#7290BD" transform="translate(212.7258758544922,188.87301635742188)"/>
<path d="M0 0 C4.73702286 1.55275334 7.3089789 4.55790003 10.6640625 8.140625 C11.30472656 8.80384766 11.94539063 9.46707031 12.60546875 10.15039062 C14.1786017 11.78222256 15.73885484 13.42454896 17.2890625 15.078125 C15.9690625 15.408125 14.6490625 15.738125 13.2890625 16.078125 C13.2890625 15.418125 13.2890625 14.758125 13.2890625 14.078125 C12.2990625 13.748125 11.3090625 13.418125 10.2890625 13.078125 C10.2890625 12.418125 10.2890625 11.758125 10.2890625 11.078125 C8.9690625 10.748125 7.6490625 10.418125 6.2890625 10.078125 C6.2890625 9.088125 6.2890625 8.098125 6.2890625 7.078125 C3.35185742 5.55512977 0.3721976 4.27712198 -2.7109375 3.078125 C-3.3709375 4.398125 -4.0309375 5.718125 -4.7109375 7.078125 C-5.7009375 7.078125 -6.6909375 7.078125 -7.7109375 7.078125 C-6.60386057 13.11672643 -5.87231284 15.47716546 -0.7109375 19.078125 C0.19112592 20.11774648 1.06583275 21.18163351 1.9140625 22.265625 C4.04706353 25.28679108 4.04706353 25.28679108 7.2890625 26.078125 C7.2890625 27.728125 7.2890625 29.378125 7.2890625 31.078125 C-6.2409375 31.078125 -19.7709375 31.078125 -33.7109375 31.078125 C-33.7109375 30.748125 -33.7109375 30.418125 -33.7109375 30.078125 C-21.8309375 29.418125 -9.9509375 28.758125 2.2890625 28.078125 C-2.30480574 23.68160311 -2.30480574 23.68160311 -6.92578125 19.3137207 C-7.49425781 18.75773193 -8.06273437 18.20174316 -8.6484375 17.62890625 C-9.23496094 17.06856689 -9.82148438 16.50822754 -10.42578125 15.9309082 C-12.08591271 13.53753099 -11.95039889 11.92814319 -11.7109375 9.078125 C-11.0509375 9.078125 -10.3909375 9.078125 -9.7109375 9.078125 C-9.4840625 8.52125 -9.2571875 7.964375 -9.0234375 7.390625 C-6.81852568 3.50578036 -4.73485951 0.13645128 0 0 Z " fill="#6081A3" transform="translate(310.7109375,145.921875)"/>
<path d="M0 0 C0.66 0.33 1.32 0.66 2 1 C1.34 3.97 0.68 6.94 0 10 C0.99 10 1.98 10 3 10 C3.33 11.32 3.66 12.64 4 14 C4.99 14 5.98 14 7 14 C7 15.32 7 16.64 7 18 C8.65 18 10.3 18 12 18 C12.33 18.66 12.66 19.32 13 20 C15.10091348 21.06694788 15.10091348 21.06694788 17.625 22 C18.46289062 22.33 19.30078125 22.66 20.1640625 23 C27.0735532 25.43640443 32.85347801 26.28953761 40.125 26.1875 C41.00542969 26.18685547 41.88585937 26.18621094 42.79296875 26.18554688 C47.01997337 26.1568568 50.86012765 25.8947237 55 25 C57.10323534 24.9340265 59.20835724 24.91437755 61.3125 24.9375 C62.91544922 24.95103516 62.91544922 24.95103516 64.55078125 24.96484375 C65.35902344 24.97644531 66.16726563 24.98804688 67 25 C67 24.34 67 23.68 67 23 C68.98 22.67 70.96 22.34 73 22 C65.0089014 29.9910986 51.34150788 30.23816465 40.68383789 30.25317383 C33.84345323 30.16151898 27.55349988 28.97703348 21 27 C20.24203125 26.7834375 19.4840625 26.566875 18.703125 26.34375 C9.85103043 23.4616727 2.59884508 17.05147345 -2 9 C-2.5625 5.0625 -2.5625 5.0625 -2 2 C-1.34 1.34 -0.68 0.68 0 0 Z " fill="#617899" transform="translate(230,360)"/>
<path d="M0 0 C6.6 0 13.2 0 20 0 C20.69102759 5.52822073 21.14876452 10.6842114 21.14526367 16.2043457 C21.14862228 16.98098068 21.1519809 17.75761566 21.15544128 18.55778503 C21.16485779 21.09713382 21.1668889 23.63641615 21.16796875 26.17578125 C21.1711851 27.9507805 21.17454946 29.72577949 21.17805481 31.5007782 C21.18402078 35.20666113 21.18589705 38.91252081 21.18530273 42.6184082 C21.18520063 47.3709961 21.19891351 52.12343622 21.21607494 56.87598896 C21.22717358 60.53477163 21.22922269 64.19351812 21.22869301 67.8523159 C21.22987401 69.6054352 21.23430252 71.35855541 21.24202538 73.1116581 C21.2517929 75.55542173 21.24896144 77.99885836 21.24291992 80.44262695 C21.24853943 81.16733185 21.25415894 81.89203674 21.25994873 82.63870239 C21.23674839 86.3207601 21.10089733 87.848654 19 91 C19 61.3 19 31.6 19 1 C11.08 1.495 11.08 1.495 3 2 C2.690625 3.77375 2.38125 5.5475 2.0625 7.375 C1.125 12.75 1.125 12.75 0 15 C-0.66 15 -1.32 15 -2 15 C-2 14.01 -2 13.02 -2 12 C-1.34 12 -0.68 12 0 12 C-0.33 11.34 -0.66 10.68 -1 10 C-1.1328125 8.125 -1.1328125 8.125 -1.125 6 C-1.12886719 4.948125 -1.12886719 4.948125 -1.1328125 3.875 C-1 2 -1 2 0 0 Z " fill="#515E72" transform="translate(302,255)"/>
<path d="M0 0 C0.33 0 0.66 0 1 0 C4.07453285 19.39705278 4.07453285 19.39705278 0 26.4375 C-0.66 27.283125 -1.32 28.12875 -2 29 C-2.66 29 -3.32 29 -4 29 C-4.268125 29.598125 -4.53625 30.19625 -4.8125 30.8125 C-7.35773037 35.50108226 -10.96538989 37.44812778 -16 39 C-19.17853002 39.41208943 -22.29872088 39.42051582 -25.5 39.375 C-26.31597656 39.38660156 -27.13195312 39.39820313 -27.97265625 39.41015625 C-33.38848758 39.38407681 -37.16908751 38.45441522 -42 36 C-42 35.34 -42 34.68 -42 34 C-43.32 33.34 -44.64 32.68 -46 32 C-46 31.34 -46 30.68 -46 30 C-46.66 30 -47.32 30 -48 30 C-48 28.35 -48 26.7 -48 25 C-47.278125 25.7425 -46.55625 26.485 -45.8125 27.25 C-39.9342775 32.99759533 -34.56876817 37.05653326 -26.1875 37.4375 C-19.44398091 37.1714431 -13.74436408 35.45983135 -8.6640625 30.90625 C-2.16722513 23.86996404 -0.71069377 18.5659446 -0.375 9.1875 C-0.33632813 8.30384766 -0.29765625 7.42019531 -0.2578125 6.50976562 C-0.16399216 4.34017028 -0.08092674 2.17011453 0 0 Z " fill="#586D8F" transform="translate(301,294)"/>
<path d="M0 0 C0.33 0 0.66 0 1 0 C1 1.65 1 3.3 1 5 C45.055 5.495 45.055 5.495 90 6 C90 6.33 90 6.66 90 7 C71.61081008 8.30656933 53.20980531 8.1182816 34.78668213 8.06866455 C30.51534527 8.05828451 26.24400219 8.05383603 21.97265625 8.04882812 C13.64842081 8.03822453 5.32421507 8.0212436 -3 8 C-3.33 6.35 -3.66 4.7 -4 3 C-3.01 2.67 -2.02 2.34 -1 2 C-0.67 1.34 -0.34 0.68 0 0 Z " fill="#2E4456" transform="translate(207,169)"/>
<path d="M0 0 C0.74338623 0.00088623 1.48677246 0.00177246 2.25268555 0.00268555 C10.35911662 0.17467983 18.65125378 1.84761699 24.875 7.375 C24.875 8.035 24.875 8.695 24.875 9.375 C25.535 9.375 26.195 9.375 26.875 9.375 C28.5 11.375 28.5 11.375 29.875 13.375 C29.545 14.035 29.215 14.695 28.875 15.375 C27.555 15.045 26.235 14.715 24.875 14.375 C24.875 13.715 24.875 13.055 24.875 12.375 C23.885 12.045 22.895 11.715 21.875 11.375 C21.38 10.385 21.38 10.385 20.875 9.375 C18.76172575 8.46774566 18.76172575 8.46774566 16.3125 7.75 C15.48621094 7.48960937 14.65992188 7.22921875 13.80859375 6.9609375 C13.17050781 6.76757812 12.53242188 6.57421875 11.875 6.375 C11.875 5.715 11.875 5.055 11.875 4.375 C7.40762243 3.51167243 3.17263063 3.24032419 -1.375 3.25 C-2.59703125 3.24742187 -3.8190625 3.24484375 -5.078125 3.2421875 C-8.04269183 3.16391322 -8.04269183 3.16391322 -10.125 4.375 C-12.7973621 4.50915472 -15.44750488 4.41818541 -18.125 4.375 C-12.20215202 1.18577416 -6.70660442 -0.01439673 0 0 Z " fill="#6B7F9E" transform="translate(270.125,251.625)"/>
<path d="M0 0 C0.33 0.99 0.66 1.98 1 3 C0.67 3.66 0.34 4.32 0 5 C-0.99 5 -1.98 5 -3 5 C-3.33 5.99 -3.66 6.98 -4 8 C-6.21430916 9.58598269 -8.52338627 10.92545646 -10.87109375 12.3046875 C-13.3992748 14.31795461 -13.93653979 16.00252611 -15 19 C-15.66 19.33 -16.32 19.66 -17 20 C-20.62493433 26.94192521 -20.39552102 33.9128642 -20.28125 41.57348633 C-20.24991796 43.69304997 -20.24025034 45.81186749 -20.234375 47.93164062 C-20.22894422 56.02352449 -20.22894422 56.02352449 -19 64 C-21.51944351 62.13180966 -21.97710363 61.13906922 -22.49584961 57.98828125 C-22.79446457 50.97432357 -22.79446457 50.97432357 -22.87329102 48.13330078 C-22.93649247 46.03347451 -23.03789519 43.93795703 -23.14257812 41.83984375 C-23.7000522 27.61944991 -19.68631988 18.42381326 -10.16796875 7.9921875 C-7.03933311 4.73404406 -4.05573583 2.08931846 0 0 Z " fill="#627FA8" transform="translate(251,256)"/>
<path d="M0 0 C1.98 0 3.96 0 6 0 C6.08685287 3.29150125 6.14033895 6.5827096 6.1875 9.875 C6.21263672 10.81214844 6.23777344 11.74929688 6.26367188 12.71484375 C6.27333984 13.61074219 6.28300781 14.50664062 6.29296875 15.4296875 C6.3086792 16.25710449 6.32438965 17.08452148 6.34057617 17.93701172 C6.22818604 18.61779785 6.1157959 19.29858398 6 20 C5.01 20.66 4.02 21.32 3 22 C2.26656572 25.06556598 2.26656572 25.06556598 2 28 C1.34 28 0.68 28 0 28 C0.2165625 26.78183594 0.433125 25.56367188 0.65625 24.30859375 C0.93780689 22.68494902 1.21903969 21.06124807 1.5 19.4375 C1.71462891 18.23770508 1.71462891 18.23770508 1.93359375 17.01367188 C2.74769395 12.26475402 3.15519589 7.81753923 3 3 C2.49210937 3.5775 1.98421875 4.155 1.4609375 4.75 C-4.23156089 10.89022298 -4.23156089 10.89022298 -8.5 11.5 C-9.325 11.335 -10.15 11.17 -11 11 C-10.34 10.67 -9.68 10.34 -9 10 C-9 8.68 -9 7.36 -9 6 C-8.360625 5.896875 -7.72125 5.79375 -7.0625 5.6875 C-6.381875 5.460625 -5.70125 5.23375 -5 5 C-4.67 4.01 -4.34 3.02 -4 2 C-2.68 2 -1.36 2 0 2 C0 1.34 0 0.68 0 0 Z " fill="#6E8BBE" transform="translate(298,333)"/>
<path d="M0 0 C2.0546875 1.828125 2.0546875 1.828125 3.875 4.25 C7.25722919 8.73035555 10.62350818 11.39493587 16 13 C20.59786415 13.48425158 25.13245696 13.42385554 29.75 13.3125 C30.96816406 13.30283203 32.18632812 13.29316406 33.44140625 13.28320312 C40.30243145 13.28138632 40.30243145 13.28138632 47 12 C47 12.99 47 13.98 47 15 C42.19450253 15.02468447 37.38904182 15.04285255 32.58349609 15.05493164 C30.94807289 15.05996621 29.3126542 15.06679427 27.67724609 15.07543945 C25.32909025 15.08754335 22.98099381 15.093237 20.6328125 15.09765625 C19.53273361 15.10539818 19.53273361 15.10539818 18.41043091 15.11329651 C13.22774341 15.11387171 13.22774341 15.11387171 11 14 C11 13.34 11 12.68 11 12 C10.2575 12.04125 9.515 12.0825 8.75 12.125 C5.78604066 11.99027458 4.41679351 11.69175545 2 10 C-1 5.71428571 -1 5.71428571 -1 3 C-1.721875 3.350625 -2.44375 3.70125 -3.1875 4.0625 C-6.3122705 5.10409017 -7.88161996 4.89096572 -11 4 C-10.01 3.67 -9.02 3.34 -8 3 C-8 2.34 -8 1.68 -8 1 C-5.15246248 -0.42376876 -3.1514535 -0.33173195 0 0 Z " fill="#5C7095" transform="translate(243,356)"/>
<path d="M0 0 C1.32 0.33 2.64 0.66 4 1 C3.505 2.155 3.01 3.31 2.5 4.5 C-0.8405975 14.56951531 0.06456743 26.25511934 4 36 C3.01 36.495 3.01 36.495 2 37 C0.5 35.6875 0.5 35.6875 -1 34 C-1 33.01 -1 32.02 -1 31 C-1.66 31 -2.32 31 -3 31 C-3.05786668 27.20839703 -3.09355054 23.41690689 -3.125 19.625 C-3.14175781 18.54476563 -3.15851563 17.46453125 -3.17578125 16.3515625 C-3.18222656 15.3203125 -3.18867188 14.2890625 -3.1953125 13.2265625 C-3.20578613 12.27346191 -3.21625977 11.32036133 -3.22705078 10.33837891 C-3 8 -3 8 -1 6 C-0.60235737 4.01178687 -0.26224651 2.01055661 0 0 Z " fill="#6683A8" transform="translate(249,283)"/>
<path d="M0 0 C2.59094622 0.35012787 4.5774211 0.73770965 6.8125 2.125 C8.78174056 5.2343272 8.46743249 7.38567946 8 11 C6.09488996 13.78990388 3.73258775 15.97429456 1.25 18.25 C0.61578125 18.86101562 -0.0184375 19.47203125 -0.671875 20.1015625 C-3.64345015 22.93694045 -6.62341663 25.64662371 -10 28 C-10 26.68 -10 25.36 -10 24 C-9.01 24 -8.02 24 -7 24 C-7 22.68 -7 21.36 -7 20 C-6.01 20 -5.02 20 -4 20 C-4 19.01 -4 18.02 -4 17 C-2.35570171 15.31126121 -0.68615782 13.64694485 1 12 C2.05287814 10.36622358 3.0727001 8.70818403 4 7 C2.02 3.535 2.02 3.535 0 0 Z " fill="#6A83A9" transform="translate(218,145)"/>
<path d="M0 0 C4.73702286 1.55275334 7.3089789 4.55790003 10.6640625 8.140625 C11.30472656 8.80384766 11.94539063 9.46707031 12.60546875 10.15039062 C14.1786017 11.78222256 15.73885484 13.42454896 17.2890625 15.078125 C15.9690625 15.408125 14.6490625 15.738125 13.2890625 16.078125 C13.2890625 15.418125 13.2890625 14.758125 13.2890625 14.078125 C12.2990625 13.748125 11.3090625 13.418125 10.2890625 13.078125 C10.2890625 12.418125 10.2890625 11.758125 10.2890625 11.078125 C8.9690625 10.748125 7.6490625 10.418125 6.2890625 10.078125 C6.2890625 9.088125 6.2890625 8.098125 6.2890625 7.078125 C3.35185742 5.55512977 0.3721976 4.27712198 -2.7109375 3.078125 C-3.3709375 4.398125 -4.0309375 5.718125 -4.7109375 7.078125 C-5.7009375 7.078125 -6.6909375 7.078125 -7.7109375 7.078125 C-7.7109375 8.068125 -7.7109375 9.058125 -7.7109375 10.078125 C-8.7009375 10.078125 -9.6909375 10.078125 -10.7109375 10.078125 C-11.0409375 11.398125 -11.3709375 12.718125 -11.7109375 14.078125 C-11.7109375 12.428125 -11.7109375 10.778125 -11.7109375 9.078125 C-11.0509375 9.078125 -10.3909375 9.078125 -9.7109375 9.078125 C-9.370625 8.2428125 -9.370625 8.2428125 -9.0234375 7.390625 C-6.81852568 3.50578036 -4.73485951 0.13645128 0 0 Z " fill="#5C7293" transform="translate(310.7109375,145.921875)"/>

<path d="M0 0 C2.875 0.625 2.875 0.625 4.75 2.625 C5.306875 3.615 5.306875 3.615 5.875 4.625 C4.740625 4.41875 3.60625 4.2125 2.4375 4 C-0.97873333 3.94529164 -1.96661047 4.48214385 -4.5546875 6.81640625 C-6.12357536 8.6244852 -7.65521538 10.46567811 -9.14453125 12.33984375 C-11.125 14.625 -11.125 14.625 -14.125 15.625 C-15.21666275 17.55830603 -15.21666275 17.55830603 -16.125 19.625 C-16.785 20.285 -17.445 20.945 -18.125 21.625 C-19.115 21.295 -20.105 20.965 -21.125 20.625 C-19.75 18.625 -19.75 18.625 -18.125 16.625 C-17.465 16.625 -16.805 16.625 -16.125 16.625 C-15.465 15.305 -14.805 13.985 -14.125 12.625 C-13.465 12.625 -12.805 12.625 -12.125 12.625 C-12.125 11.965 -12.125 11.305 -12.125 10.625 C-11.465 10.625 -10.805 10.625 -10.125 10.625 C-9.898125 10.08875 -9.67125 9.5525 -9.4375 9 C-5.01849112 1.00369822 -5.01849112 1.00369822 0 0 Z " fill="#566581" transform="translate(215.125,140.375)"/>
<path d="M0 0 C0.33 0 0.66 0 1 0 C1.47575672 9.54311999 -3.75742106 18.04982395 -10 25 C-15.13414634 30 -15.13414634 30 -18 30 C-17.67 28.68 -17.34 27.36 -17 26 C-15.68 25.67 -14.36 25.34 -13 25 C-12.90460938 24.41605469 -12.80921875 23.83210938 -12.7109375 23.23046875 C-11.84844298 20.52451066 -10.61794823 19.31806183 -8.625 17.3125 C-4.88794685 13.23780755 -3.29368661 9.32259635 -2 4 C-1.34 4 -0.68 4 0 4 C0 2.68 0 1.36 0 0 Z " fill="#5E748B" transform="translate(321,352)"/>
<path d="M0 0 C2.5 2.3125 2.5 2.3125 5 5 C5 5.99 5 6.98 5 8 C5.66 8 6.32 8 7 8 C8.3308911 10.66178221 8.11268993 12.68739396 8.09765625 15.6640625 C8.09443359 16.78554688 8.09121094 17.90703125 8.08789062 19.0625 C8.07951172 20.238125 8.07113281 21.41375 8.0625 22.625 C8.05798828 23.80835938 8.05347656 24.99171875 8.04882812 26.2109375 C8.03701467 29.14067507 8.02054258 32.07031272 8 35 C7.67 35 7.34 35 7 35 C6.85304688 33.11667969 6.85304688 33.11667969 6.703125 31.1953125 C6.12965936 17.12002438 6.12965936 17.12002438 0 5 C-0.04063832 3.33382885 -0.042721 1.66611905 0 0 Z " fill="#6983B1" transform="translate(296,278)"/>
<path d="M0 0 C4.97572219 3.1844622 8.18948147 6.24979941 11.58203125 11.0703125 C12.88744417 12.84682486 14.23213442 14.34444537 15.8125 15.875 C18 18 18 18 19 20 C12.0975809 19.33321891 8.33503042 13.95640915 4 9 C0 3.40203562 0 3.40203562 0 0 Z " fill="#5E7593" transform="translate(179,188)"/>
<path d="M0 0 C0.33 0 0.66 0 1 0 C1 1.65 1 3.3 1 5 C12.55 5.33 24.1 5.66 36 6 C36 6.33 36 6.66 36 7 C22.98287961 7.82461396 10.04227517 8.12368859 -3 8 C-3.33 6.35 -3.66 4.7 -4 3 C-3.01 2.67 -2.02 2.34 -1 2 C-0.67 1.34 -0.34 0.68 0 0 Z " fill="#395F78" transform="translate(207,169)"/>
<path d="M0 0 C2.475 0.495 2.475 0.495 5 1 C5.33 1.99 5.66 2.98 6 4 C6.66 4 7.32 4 8 4 C8 4.66 8 5.32 8 6 C8.7425 6.226875 9.485 6.45375 10.25 6.6875 C13.56201872 8.26823621 14.99479838 9.95506421 17 13 C17 13.99 17 14.98 17 16 C19.31 16.33 21.62 16.66 24 17 C23.34 17.66 22.68 18.32 22 19 C18.29144548 18.88808203 16.49456421 18.43682321 13.69140625 15.9609375 C12.98886719 15.10757813 12.28632813 14.25421875 11.5625 13.375 C8.26301958 9.47713923 4.89068838 5.8198244 1.21484375 2.27734375 C0 1 0 1 0 0 Z " fill="#53678B" transform="translate(195,208)"/>
<path d="M0 0 C-5.66569417 4.98581087 -12.37777299 5.30884206 -19.5625 5.1875 C-20.65594727 5.1865332 -20.65594727 5.1865332 -21.77148438 5.18554688 C-25.94828863 5.15171138 -29.88701397 4.81220103 -34 4 C-34 3.67 -34 3.34 -34 3 C-32.94872925 2.970271 -32.94872925 2.970271 -31.8762207 2.93994141 C-28.68794838 2.84443834 -25.50030853 2.73486129 -22.3125 2.625 C-20.65831055 2.57859375 -20.65831055 2.57859375 -18.97070312 2.53125 C-17.90400391 2.49257813 -16.83730469 2.45390625 -15.73828125 2.4140625 C-14.75899658 2.3826416 -13.77971191 2.3512207 -12.77075195 2.31884766 C-8.14973195 1.78707815 -4.77957007 -0.27311829 0 0 Z " fill="#515F73" transform="translate(291,344)"/>
<path d="M0 0 C3.19646865 1.06548955 3.73994333 1.60678294 5.75 4.125 C8.93938392 7.99553375 12.4085873 11.50421663 16 15 C14.109375 15.58203125 14.109375 15.58203125 12 16 C10.25 14.6875 10.25 14.6875 9 13 C9 12.34 9 11.68 9 11 C8.071875 10.8453125 8.071875 10.8453125 7.125 10.6875 C5 10 5 10 3 7 C3 6.01 3 5.02 3 4 C2.01 3.67 1.02 3.34 0 3 C0 2.01 0 1.02 0 0 Z " fill="#6B7FA2" transform="translate(204,191)"/>
<path d="M0 0 C0.33 0 0.66 0 1 0 C1.47345469 2.68290989 1.4187334 4.37916958 -0.125 6.66796875 C-2.86888222 9.67623546 -4.21971725 10.91330192 -8.375 11.375 C-9.24125 11.25125 -10.1075 11.1275 -11 11 C-10.34 10.67 -9.68 10.34 -9 10 C-9 8.68 -9 7.36 -9 6 C-8.360625 5.896875 -7.72125 5.79375 -7.0625 5.6875 C-6.381875 5.460625 -5.70125 5.23375 -5 5 C-4.67 4.01 -4.34 3.02 -4 2 C-2.68 2 -1.36 2 0 2 C0 1.34 0 0.68 0 0 Z " fill="#728FC0" transform="translate(298,333)"/>
<path d="M0 0 C1.0828125 1.11375 1.0828125 1.11375 2.1875 2.25 C6.19857608 6.17194106 9.64807562 9.1650545 15 11 C15 11.99 15 12.98 15 14 C12.03 13.01 9.06 12.02 6 11 C6 10.34 6 9.68 6 9 C4.68 8.34 3.36 7.68 2 7 C2 6.34 2 5.68 2 5 C1.34 5 0.68 5 0 5 C0 3.35 0 1.7 0 0 Z " fill="#677997" transform="translate(253,319)"/>
<path d="M0 0 C1.98 0.66 3.96 1.32 6 2 C6 2.66 6 3.32 6 4 C9.17053195 4.91658383 12.12823862 5.18832039 15.421875 5.31640625 C16.95908203 5.37924805 16.95908203 5.37924805 18.52734375 5.44335938 C19.59082031 5.48267578 20.65429688 5.52199219 21.75 5.5625 C22.82894531 5.60568359 23.90789062 5.64886719 25.01953125 5.69335938 C27.67956428 5.79928989 30.33968812 5.90136421 33 6 C33 6.33 33 6.66 33 7 C28.62535204 7.14564235 24.2513304 7.23419143 19.875 7.3125 C18.6375 7.35439453 17.4 7.39628906 16.125 7.43945312 C5.84607976 7.57761066 5.84607976 7.57761066 2.1328125 4.60546875 C0 2 0 2 0 0 Z " fill="#6B83A8" transform="translate(248,340)"/>
<path d="M0 0 C0 0.33 0 0.66 0 1 C-0.90492188 1.07347656 -0.90492188 1.07347656 -1.828125 1.1484375 C-2.62734375 1.22320312 -3.4265625 1.29796875 -4.25 1.375 C-5.43335938 1.47941406 -5.43335938 1.47941406 -6.640625 1.5859375 C-9.01118061 1.87877843 -9.01118061 1.87877843 -10.96875 3.03125 C-13.52676978 4.25122867 -15.43208454 4.19915567 -18.25 4.125 C-19.14203125 4.10695313 -20.0340625 4.08890625 -20.953125 4.0703125 C-21.96632812 4.03550781 -21.96632812 4.03550781 -23 4 C-23 4.66 -23 5.32 -23 6 C-23.66 5.67 -24.32 5.34 -25 5 C-24.67 4.01 -24.34 3.02 -24 2 C-15.96235969 -0.07422976 -8.27015524 -0.2144997 0 0 Z " fill="#7899CD" transform="translate(276,254)"/>
<path d="M0 0 C0.33 0.99 0.66 1.98 1 3 C-0.98 3.33 -2.96 3.66 -5 4 C-5 4.66 -5 5.32 -5 6 C-12.92 6.495 -12.92 6.495 -21 7 C-20.34 6.01 -19.68 5.02 -19 4 C-16.6796875 3.59375 -16.6796875 3.59375 -13.875 3.5 C-8.67382961 3.17792489 -4.76455584 2.06763744 0 0 Z " fill="#789BCD" transform="translate(302,379)"/>
<path d="M0 0 C0.66 0.33 1.32 0.66 2 1 C1.34 3.97 0.68 6.94 0 10 C0.99 10 1.98 10 3 10 C3.33 11.32 3.66 12.64 4 14 C4.99 14 5.98 14 7 14 C7.33 15.65 7.66 17.3 8 19 C3.11431972 17.37143991 0.60035975 13.31770964 -2 9 C-2.5625 5.0625 -2.5625 5.0625 -2 2 C-1.34 1.34 -0.68 0.68 0 0 Z " fill="#58698D" transform="translate(230,360)"/>
<path d="M0 0 C0.33 0.99 0.66 1.98 1 3 C0.67 3.66 0.34 4.32 0 5 C-0.99 5 -1.98 5 -3 5 C-3.33 5.99 -3.66 6.98 -4 8 C-6.21701147 9.58965571 -8.57862473 10.72327486 -11 12 C-11 9 -11 9 -9.1015625 6.9921875 C-8.28429687 6.29351562 -7.46703125 5.59484375 -6.625 4.875 C-5.81289062 4.17117188 -5.00078125 3.46734375 -4.1640625 2.7421875 C-2 1 -2 1 0 0 Z " fill="#6A83B0" transform="translate(251,256)"/>
<path d="M0 0 C-3.81880493 2.65361925 -6.40388544 3.38333436 -11.03515625 3.3984375 C-12.17404297 3.40230469 -13.31292969 3.40617187 -14.48632812 3.41015625 C-16.2565332 3.39275391 -16.2565332 3.39275391 -18.0625 3.375 C-19.24650391 3.38660156 -20.43050781 3.39820313 -21.65039062 3.41015625 C-22.78798828 3.40628906 -23.92558594 3.40242188 -25.09765625 3.3984375 C-26.13414307 3.39505371 -27.17062988 3.39166992 -28.23852539 3.38818359 C-31.33192124 2.95334146 -32.71011955 2.07086629 -35 0 C-34.28884033 0.15847412 -33.57768066 0.31694824 -32.8449707 0.48022461 C-30.02108366 0.99614802 -27.34701008 1.20430687 -24.48046875 1.31640625 C-23.45888672 1.35830078 -22.43730469 1.40019531 -21.38476562 1.44335938 C-20.32966797 1.48267578 -19.27457031 1.52199219 -18.1875 1.5625 C-16.57584961 1.62727539 -16.57584961 1.62727539 -14.93164062 1.69335938 C-12.28787918 1.79910983 -9.6440289 1.90120233 -7 2 C-7 1.34 -7 0.68 -7 0 C-3.98968256 -0.93423645 -3.13349732 -1.04449911 0 0 Z " fill="#779BD3" transform="translate(289,343)"/>
<path d="M0 0 C0.33 0 0.66 0 1 0 C1.12117187 0.85722656 1.24234375 1.71445312 1.3671875 2.59765625 C2.23855224 8.54304491 3.13815819 14.28148588 5 20 C4.34 20.33 3.68 20.66 3 21 C-1.14127424 11.45706371 -1.14127424 11.45706371 -1.125 5.875 C-1.12757813 4.98554688 -1.13015625 4.09609375 -1.1328125 3.1796875 C-1 1 -1 1 0 0 Z " fill="#53728B" transform="translate(248,299)"/>
<path d="M0 0 C1.3303125 0.4021875 1.3303125 0.4021875 2.6875 0.8125 C-1.0625 2.8125 -1.0625 2.8125 -3.3125 2.8125 C-3.9725 4.1325 -4.6325 5.4525 -5.3125 6.8125 C-6.3025 6.8125 -7.2925 6.8125 -8.3125 6.8125 C-8.3125 7.8025 -8.3125 8.7925 -8.3125 9.8125 C-9.3025 9.8125 -10.2925 9.8125 -11.3125 9.8125 C-11.6425 11.1325 -11.9725 12.4525 -12.3125 13.8125 C-12.3125 12.1625 -12.3125 10.5125 -12.3125 8.8125 C-11.6525 8.8125 -10.9925 8.8125 -10.3125 8.8125 C-9.9721875 7.9771875 -9.9721875 7.9771875 -9.625 7.125 C-7.18104315 2.81898079 -5.21348658 -0.29510301 0 0 Z " fill="#5B6F8B" transform="translate(311.3125,146.1875)"/>
<path d="M0 0 C3.875 1.75 3.875 1.75 5 4 C5.5 7.25 5.5 7.25 5 11 C2.92659758 13.37922928 0.58355373 15.20073936 -2 17 C-1.67 15.68 -1.34 14.36 -1 13 C-0.34 13 0.32 13 1 13 C2.0070238 7.96488101 1.97387813 4.76052962 0 0 Z " fill="#5E6C83" transform="translate(221,145)"/>
<path d="M0 0 C1.175625 0.01353516 1.175625 0.01353516 2.375 0.02734375 C4.29180055 0.05071937 6.20844191 0.08658347 8.125 0.125 C8.125 0.455 8.125 0.785 8.125 1.125 C7.25617188 1.17398438 6.38734375 1.22296875 5.4921875 1.2734375 C4.33976562 1.34820312 3.18734375 1.42296875 2 1.5 C0.29457031 1.60441406 0.29457031 1.60441406 -1.4453125 1.7109375 C-4.83765497 2.12049137 -7.65341875 3.02753826 -10.875 4.125 C-13.58561275 4.35163986 -16.14648292 4.2190868 -18.875 4.125 C-12.52907413 0.70796299 -7.0863953 -0.15614091 0 0 Z " fill="#5F7085" transform="translate(270.875,251.875)"/>
<path d="M0 0 C0.99 0.66 1.98 1.32 3 2 C2.69128878 3.79232337 2.37790936 5.58384321 2.0625 7.375 C1.88847656 8.37273437 1.71445312 9.37046875 1.53515625 10.3984375 C1 13 1 13 0 15 C-0.66 15 -1.32 15 -2 15 C-2 14.01 -2 13.02 -2 12 C-1.34 12 -0.68 12 0 12 C-0.33 11.34 -0.66 10.68 -1 10 C-1.1328125 8.125 -1.1328125 8.125 -1.125 6 C-1.12886719 4.948125 -1.12886719 4.948125 -1.1328125 3.875 C-1 2 -1 2 0 0 Z " fill="#4E5B85" transform="translate(302,255)"/>
<path d="M0 0 C0.556875 0.268125 1.11375 0.53625 1.6875 0.8125 C1.0275 0.8125 0.3675 0.8125 -0.3125 0.8125 C-0.6425 1.8025 -0.9725 2.7925 -1.3125 3.8125 C-2.9584651 5.49961423 -4.62487149 7.1670622 -6.3125 8.8125 C-6.6425 9.4725 -6.9725 10.1325 -7.3125 10.8125 C-8.3025 10.4825 -9.2925 10.1525 -10.3125 9.8125 C-4.77551775 -0.38720414 -4.77551775 -0.38720414 0 0 Z " fill="#61769C" transform="translate(195.3125,162.1875)"/>
<path d="M0 0 C0.33 0.66 0.66 1.32 1 2 C-1.40983607 6.70491803 -1.40983607 6.70491803 -4 8 C-4.66 7.67 -5.32 7.34 -6 7 C-6.0825 7.61875 -6.165 8.2375 -6.25 8.875 C-7 11 -7 11 -9.0625 12.25 C-9.701875 12.4975 -10.34125 12.745 -11 13 C-9.43638038 9.16202456 -6.97489917 6.8332373 -4 4 C-3.236875 3.236875 -2.47375 2.47375 -1.6875 1.6875 C-1.130625 1.130625 -0.57375 0.57375 0 0 Z " fill="#7B9CD3" transform="translate(208,150)"/>

<path d="M0 0 C0.66 0.33 1.32 0.66 2 1 C2.05399736 2.45792884 2.09279177 3.91642712 2.125 5.375 C2.14820313 6.18710937 2.17140625 6.99921875 2.1953125 7.8359375 C2 10 2 10 0 12 C-0.39764263 13.98821313 -0.73775349 15.98944339 -1 18 C-1.66 18 -2.32 18 -3 18 C-2.01 12.06 -1.02 6.12 0 0 Z " fill="#546783" transform="translate(301,343)"/>
<path d="M0 0 C0 3.41761705 -0.75938546 5.82954062 -2 9 C-2.99 9.495 -2.99 9.495 -4 10 C-4.495 11.155 -4.99 12.31 -5.5 13.5 C-7 17 -7 17 -9 18 C-8.57781184 16.3501725 -8.13675575 14.70516335 -7.6875 13.0625 C-7.44386719 12.14597656 -7.20023438 11.22945313 -6.94921875 10.28515625 C-6.63597656 9.53105469 -6.32273438 8.77695312 -6 8 C-5.01 7.67 -4.02 7.34 -3 7 C-1.84164327 4.02496878 -1.84164327 4.02496878 -1 1 C-0.67 0.67 -0.34 0.34 0 0 Z " fill="#7697CC" transform="translate(239,268)"/>
<path d="M0 0 C4.24822374 0.47202486 6.19989709 2.96655518 9 6 C9 5.01 9 4.02 9 3 C9.99 3.33 10.98 3.66 12 4 C11.34 4 10.68 4 10 4 C9.67 5.32 9.34 6.64 9 8 C6.75 7.9375 6.75 7.9375 4 7 C2.32150176 4.7691525 1.24000737 2.52594094 0 0 Z " fill="#7A9FD5" transform="translate(208,216)"/>
<path d="M0 0 C0.99 0 1.98 0 3 0 C3.226875 0.721875 3.45375 1.44375 3.6875 2.1875 C5.24831013 5.53209313 7.3031287 7.51603959 10 10 C8.68 9.67 7.36 9.34 6 9 C6 8.34 6 7.68 6 7 C5.195625 6.855625 4.39125 6.71125 3.5625 6.5625 C1 6 1 6 0 5 C-0.04063832 3.33382885 -0.042721 1.66611905 0 0 Z " fill="#6C82AF" transform="translate(300,156)"/>
<path d="M0 0 C-4.64203897 2.53309233 -8.65155992 4.46515599 -14 5 C-14.33 4.01 -14.66 3.02 -15 2 C-12.03 2 -9.06 2 -6 2 C-6 1.34 -6 0.68 -6 0 C-3.50907189 -1.24546405 -2.58919267 -0.7767578 0 0 Z " fill="#576B85" transform="translate(303,383)"/>
<path d="M0 0 C0.66 0 1.32 0 2 0 C1.67 3.3 1.34 6.6 1 10 C0.34 10 -0.32 10 -1 10 C-1.33 12.31 -1.66 14.62 -2 17 C-2.33 17 -2.66 17 -3 17 C-2.48517081 11.147205 -1.54642808 5.6702363 0 0 Z " fill="#687FA2" transform="translate(320,346)"/>
<path d="M0 0 C0.66 0 1.32 0 2 0 C2 0.66 2 1.32 2 2 C6.455 1.505 6.455 1.505 11 1 C8.75 3.5625 8.75 3.5625 6 6 C3.8125 6.125 3.8125 6.125 2 5 C0.75 2.4375 0.75 2.4375 0 0 Z " fill="#495D7E" transform="translate(305,217)"/>
<path d="M0 0 C1.6074328 0.93188881 3.21082799 1.87074435 4.8125 2.8125 C5.70582031 3.33457031 6.59914062 3.85664063 7.51953125 4.39453125 C9.66831987 5.78532199 11.29361617 7.1122066 13 9 C10.03 8.505 10.03 8.505 7 8 C7 7.34 7 6.68 7 6 C5.35 6 3.7 6 2 6 C1.34 4.02 0.68 2.04 0 0 Z " fill="#5E778F" transform="translate(247,362)"/>
<path d="M0 0 C0.33 0 0.66 0 1 0 C1.6319296 6.00333124 -0.62455877 10.63404795 -3 16 C-3.33 16 -3.66 16 -4 16 C-3.85904936 14.3745692 -3.71207913 12.74965949 -3.5625 11.125 C-3.48128906 10.22007812 -3.40007812 9.31515625 -3.31640625 8.3828125 C-3 6 -3 6 -2 4 C-1.34 4 -0.68 4 0 4 C0 2.68 0 1.36 0 0 Z " fill="#525F71" transform="translate(321,352)"/>
<path d="M0 0 C0.103125 0.639375 0.20625 1.27875 0.3125 1.9375 C0.539375 2.618125 0.76625 3.29875 1 4 C1.99 4.33 2.98 4.66 4 5 C5.25 6.8125 5.25 6.8125 6 9 C5.546875 11.13671875 5.546875 11.13671875 5 13 C3.96679519 11.40377344 2.94877571 9.79770894 1.9375 8.1875 C1.36902344 7.29417969 0.80054688 6.40085937 0.21484375 5.48046875 C-1 3 -1 3 0 0 Z " fill="#4F6581" transform="translate(232,322)"/>
<path d="M0 0 C5.5 -0.36666667 5.5 -0.36666667 7.875 1.375 C9 3 9 3 9 5 C9.66 5 10.32 5 11 5 C10.67 6.32 10.34 7.64 10 9 C10 8.34 10 7.68 10 7 C9.34 7 8.68 7 8 7 C8 6.34 8 5.68 8 5 C7.4225 4.731875 6.845 4.46375 6.25 4.1875 C3.9674132 2.98280141 2.0262058 1.59201885 0 0 Z " fill="#556C8A" transform="translate(285,273)"/>
<path d="M0 0 C7.66742597 5.0022779 7.66742597 5.0022779 9 9 C7.35 9 5.7 9 4 9 C0 2.25 0 2.25 0 0 Z " fill="#6381AA" transform="translate(179,188)"/>
<path d="M0 0 C0.66 0 1.32 0 2 0 C1.67 1.32 1.34 2.64 1 4 C0.34 4 -0.32 4 -1 4 C-0.979375 4.94875 -0.95875 5.8975 -0.9375 6.875 C-1 10 -1 10 -2 12 C-2.99 12 -3.98 12 -5 12 C-4.67 10.68 -4.34 9.36 -4 8 C-3.34 8 -2.68 8 -2 8 C-2.061875 6.576875 -2.061875 6.576875 -2.125 5.125 C-2 2 -2 2 0 0 Z " fill="#7797C6" transform="translate(302,353)"/>
<path d="M0 0 C1 2 1 2 1 6 C1.61875 6.20625 2.2375 6.4125 2.875 6.625 C5.84653645 8.54775888 6.13024659 10.66594527 7 14 C5.85373678 13.02133662 4.70800212 12.04205413 3.5625 11.0625 C2.92441406 10.51722656 2.28632813 9.97195312 1.62890625 9.41015625 C0.73008851 8.63204305 -0.15936528 7.84063472 -1 7 C-1.125 4 -1.125 4 -1 1 C-0.67 0.67 -0.34 0.34 0 0 Z " fill="#556076" transform="translate(174,180)"/>
<path d="M0 0 C0.33 1.32 0.66 2.64 1 4 C-1.12055614 7.1808342 -2.63050557 8.31525278 -6 10 C-6.66 9.67 -7.32 9.34 -8 9 C-5.36 6.03 -2.72 3.06 0 0 Z " fill="#6A81A5" transform="translate(316,365)"/>
<path d="M0 0 C0.99 0 1.98 0 3 0 C3.33 0.66 3.66 1.32 4 2 C4.845625 2.45375 5.69125 2.9075 6.5625 3.375 C7.366875 3.91125 8.17125 4.4475 9 5 C9 6.32 9 7.64 9 9 C7.87105124 8.06725891 6.74699124 7.12859878 5.625 6.1875 C4.99851562 5.66542969 4.37203125 5.14335937 3.7265625 4.60546875 C2 3 2 3 0 0 Z " fill="#566983" transform="translate(303,163)"/>
<path d="M0 0 C4.45783133 -0.36144578 4.45783133 -0.36144578 6.6875 1.125 C8.41654062 3.59505803 9.16764025 6.11875472 10 9 C9.01 8.67 8.02 8.34 7 8 C7 7.01 7 6.02 7 5 C6.401875 4.731875 5.80375 4.46375 5.1875 4.1875 C3.02775192 3.01506533 1.64209744 1.80630718 0 0 Z " fill="#6B81A7" transform="translate(310,148)"/>
<path d="M0 0 C-3.33333333 2.66666667 -6.66666667 5.33333333 -10 8 C-9.67372714 4.98197607 -9.38918764 3.40308719 -7.25 1.1875 C-4.62847443 -0.19608294 -2.92325122 -0.24360427 0 0 Z " fill="#586984" transform="translate(264,273)"/>
<path d="M0 0 C3.875 1.75 3.875 1.75 5 4 C7.52733235 4.65555119 7.52733235 4.65555119 10 5 C10.33 4.34 10.66 3.68 11 3 C11.33 3.99 11.66 4.98 12 6 C7.545 6.495 7.545 6.495 3 7 C3 5.68 3 4.36 3 3 C2.34 3 1.68 3 1 3 C0.67 2.01 0.34 1.02 0 0 Z " fill="#6E8DBE" transform="translate(304,212)"/>
<path d="M0 0 C2.25 -0.25 2.25 -0.25 5 0 C7.3125 2 7.3125 2 9 4 C8.67 4.66 8.34 5.32 8 6 C6.68 5.67 5.36 5.34 4 5 C4 4.34 4 3.68 4 3 C2.68 2.34 1.36 1.68 0 1 C0 0.67 0 0.34 0 0 Z " fill="#5E6F87" transform="translate(217,207)"/>
<path d="M0 0 C0.66 0 1.32 0 2 0 C0.8141763 3.37503669 -0.27573689 5.64722731 -3 8 C-3.99 7.67 -4.98 7.34 -6 7 C-4.625 5 -4.625 5 -3 3 C-2.34 3 -1.68 3 -1 3 C-0.67 2.01 -0.34 1.02 0 0 Z " fill="#52617B" transform="translate(200,154)"/>
<path d="M0 0 C0 3.71594733 -0.61835808 5.15739513 -3 8 C-6.6875 8.3125 -6.6875 8.3125 -10 8 C-9.01 7.34 -8.02 6.68 -7 6 C-5.75812117 4.97352199 -4.5292978 3.93108866 -3.3125 2.875 C-2.68988281 2.33617187 -2.06726563 1.79734375 -1.42578125 1.2421875 C-0.95527344 0.83226562 -0.48476563 0.42234375 0 0 Z " fill="#52627B" transform="translate(295,322)"/>
<path d="M0 0 C0.66 0 1.32 0 2 0 C2 0.66 2 1.32 2 2 C2.66 2 3.32 2 4 2 C5.625 4 5.625 4 7 6 C6.67 6.66 6.34 7.32 6 8 C4.68 7.67 3.36 7.34 2 7 C2 5.68 2 4.36 2 3 C1.34 3 0.68 3 0 3 C0 2.01 0 1.02 0 0 Z " fill="#576987" transform="translate(293,259)"/>
<path d="M0 0 C3.34998521 1.11666174 3.79340222 1.74694925 5.6875 4.5625 C6.12449219 5.20316406 6.56148437 5.84382812 7.01171875 6.50390625 C7.33785156 6.99761719 7.66398438 7.49132812 8 8 C6.35 7.67 4.7 7.34 3 7 C3 6.01 3 5.02 3 4 C2.01 3.67 1.02 3.34 0 3 C0 2.01 0 1.02 0 0 Z " fill="#597494" transform="translate(204,191)"/>

<path d="M0 0 C2.74148672 0.37047118 4.58593199 0.68587944 6.8125 2.375 C8 4 8 4 8 7 C6.0625 6.25 6.0625 6.25 4 5 C3.63837971 3.67405895 3.30271961 2.34061543 3 1 C2.01 0.67 1.02 0.34 0 0 Z " fill="#7EA3D4" transform="translate(213,144)"/>
<path d="M0 0 C-3.42346555 3.14958831 -6.44262737 3.56179109 -11 4 C-10 2 -10 2 -7.75 0.875 C-4.98386705 -0.00513321 -2.87951649 -0.1645438 0 0 Z " fill="#5D6981" transform="translate(291,344)"/>
<path d="M0 0 C1.98 0.99 1.98 0.99 4 2 C4 3.32 4 4.64 4 6 C4.66 6 5.32 6 6 6 C6 6.66 6 7.32 6 8 C2.97984943 6.99328314 1.90683422 6.451644 0 4 C0 2.68 0 1.36 0 0 Z " fill="#64789C" transform="translate(289,256)"/>
<path d="M0 0 C0.33 0.66 0.66 1.32 1 2 C-0.125 4.625 -0.125 4.625 -2 7 C-4.6875 7.3125 -4.6875 7.3125 -7 7 C-5.625 5.5 -5.625 5.5 -4 4 C-3.34 4 -2.68 4 -2 4 C-1.34 2.68 -0.68 1.36 0 0 Z " fill="#677992" transform="translate(297,361)"/>
<path d="M0 0 C1.125 3.75 1.125 3.75 0 6 C-2.375 5.75 -2.375 5.75 -5 5 C-6.3125 2.9375 -6.3125 2.9375 -7 1 C-5.68 1.33 -4.36 1.66 -3 2 C-3 2.99 -3 3.98 -3 5 C-2.34 5 -1.68 5 -1 5 C-0.67 3.35 -0.34 1.7 0 0 Z " fill="#748EBE" transform="translate(303,265)"/>
<path d="M0 0 C3.63 0 7.26 0 11 0 C11.33 0.99 11.66 1.98 12 3 C6.06 2.01 6.06 2.01 0 1 C0 0.67 0 0.34 0 0 Z " fill="#57728E" transform="translate(273,270)"/>
<path d="M0 0 C0.33 0.99 0.66 1.98 1 3 C-0.2065625 3.433125 -0.2065625 3.433125 -1.4375 3.875 C-4.1326468 4.73262568 -4.1326468 4.73262568 -5 7 C-5.99 6.67 -6.98 6.34 -8 6 C-5.36 4.02 -2.72 2.04 0 0 Z " fill="#5C6B89" transform="translate(251,256)"/>
<path d="M0 0 C0 0.33 0 0.66 0 1 C-1.65 1.33 -3.3 1.66 -5 2 C-5.33 2.99 -5.66 3.98 -6 5 C-7.65 4.67 -9.3 4.34 -11 4 C-10.01 3.67 -9.02 3.34 -8 3 C-8 2.34 -8 1.68 -8 1 C-5.29120665 -0.35439668 -2.99066732 -0.06501451 0 0 Z " fill="#536178" transform="translate(243,356)"/>
<path d="M0 0 C1.32 0.33 2.64 0.66 4 1 C0.535 3.97 0.535 3.97 -3 7 C-3 5.68 -3 4.36 -3 3 C-2.01 3 -1.02 3 0 3 C0 2.01 0 1.02 0 0 Z " fill="#4B5F78" transform="translate(295,337)"/>
<path d="M0 0 C0.33 0 0.66 0 1 0 C1 1.65 1 3.3 1 5 C0.34 5 -0.32 5 -1 5 C-1.28875 5.639375 -1.5775 6.27875 -1.875 6.9375 C-3 9 -3 9 -5 10 C-3.33333333 6.66666667 -1.66666667 3.33333333 0 0 Z " fill="#637697" transform="translate(298,318)"/>
<path d="M0 0 C3.2542015 2.83430453 4.5206753 4.68607774 5 9 C4.01 8.34 3.02 7.68 2 7 C2 6.34 2 5.68 2 5 C1.34 5 0.68 5 0 5 C0 3.35 0 1.7 0 0 Z " fill="#627391" transform="translate(253,319)"/>
<path d="M0 0 C0.66 1.32 1.32 2.64 2 4 C1.071875 4.12375 1.071875 4.12375 0.125 4.25 C-2.18437567 4.81258459 -2.18437567 4.81258459 -3.25 7.0625 C-3.4975 7.701875 -3.745 8.34125 -4 9 C-4.66 8.67 -5.32 8.34 -6 8 C-4.625 6 -4.625 6 -3 4 C-2.34 4 -1.68 4 -1 4 C-0.67 2.68 -0.34 1.36 0 0 Z " fill="#82A0D5" transform="translate(300,319)"/>
<path d="M0 0 C0.99 0.33 1.98 0.66 3 1 C2.67 1.99 2.34 2.98 2 4 C-0.64 4 -3.28 4 -6 4 C-6.33 3.34 -6.66 2.68 -7 2 C-5.02 2 -3.04 2 -1 2 C-0.67 1.34 -0.34 0.68 0 0 Z " fill="#586F8A" transform="translate(218,221)"/>
<path d="M0 0 C2.5 1.3125 2.5 1.3125 5 3 C5 3.99 5 4.98 5 6 C3.68 5.67 2.36 5.34 1 5 C0.67 3.35 0.34 1.7 0 0 Z " fill="#63718D" transform="translate(341,175)"/>


<path d="M0 0 C1.32 0 2.64 0 4 0 C4 2.64 4 5.28 4 8 C3.67 8 3.34 8 3 8 C2.67 6.35 2.34 4.7 2 3 C1.01 3.495 1.01 3.495 0 4 C0 2.68 0 1.36 0 0 Z " fill="#617399" transform="translate(299,333)"/>
<path d="M0 0 C2.31 0 4.62 0 7 0 C6.67 1.32 6.34 2.64 6 4 C4.02 3.34 2.04 2.68 0 2 C0 1.34 0 0.68 0 0 Z " fill="#7295C6" transform="translate(282,256)"/>
<path d="M0 0 C2.475 0.495 2.475 0.495 5 1 C5.33 2.65 5.66 4.3 6 6 C5.01 5.67 4.02 5.34 3 5 C3 4.34 3 3.68 3 3 C2.34 3 1.68 3 1 3 C0.67 2.01 0.34 1.02 0 0 Z " fill="#799ACF" transform="translate(200,209)"/>
<path d="M0 0 C0.66 0 1.32 0 2 0 C2.33 1.65 2.66 3.3 3 5 C1.68 5.99 0.36 6.98 -1 8 C-1 5.16032769 -0.59732819 2.76264289 0 0 Z " fill="#7C9ED7" transform="translate(342,180)"/>
<path d="M0 0 C1.32 0.33 2.64 0.66 4 1 C2.824375 1.928125 2.824375 1.928125 1.625 2.875 C-0.96837647 4.89858661 -0.96837647 4.89858661 -3 7 C-3 5.68 -3 4.36 -3 3 C-2.01 3 -1.02 3 0 3 C0 2.01 0 1.02 0 0 Z " fill="#596D8A" transform="translate(211,166)"/>
</svg>
