<?xml version="1.0" encoding="UTF-8"?>
<svg version="1.1" xmlns="http://www.w3.org/2000/svg" width="500" height="500" viewBox="0 0 500 500">
<path d="M0 0 C109.56 0 219.12 0 332 0 C332 6.93 332 13.86 332 21 C239.93 21.33 147.86 21.66 53 22 C55.31 23.98 57.62 25.96 60 28 C60 28.66 60 29.32 60 30 C60.66 30 61.32 30 62 30 C62 30.66 62 31.32 62 32 C62.58354248 32.26119629 63.16708496 32.52239258 63.76831055 32.79150391 C67.71782362 34.9302294 70.64425958 38.23353345 73.8125 41.375 C74.87114258 42.38433594 74.87114258 42.38433594 75.95117188 43.4140625 C76.61310547 44.06890625 77.27503906 44.72375 77.95703125 45.3984375 C78.56522705 45.99317871 79.17342285 46.58791992 79.80004883 47.20068359 C81 49 81 49 80.83569336 51.03442383 C79.4529122 54.28676712 77.09822701 56.72822406 74.75 59.3125 C74.03263672 60.15651367 74.03263672 60.15651367 73.30078125 61.01757812 C71.859375 62.61328125 71.859375 62.61328125 69 65 C65.34312239 64.98946145 64.3287683 64.30281291 61.625 61.8125 C60.75875 60.884375 59.8925 59.95625 59 59 C57.14001988 57.41571631 55.25575128 55.86765402 53.35546875 54.33203125 C52.90816406 53.89246094 52.46085937 53.45289063 52 53 C52 52.34 52 51.68 52 51 C51.34 51 50.68 51 50 51 C50 50.34 50 49.68 50 49 C49.18909912 48.67914429 49.18909912 48.67914429 48.36181641 48.35180664 C45.1513235 46.51425245 42.77127229 43.99770951 40.2109375 41.37109375 C39.66643951 40.8213942 39.12194153 40.27169464 38.5609436 39.70533752 C36.82746221 37.95408824 35.10083449 36.19628312 33.375 34.4375 C31.64115848 32.67604189 29.90587817 30.91606377 28.16763306 29.15895081 C27.08752633 28.06658495 26.01010397 26.97155704 24.93563843 25.87364197 C22.23686511 23.08448055 22.23686511 23.08448055 19 21 C19 20.34 19 19.68 19 19 C18.34 19 17.68 19 17 19 C17 18.34 17 17.68 17 17 C16.40670898 16.73123047 15.81341797 16.46246094 15.20214844 16.18554688 C12.99459967 14.99709268 11.53457118 13.79257611 9.765625 12.03125 C8.90517578 11.17466797 8.90517578 11.17466797 8.02734375 10.30078125 C7.44082031 9.70652344 6.85429688 9.11226563 6.25 8.5 C5.64800781 7.90574219 5.04601562 7.31148438 4.42578125 6.69921875 C3.85730469 6.12816406 3.28882812 5.55710937 2.703125 4.96875 C2.18395508 4.44732422 1.66478516 3.92589844 1.12988281 3.38867188 C0 2 0 2 0 0 Z " fill="#5DC5D2" transform="translate(84,330)"/>
<path d="M0 0 C3.77085472 1.2658535 5.92808976 3.7109136 8.5703125 6.55078125 C9.64128856 7.66332969 10.7141997 8.77401869 11.7890625 9.8828125 C12.30339844 10.41600098 12.81773437 10.94918945 13.34765625 11.49853516 C15.00999122 13.18101615 16.75567134 14.72210081 18.5703125 16.23828125 C22.69488235 19.74027452 26.45328679 23.58462452 30.2578125 27.42578125 C35.88891877 33.10585366 41.61148947 38.51303845 47.7890625 43.59765625 C48.43875 44.1390625 49.0884375 44.68046875 49.7578125 45.23828125 C50.3353125 45.70878906 50.9128125 46.17929688 51.5078125 46.6640625 C52.7578125 47.92578125 52.7578125 47.92578125 52.7578125 49.92578125 C53.29921875 50.14234375 53.840625 50.35890625 54.3984375 50.58203125 C57.57426594 52.39078122 59.96509331 54.84301924 62.5078125 57.42578125 C63.01441406 57.92464844 63.52101563 58.42351562 64.04296875 58.9375 C67.7578125 62.67236986 67.7578125 62.67236986 67.7578125 64.92578125 C-41.8021875 64.92578125 -151.3621875 64.92578125 -264.2421875 64.92578125 C-264.2421875 57.99578125 -264.2421875 51.06578125 -264.2421875 43.92578125 C-172.5021875 43.59578125 -80.7621875 43.26578125 13.7578125 42.92578125 C2.50622314 31.56107166 2.50622314 31.56107166 -9.2421875 20.92578125 C-11.08825545 19.32070247 -12.63173744 17.78786414 -14.2421875 15.92578125 C-14.2421875 14.60578125 -14.2421875 13.28578125 -14.2421875 11.92578125 C-13.5821875 11.92578125 -12.9221875 11.92578125 -12.2421875 11.92578125 C-11.9121875 10.93578125 -11.5821875 9.94578125 -11.2421875 8.92578125 C-10.5821875 8.92578125 -9.9221875 8.92578125 -9.2421875 8.92578125 C-9.2421875 8.26578125 -9.2421875 7.60578125 -9.2421875 6.92578125 C-8.5821875 6.92578125 -7.9221875 6.92578125 -7.2421875 6.92578125 C-6.84 6.02859375 -6.84 6.02859375 -6.4296875 5.11328125 C-3.58940768 -0.11881315 -3.58940768 -0.11881315 0 0 Z " fill="#5DC4D2" transform="translate(348.2421875,105.07421875)"/>
<path d="M0 0 C6.93 0 13.86 0 21 0 C22.1650499 2.3300998 22.1209358 3.67247077 22.11352539 6.26611328 C22.11344986 7.14687531 22.11337433 8.02763733 22.11329651 8.93508911 C22.10813522 9.88721283 22.10297394 10.83933655 22.09765625 11.8203125 C22.0962413 12.79410858 22.09482635 13.76790466 22.09336853 14.77120972 C22.08775973 17.88917073 22.07520573 21.0070606 22.0625 24.125 C22.05748613 26.23567605 22.05292303 28.34635322 22.04882812 30.45703125 C22.03863725 35.63807047 22.01906353 40.81895535 22 46 C42.295 46.495 42.295 46.495 63 47 C63 31.49 63 15.98 63 0 C69.93 0 76.86 0 84 0 C85.58048529 1.58048529 85.12597951 3.17170572 85.12698364 5.36547852 C85.13121338 6.77895065 85.13121338 6.77895065 85.13552856 8.22097778 C85.13249222 9.78415237 85.13249222 9.78415237 85.12939453 11.37890625 C85.13202301 13.0153157 85.13202301 13.0153157 85.13470459 14.68478394 C85.13912563 18.31070521 85.13618422 21.93657818 85.1328125 25.5625 C85.13348547 28.06974293 85.13445543 30.57698581 85.13571167 33.08422852 C85.13718899 38.34684751 85.1351276 43.60945382 85.13037109 48.87207031 C85.12492851 54.96428202 85.12669118 61.05646026 85.1321975 67.14867115 C85.13727443 72.99901018 85.13674705 78.84933645 85.13381577 84.69967651 C85.13314624 87.19408167 85.13397579 89.68848768 85.13629532 92.18289185 C85.13882036 95.66231586 85.13498334 99.14167462 85.12939453 102.62109375 C85.13141876 103.66321014 85.13344299 104.70532654 85.13552856 105.77902222 C85.13270874 106.72133698 85.12988892 107.66365173 85.12698364 108.63452148 C85.1264181 109.87008034 85.1264181 109.87008034 85.12584114 111.13059998 C85 113 85 113 84 114 C82.52347336 114.09880797 81.04232764 114.13079245 79.5625 114.1328125 C78.22058594 114.13474609 78.22058594 114.13474609 76.8515625 114.13671875 C75.44003906 114.13091797 75.44003906 114.13091797 74 114.125 C72.58847656 114.13080078 72.58847656 114.13080078 71.1484375 114.13671875 C70.25382812 114.13542969 69.35921875 114.13414062 68.4375 114.1328125 C67.61121094 114.13168457 66.78492188 114.13055664 65.93359375 114.12939453 C64 114 64 114 63 113 C62.90688111 111.49581261 62.88253972 109.98728644 62.88647461 108.48022461 C62.88655014 107.51930405 62.88662567 106.55838348 62.88670349 105.56834412 C62.89186478 104.523564 62.89702606 103.47878387 62.90234375 102.40234375 C62.9037587 101.33834854 62.90517365 100.27435333 62.90663147 99.17811584 C62.91224936 95.76454917 62.92480489 92.351047 62.9375 88.9375 C62.94251269 86.62955824 62.947076 84.32161545 62.95117188 82.01367188 C62.96137567 76.34240279 62.98094757 70.67127399 63 65 C49.14 65 35.28 65 21 65 C21.495 65.99 21.495 65.99 22 67 C22.09462567 68.47554416 22.12794177 69.95526341 22.12939453 71.43383789 C22.13254669 72.35141373 22.13569885 73.26898956 22.13894653 74.21437073 C22.1369223 75.20710495 22.13489807 76.19983917 22.1328125 77.22265625 C22.13424759 78.746381 22.13424759 78.746381 22.13571167 80.30088806 C22.13639289 82.45034853 22.13454261 84.59981105 22.13037109 86.74926758 C22.12501655 90.05229272 22.13032088 93.35518221 22.13671875 96.65820312 C22.13605807 98.7421878 22.13477711 100.82617239 22.1328125 102.91015625 C22.13483673 103.9049147 22.13686096 104.89967316 22.13894653 105.92457581 C22.13579437 106.83899948 22.13264221 107.75342316 22.12939453 108.69555664 C22.12859894 109.50448868 22.12780334 110.31342072 22.12698364 111.14686584 C22 113 22 113 21 114 C14.07 114 7.14 114 0 114 C0 76.38 0 38.76 0 0 Z " fill="#5FC5D2" transform="translate(84,193)"/>
<path d="M0 0 C0.98225052 -0.00960754 1.96450104 -0.01921509 2.97651672 -0.02911377 C4.58565193 -0.03548859 4.58565193 -0.03548859 6.22729492 -0.04199219 C7.32941818 -0.04769226 8.43154144 -0.05339233 9.56706238 -0.05926514 C11.91172317 -0.06873922 14.25639743 -0.07525862 16.60107422 -0.07910156 C20.15446128 -0.08872286 23.70724902 -0.11968815 27.26049805 -0.15136719 C29.54109358 -0.15790555 31.82169325 -0.16315274 34.10229492 -0.16699219 C35.67803032 -0.18551239 35.67803032 -0.18551239 37.28559875 -0.20440674 C48.02965462 -0.17269939 57.67149999 1.67945793 66.39526367 8.16113281 C67.28213867 8.75925781 68.16901367 9.35738281 69.08276367 9.97363281 C75.20208369 15.76217878 78.28613788 23.02150829 78.73120117 31.43066406 C78.99658139 44.58204715 77.26572999 53.13242681 67.89916992 62.96191406 C64.09458682 66.30353698 60.0801764 68.31947746 55.39526367 70.16113281 C54.42588867 70.57363281 53.45651367 70.98613281 52.45776367 71.41113281 C42.49199094 73.85173022 31.33428746 73.96590259 21.19287109 72.65283203 C19.31305542 72.40944092 19.31305542 72.40944092 17.39526367 72.16113281 C17.4031189 74.01629517 17.4031189 74.01629517 17.41113281 75.90893555 C17.42917928 80.48038006 17.44069438 85.0518214 17.45019531 89.62329102 C17.45523634 91.60506723 17.46206905 93.5868397 17.47070312 95.56860352 C17.48277882 98.4106539 17.48849412 101.25265529 17.49291992 104.09472656 C17.49808121 104.98639023 17.50324249 105.87805389 17.50856018 106.79673767 C17.50875544 108.91853883 17.45736397 111.04024061 17.39526367 113.16113281 C15.77325852 114.78313796 13.97503337 114.29104031 11.73901367 114.29394531 C10.32942383 114.29587891 10.32942383 114.29587891 8.89135742 114.29785156 C7.40829102 114.29205078 7.40829102 114.29205078 5.89526367 114.28613281 C4.90655273 114.29 3.9178418 114.29386719 2.89916992 114.29785156 C1.95944336 114.2965625 1.0197168 114.29527344 0.05151367 114.29394531 C-0.81666992 114.29281738 -1.68485352 114.29168945 -2.5793457 114.29052734 C-4.60473633 114.16113281 -4.60473633 114.16113281 -5.60473633 113.16113281 C-5.70251247 111.70864506 -5.73105364 110.25142914 -5.73171997 108.7956543 C-5.73453979 107.85333954 -5.73735962 106.91102478 -5.74026489 105.94015503 C-5.73824066 104.89803864 -5.73621643 103.85592224 -5.73413086 102.78222656 C-5.73675934 101.14581711 -5.73675934 101.14581711 -5.73944092 99.47634888 C-5.74386196 95.8504276 -5.74092055 92.22455463 -5.73754883 88.59863281 C-5.73822179 86.09138988 -5.73919176 83.58414701 -5.740448 81.0769043 C-5.74192531 75.8142853 -5.73986393 70.551679 -5.73510742 65.2890625 C-5.72966484 59.1968508 -5.73142751 53.10467255 -5.73693383 47.01246166 C-5.74201076 41.16212263 -5.74148337 35.31179636 -5.73855209 29.4614563 C-5.73788257 26.96705114 -5.73871211 24.47264514 -5.74103165 21.97824097 C-5.74355669 18.49881695 -5.73971967 15.01945819 -5.73413086 11.54003906 C-5.73615509 10.49792267 -5.73817932 9.45580627 -5.74026489 8.3821106 C-5.73744507 7.43979584 -5.73462524 6.49748108 -5.73171997 5.52661133 C-5.73115443 4.29105247 -5.73115443 4.29105247 -5.73057747 3.03053284 C-5.47976857 -0.69529288 -3.20139463 0.0251951 0 0 Z M17.39526367 17.16113281 C17.39526367 29.70113281 17.39526367 42.24113281 17.39526367 55.16113281 C21.16963867 55.24363281 24.94401367 55.32613281 28.83276367 55.41113281 C30.58931274 55.46575684 30.58931274 55.46575684 32.38134766 55.52148438 C39.17737291 55.59279749 44.56215043 54.81025746 50.39526367 51.16113281 C54.85199324 46.70440324 56.49128377 42.50757696 56.70776367 36.28613281 C56.54984531 30.03442339 55.07949675 25.88364392 50.64526367 21.34863281 C43.58174663 16.5943425 36.70884235 16.9040033 28.45776367 17.03613281 C24.80713867 17.07738281 21.15651367 17.11863281 17.39526367 17.16113281 Z " fill="#5EC0CB" transform="translate(337.604736328125,192.8388671875)"/>
<path d="M0 0 C21.78 0 43.56 0 66 0 C66 5.61 66 11.22 66 17 C65 18 65 18 62.95874023 18.11352539 C62.08419189 18.10828857 61.20964355 18.10305176 60.30859375 18.09765625 C59.36435547 18.09443359 58.42011719 18.09121094 57.44726562 18.08789062 C56.45404297 18.07951172 55.46082031 18.07113281 54.4375 18.0625 C53.44041016 18.05798828 52.44332031 18.05347656 51.41601562 18.04882812 C48.94395151 18.03700007 46.47200482 18.02051849 44 18 C44.00222061 19.18794662 44.00444122 20.37589325 44.00672913 21.59983826 C44.02695892 32.76907986 44.04197135 43.93831777 44.05181217 55.10757351 C44.05704141 60.85045062 44.0641398 66.59331301 44.07543945 72.33618164 C44.08626687 77.87339995 44.09227652 83.41060404 44.09487724 88.94783211 C44.09673176 91.06544277 44.10035286 93.18305262 44.10573006 95.30065727 C44.11293856 98.25571274 44.11399102 101.21070871 44.11352539 104.16577148 C44.11712067 105.05049637 44.12071594 105.93522125 44.12442017 106.84675598 C44.11405216 112.88594784 44.11405216 112.88594784 43 114 C41.45044441 114.09899523 39.89646327 114.13079524 38.34375 114.1328125 C36.93416016 114.13474609 36.93416016 114.13474609 35.49609375 114.13671875 C34.01302734 114.13091797 34.01302734 114.13091797 32.5 114.125 C31.51128906 114.12886719 30.52257812 114.13273437 29.50390625 114.13671875 C28.09431641 114.13478516 28.09431641 114.13478516 26.65625 114.1328125 C25.78806641 114.13168457 24.91988281 114.13055664 24.02539062 114.12939453 C22 114 22 114 21 113 C20.90473194 110.04753646 20.87447548 107.11851579 20.88647461 104.16577148 C20.88632858 103.23903625 20.88618256 102.31230103 20.8860321 101.35748291 C20.88673162 98.27866313 20.89452579 95.19990303 20.90234375 92.12109375 C20.90420779 89.99259982 20.90563176 87.86410547 20.90663147 85.73561096 C20.91045772 80.1213768 20.92028892 74.50716832 20.93133545 68.89294434 C20.94154727 63.16886747 20.9461286 57.44478647 20.95117188 51.72070312 C20.96191109 40.48045744 20.9789888 29.24023085 21 18 C20.39937744 18.00523682 19.79875488 18.01047363 19.17993164 18.01586914 C16.47413162 18.03658014 13.76834823 18.04964125 11.0625 18.0625 C10.11697266 18.07087891 9.17144531 18.07925781 8.19726562 18.08789062 C6.84858398 18.09272461 6.84858398 18.09272461 5.47265625 18.09765625 C4.22367554 18.10551147 4.22367554 18.10551147 2.94946289 18.11352539 C1 18 1 18 0 17 C0 11.39 0 5.78 0 0 Z " fill="#5FC5D2" transform="translate(255,193)"/>
<path d="M0 0 C8.45767334 -0.02312659 16.91533356 -0.0409167 25.37303066 -0.05181217 C29.29988658 -0.05704031 33.22672094 -0.06413669 37.15356445 -0.07543945 C40.94014257 -0.0862708 44.7266999 -0.09227736 48.51329231 -0.09487724 C49.96104319 -0.09673105 51.40879288 -0.10035081 52.85653496 -0.10573006 C54.87757135 -0.11294367 56.89862848 -0.11340808 58.91967773 -0.11352539 C60.64842384 -0.11685631 60.64842384 -0.11685631 62.41209412 -0.12025452 C65 0 65 0 66 1 C66.12653198 3.49238569 66.18519825 5.94470441 66.1875 8.4375 C66.19974609 9.13166016 66.21199219 9.82582031 66.22460938 10.54101562 C66.22989842 12.36220901 66.12169207 14.1828692 66 16 C65.34 16.66 64.68 17.32 64 18 C57.4 18 50.8 18 44 18 C44 49.68 44 81.36 44 114 C36.74 114 29.48 114 22 114 C22 82.32 22 50.64 22 18 C15.07 18 8.14 18 1 18 C0 17 0 17 -0.09765625 13.18359375 C-0.09098089 11.60153318 -0.07901875 10.01948841 -0.0625 8.4375 C-0.05798828 7.63119141 -0.05347656 6.82488281 -0.04882812 5.99414062 C-0.03700518 3.99606244 -0.01906914 1.99802217 0 0 Z " fill="#5CBBC6" transform="translate(181,193)"/>
<path d="M0 0 C109.56 0 219.12 0 332 0 C332 6.93 332 13.86 332 21 C239.93 21.33 147.86 21.66 53 22 C55.475 24.97 55.475 24.97 58 28 C56.35 28.33 54.7 28.66 53 29 C53 28.01 53 27.02 53 26 C52.01 26 51.02 26 50 26 C49.34 23.69 48.68 21.38 48 19 C50.4038422 17.7980789 51.90248102 17.86979416 54.58772469 17.8613348 C56.04627379 17.85312313 56.04627379 17.85312313 57.53428853 17.84474558 C58.61014647 17.84376747 59.68600441 17.84278936 60.79446411 17.84178162 C61.93140052 17.83684364 63.06833692 17.83190566 64.23972595 17.82681805 C68.0753431 17.81137674 71.91094343 17.80306453 75.74658203 17.79467773 C78.48576226 17.78565623 81.22493626 17.77513846 83.96411133 17.76467896 C89.87470929 17.74289645 95.7853095 17.72475846 101.69592667 17.70907402 C110.24175699 17.68639153 118.7875624 17.65824647 127.33337162 17.62875474 C141.19733442 17.58105893 155.06130738 17.53780015 168.92529297 17.49731445 C182.39535311 17.45796964 195.8654042 17.41654586 209.33544922 17.37231445 C210.16530854 17.36959018 210.99516787 17.36686591 211.85017444 17.36405908 C216.01320509 17.35037977 220.17623561 17.33665947 224.33926606 17.32291877 C258.89282534 17.20892275 293.44640389 17.10219396 328 17 C328.33 12.38 328.66 7.76 329 3 C222.41 3 115.82 3 6 3 C8.34920863 8.14462031 8.34920863 8.14462031 12 9 C13 10.66666667 14 12.33333333 15 14 C15.99 14.33 16.98 14.66 18 15 C18.33 15.66 18.66 16.32 19 17 C19.99 17.33 20.98 17.66 22 18 C22.33 19.65 22.66 21.3 23 23 C21.68 22.34 20.36 21.68 19 21 C19 20.34 19 19.68 19 19 C18.34 19 17.68 19 17 19 C17 18.34 17 17.68 17 17 C16.40670898 16.73123047 15.81341797 16.46246094 15.20214844 16.18554688 C12.99459967 14.99709268 11.53457118 13.79257611 9.765625 12.03125 C8.90517578 11.17466797 8.90517578 11.17466797 8.02734375 10.30078125 C7.44082031 9.70652344 6.85429688 9.11226563 6.25 8.5 C5.64800781 7.90574219 5.04601562 7.31148438 4.42578125 6.69921875 C3.85730469 6.12816406 3.28882812 5.55710937 2.703125 4.96875 C2.18395508 4.44732422 1.66478516 3.92589844 1.12988281 3.38867188 C0 2 0 2 0 0 Z " fill="#73C6CC" transform="translate(84,330)"/>
<path d="M0 0 C91.74 0 183.48 0 278 0 C278 0.33 278 0.66 278 1 C277.11540163 1.00423194 276.23080326 1.00846388 275.31939888 1.01282406 C253.82142823 1.11600983 232.32349106 1.22462928 210.82557869 1.33933926 C200.42946636 1.39467969 190.03335061 1.44816303 179.63720703 1.49731445 C170.57873161 1.54014625 161.52028155 1.58642168 152.46184528 1.63687855 C147.66295788 1.66348759 142.86407553 1.68834086 138.06515884 1.70907402 C133.55249666 1.72862477 129.03988277 1.75276383 124.52726364 1.78049088 C122.8671786 1.7898696 121.20708294 1.79754192 119.54698181 1.80341911 C117.28803258 1.81166637 115.029201 1.82593905 112.77029419 1.84178162 C110.87047885 1.85146044 110.87047885 1.85146044 108.9322834 1.8613348 C106.06534549 1.79880021 106.06534549 1.79880021 104 3 C101.05195577 3.09868953 98.12751557 3.13626575 95.17919922 3.12939453 C93.80815285 3.13202301 93.80815285 3.13202301 92.40940857 3.13470459 C89.37448246 3.13912097 86.33961425 3.1361844 83.3046875 3.1328125 C81.1967874 3.13348595 79.08888738 3.13445632 76.98098755 3.13571167 C72.55404931 3.13718864 68.12713121 3.13503541 63.70019531 3.13037109 C58.03771789 3.12469473 52.37528807 3.1279395 46.71281242 3.13394356 C42.35468186 3.13756708 37.99656246 3.13640199 33.63843155 3.13381577 C31.55172851 3.13315036 29.46502444 3.13396137 27.3783226 3.13629532 C24.45124401 3.1388489 21.52424097 3.13494231 18.59716797 3.12939453 C17.31254417 3.13243088 17.31254417 3.13243088 16.00196838 3.13552856 C10.91463974 3.11776233 6.03628193 2.72861259 1 2 C1 6.95 1 11.9 1 17 C107.92 17 214.84 17 325 17 C325 16.34 325 15.68 325 15 C326.98 15.495 326.98 15.495 329 16 C329 16.99 329 17.98 329 19 C220.43 19 111.86 19 0 19 C0 12.73 0 6.46 0 0 Z " fill="#74C3CB" transform="translate(85,150)"/>
<path d="M0 0 C109.56 0 219.12 0 332 0 C332 6.93 332 13.86 332 21 C239.93 21.33 147.86 21.66 53 22 C55.475 24.97 55.475 24.97 58 28 C56.35 28.33 54.7 28.66 53 29 C53 28.01 53 27.02 53 26 C52.01 26 51.02 26 50 26 C50 24.02 50 22.04 50 20 C142.73 20 235.46 20 331 20 C331 13.73 331 7.46 331 1 C223.42 1.33 115.84 1.66 5 2 C5.99 2.99 6.98 3.98 8 5 C8.33 5.99 8.66 6.98 9 8 C9.99 8.33 10.98 8.66 12 9 C13 10.66666667 14 12.33333333 15 14 C15.99 14.33 16.98 14.66 18 15 C18.33 15.66 18.66 16.32 19 17 C19.99 17.33 20.98 17.66 22 18 C22.33 19.65 22.66 21.3 23 23 C21.68 22.34 20.36 21.68 19 21 C19 20.34 19 19.68 19 19 C18.34 19 17.68 19 17 19 C17 18.34 17 17.68 17 17 C16.40670898 16.73123047 15.81341797 16.46246094 15.20214844 16.18554688 C12.99459967 14.99709268 11.53457118 13.79257611 9.765625 12.03125 C8.90517578 11.17466797 8.90517578 11.17466797 8.02734375 10.30078125 C7.44082031 9.70652344 6.85429688 9.11226563 6.25 8.5 C5.64800781 7.90574219 5.04601562 7.31148438 4.42578125 6.69921875 C3.85730469 6.12816406 3.28882812 5.55710937 2.703125 4.96875 C2.18395508 4.44732422 1.66478516 3.92589844 1.12988281 3.38867188 C0 2 0 2 0 0 Z " fill="#6FAFB1" transform="translate(84,330)"/>
<path d="M0 0 C6.93 0 13.86 0 21 0 C22.1650499 2.3300998 22.1209358 3.67247077 22.11352539 6.26611328 C22.11344986 7.14687531 22.11337433 8.02763733 22.11329651 8.93508911 C22.10813522 9.88721283 22.10297394 10.83933655 22.09765625 11.8203125 C22.0962413 12.79410858 22.09482635 13.76790466 22.09336853 14.77120972 C22.08775973 17.88917073 22.07520573 21.0070606 22.0625 24.125 C22.05748613 26.23567605 22.05292303 28.34635322 22.04882812 30.45703125 C22.03863725 35.63807047 22.01906353 40.81895535 22 46 C42.295 46.495 42.295 46.495 63 47 C63 31.49 63 15.98 63 0 C69.93 0 76.86 0 84 0 C85.58048529 1.58048529 85.12597951 3.17170572 85.12698364 5.36547852 C85.13121338 6.77895065 85.13121338 6.77895065 85.13552856 8.22097778 C85.13249222 9.78415237 85.13249222 9.78415237 85.12939453 11.37890625 C85.13202301 13.0153157 85.13202301 13.0153157 85.13470459 14.68478394 C85.13912563 18.31070521 85.13618422 21.93657818 85.1328125 25.5625 C85.13348547 28.06974293 85.13445543 30.57698581 85.13571167 33.08422852 C85.13718899 38.34684751 85.1351276 43.60945382 85.13037109 48.87207031 C85.12492851 54.96428202 85.12669118 61.05646026 85.1321975 67.14867115 C85.13727443 72.99901018 85.13674705 78.84933645 85.13381577 84.69967651 C85.13314624 87.19408167 85.13397579 89.68848768 85.13629532 92.18289185 C85.13882036 95.66231586 85.13498334 99.14167462 85.12939453 102.62109375 C85.13141876 103.66321014 85.13344299 104.70532654 85.13552856 105.77902222 C85.13270874 106.72133698 85.12988892 107.66365173 85.12698364 108.63452148 C85.1264181 109.87008034 85.1264181 109.87008034 85.12584114 111.13059998 C85 113 85 113 84 114 C82.52347336 114.09880797 81.04232764 114.13079245 79.5625 114.1328125 C78.22058594 114.13474609 78.22058594 114.13474609 76.8515625 114.13671875 C75.44003906 114.13091797 75.44003906 114.13091797 74 114.125 C72.58847656 114.13080078 72.58847656 114.13080078 71.1484375 114.13671875 C70.25382812 114.13542969 69.35921875 114.13414062 68.4375 114.1328125 C67.61121094 114.13168457 66.78492188 114.13055664 65.93359375 114.12939453 C64 114 64 114 63 113 C62.90688111 111.49581261 62.88253972 109.98728644 62.88647461 108.48022461 C62.88655014 107.51930405 62.88662567 106.55838348 62.88670349 105.56834412 C62.89186478 104.523564 62.89702606 103.47878387 62.90234375 102.40234375 C62.9037587 101.33834854 62.90517365 100.27435333 62.90663147 99.17811584 C62.91224936 95.76454917 62.92480489 92.351047 62.9375 88.9375 C62.94251269 86.62955824 62.947076 84.32161545 62.95117188 82.01367188 C62.96137567 76.34240279 62.98094757 70.67127399 63 65 C49.14 65 35.28 65 21 65 C21.495 65.99 21.495 65.99 22 67 C22.08963847 68.48100811 22.11757925 69.96599424 22.11352539 71.44970703 C22.11344986 72.37051056 22.11337433 73.29131409 22.11329651 74.24002075 C22.10813522 75.23589203 22.10297394 76.23176331 22.09765625 77.2578125 C22.0962413 78.27600067 22.09482635 79.29418884 22.09336853 80.3432312 C22.087759 83.60385035 22.07520488 86.86440151 22.0625 90.125 C22.05748623 92.33203026 22.05292311 94.53906159 22.04882812 96.74609375 C22.03778648 102.16408581 22.02103905 107.58203805 22 113 C19.86636349 109.79954524 19.75327772 109.01370564 19.77294922 105.3449707 C19.77310028 104.40422195 19.77325134 103.46347321 19.77340698 102.49421692 C19.78372955 101.48163315 19.79405212 100.46904938 19.8046875 99.42578125 C19.8075174 98.38681198 19.81034729 97.34784271 19.81326294 96.27738953 C19.82446718 92.95564303 19.84957236 89.63416515 19.875 86.3125 C19.88502948 84.06185285 19.89415538 81.81120148 19.90234375 79.56054688 C19.9244073 74.04027278 19.95788729 68.52015558 20 63 C26.39052386 63.11730201 32.78086808 63.24213771 39.17114258 63.37231445 C41.34688953 63.41573507 43.52267214 63.45740471 45.69848633 63.49731445 C48.81863168 63.55484502 51.93859633 63.61858823 55.05859375 63.68359375 C56.03775253 63.70030624 57.01691132 63.71701874 58.02574158 63.73423767 C59.37702904 63.7641555 59.37702904 63.7641555 60.75561523 63.79467773 C61.55281479 63.81022202 62.35001434 63.8257663 63.17137146 63.84178162 C65 64 65 64 66 65 C66.09304018 66.47354348 66.11746265 67.95150591 66.11352539 69.42797852 C66.11341209 70.83932823 66.11341209 70.83932823 66.11329651 72.27919006 C66.10813522 73.30209641 66.10297394 74.32500275 66.09765625 75.37890625 C66.0962413 76.42070541 66.09482635 77.46250458 66.09336853 78.53587341 C66.0877508 81.87811094 66.0751953 85.22028257 66.0625 88.5625 C66.05748728 90.82226466 66.05292398 93.08203037 66.04882812 95.34179688 C66.03777561 100.89455682 66.0204991 106.44726722 66 112 C74.415 111.505 74.415 111.505 83 111 C83 74.7 83 38.4 83 1 C76.73 1 70.46 1 64 1 C64 16.51 64 32.02 64 48 C53.3884375 48.0309375 53.3884375 48.0309375 42.5625 48.0625 C39.20880249 48.07615601 39.20880249 48.07615601 35.78735352 48.09008789 C34.02620504 48.09300696 32.26505589 48.09555554 30.50390625 48.09765625 C29.58057495 48.10277222 28.65724365 48.10788818 27.70593262 48.11315918 C26.83303589 48.11328003 25.96013916 48.11340088 25.06079102 48.11352539 C24.29912125 48.115746 23.53745148 48.11796661 22.75270081 48.12025452 C21 48 21 48 20 47 C19.90704185 45.55710213 19.88253487 44.10970215 19.88647461 42.66381836 C19.88655014 41.7429393 19.88662567 40.82206024 19.88670349 39.87327576 C19.89186478 38.87224319 19.89702606 37.87121063 19.90234375 36.83984375 C19.9037587 35.82024063 19.90517365 34.80063751 19.90663147 33.75013733 C19.91224903 30.47922893 19.9248045 27.20838787 19.9375 23.9375 C19.94251274 21.72591244 19.94707604 19.51432382 19.95117188 17.30273438 C19.96222417 11.86846346 19.97950056 6.43424316 20 1 C13.4 1 6.8 1 0 1 C0 0.67 0 0.34 0 0 Z " fill="#578E92" transform="translate(84,193)"/>
<path d="M0 0 C3.375 0.625 3.375 0.625 7 2 C7.66 3.98 8.32 5.96 9 8 C-83.73 8 -176.46 8 -272 8 C-272 14.27 -272 20.54 -272 27 C-163.43 27 -54.86 27 57 27 C57.33 26.34 57.66 25.68 58 25 C58.33 25.99 58.66 26.98 59 28 C-50.56 28 -160.12 28 -273 28 C-273 21.07 -273 14.14 -273 7 C-181.26 6.67 -89.52 6.34 5 6 C3.35 4.02 1.7 2.04 0 0 Z " fill="#689FA4" transform="translate(357,142)"/>
<path d="M0 0 C21.78 0 43.56 0 66 0 C66 5.61 66 11.22 66 17 C65 18 65 18 62.95874023 18.11352539 C62.08419189 18.10828857 61.20964355 18.10305176 60.30859375 18.09765625 C59.36435547 18.09443359 58.42011719 18.09121094 57.44726562 18.08789062 C56.45404297 18.07951172 55.46082031 18.07113281 54.4375 18.0625 C53.44041016 18.05798828 52.44332031 18.05347656 51.41601562 18.04882812 C48.94395151 18.03700007 46.47200482 18.02051849 44 18 C44.00222061 19.18794662 44.00444122 20.37589325 44.00672913 21.59983826 C44.02695892 32.76907986 44.04197135 43.93831777 44.05181217 55.10757351 C44.05704141 60.85045062 44.0641398 66.59331301 44.07543945 72.33618164 C44.08626687 77.87339995 44.09227652 83.41060404 44.09487724 88.94783211 C44.09673176 91.06544277 44.10035286 93.18305262 44.10573006 95.30065727 C44.11293856 98.25571274 44.11399102 101.21070871 44.11352539 104.16577148 C44.11712067 105.05049637 44.12071594 105.93522125 44.12442017 106.84675598 C44.11405216 112.88594784 44.11405216 112.88594784 43 114 C41.45044441 114.09899523 39.89646327 114.13079524 38.34375 114.1328125 C36.93416016 114.13474609 36.93416016 114.13474609 35.49609375 114.13671875 C34.01302734 114.13091797 34.01302734 114.13091797 32.5 114.125 C31.51128906 114.12886719 30.52257812 114.13273437 29.50390625 114.13671875 C28.09431641 114.13478516 28.09431641 114.13478516 26.65625 114.1328125 C25.78806641 114.13168457 24.91988281 114.13055664 24.02539062 114.12939453 C22 114 22 114 21 113 C20.90473194 110.04753646 20.87447548 107.11851579 20.88647461 104.16577148 C20.88632858 103.23903625 20.88618256 102.31230103 20.8860321 101.35748291 C20.88673162 98.27866313 20.89452579 95.19990303 20.90234375 92.12109375 C20.90420779 89.99259982 20.90563176 87.86410547 20.90663147 85.73561096 C20.91045772 80.1213768 20.92028892 74.50716832 20.93133545 68.89294434 C20.94154727 63.16886747 20.9461286 57.44478647 20.95117188 51.72070312 C20.96191109 40.48045744 20.9789888 29.24023085 21 18 C20.39937744 18.00523682 19.79875488 18.01047363 19.17993164 18.01586914 C16.47413162 18.03658014 13.76834823 18.04964125 11.0625 18.0625 C10.11697266 18.07087891 9.17144531 18.07925781 8.19726562 18.08789062 C6.84858398 18.09272461 6.84858398 18.09272461 5.47265625 18.09765625 C4.22367554 18.10551147 4.22367554 18.10551147 2.94946289 18.11352539 C1 18 1 18 0 17 C0 11.39 0 5.78 0 0 Z M1 1 C1 5.95 1 10.9 1 16 C8.59 16 16.18 16 24 16 C23.9285376 17.67795654 23.8570752 19.35591309 23.78344727 21.0847168 C23.0184176 40.23552179 22.87421668 59.34988417 22.93133545 78.51348877 C22.94182026 82.42370023 22.94618518 86.33391897 22.95117188 90.24414062 C22.96169388 97.82944806 22.97918154 105.41471256 23 113 C29.27 113 35.54 113 42 113 C42.96052304 80.99400012 43.10890907 49.01926661 43 17 C50.26 17 57.52 17 65 17 C65 11.72 65 6.44 65 1 C43.88 1 22.76 1 1 1 Z " fill="#4C7B7E" transform="translate(255,193)"/>
<path d="M0 0 C21.12 0 42.24 0 64 0 C64 4.95 64 9.9 64 15 C54.1 15.495 54.1 15.495 44 16 C43.67 47.68 43.34 79.36 43 112 C36.4 112 29.8 112 23 112 C23 80.32 23 48.64 23 16 C23.66 16.33 24.32 16.66 25 17 C24.67 47.69 24.34 78.38 24 110 C29.94 110.33 35.88 110.66 42 111 C41.98952637 108.10234863 41.97905273 105.20469727 41.96826172 102.21923828 C41.93517731 92.66386944 41.91305249 83.10849811 41.89637566 73.55308723 C41.88592185 67.75752874 41.8717336 61.96202873 41.84912109 56.16650391 C41.82744956 50.57740577 41.81544342 44.98836404 41.81024551 39.39922714 C41.8065395 37.26289863 41.79930299 35.12657332 41.78853989 32.99026871 C41.77410056 30.00662728 41.77201888 27.02322131 41.77294922 24.03955078 C41.76575867 23.14907043 41.75856812 22.25859009 41.75115967 21.34112549 C41.77189568 15.22810432 41.77189568 15.22810432 44 13 C45.97119141 12.77294922 45.97119141 12.77294922 48.3515625 12.8046875 C49.20234375 12.81113281 50.053125 12.81757813 50.9296875 12.82421875 C52.26386719 12.84935547 52.26386719 12.84935547 53.625 12.875 C54.97078125 12.88853516 54.97078125 12.88853516 56.34375 12.90234375 C58.56261322 12.92594868 60.7813397 12.96182038 63 13 C62.67 9.7 62.34 6.4 62 3 C58.5172091 2.12930227 56.03022103 1.87837105 52.49707031 1.88647461 C50.84581146 1.88658791 50.84581146 1.88658791 49.16119385 1.88670349 C47.38757477 1.89444542 47.38757477 1.89444542 45.578125 1.90234375 C43.75544098 1.90446617 43.75544098 1.90446617 41.89593506 1.90663147 C38.01393169 1.91223012 34.13198594 1.9247824 30.25 1.9375 C27.61849042 1.94251517 24.98697993 1.94707805 22.35546875 1.95117188 C15.90362362 1.96219912 9.45182158 1.97946286 3 2 C2.67 5.96 2.34 9.92 2 14 C8.6 14 15.2 14 22 14 C22 14.66 22 15.32 22 16 C14.74 16 7.48 16 0 16 C0 10.72 0 5.44 0 0 Z " fill="#72C2C8" transform="translate(181,194)"/>
<path d="M0 0 C93.06 0 186.12 0 282 0 C282 0.33 282 0.66 282 1 C189.93 1.33 97.86 1.66 3 2 C4.65 3.98 6.3 5.96 8 8 C6.35 8.33 4.7 8.66 3 9 C3 8.01 3 7.02 3 6 C2.01 6 1.02 6 0 6 C0 4.02 0 2.04 0 0 Z " fill="#6F9D9E" transform="translate(134,350)"/>
<path d="M0 0 C3.375 0.625 3.375 0.625 7 2 C7.66 3.98 8.32 5.96 9 8 C-84.06 8 -177.12 8 -273 8 C-273 7.67 -273 7.34 -273 7 C-181.26 6.67 -89.52 6.34 5 6 C3.35 4.02 1.7 2.04 0 0 Z " fill="#619291" transform="translate(357,142)"/>
<path d="M0 0 C0.33 0 0.66 0 1 0 C2.07040641 12.42410273 2.13046893 24.78343782 2.09765625 37.24609375 C2.09578681 39.35457831 2.0943654 41.46306331 2.09336853 43.57154846 C2.08958474 49.07049804 2.07979073 54.56942041 2.06866455 60.06835938 C2.05836053 65.69986605 2.05385181 71.3313772 2.04882812 76.96289062 C2.03816397 87.97527225 2.02113845 98.98763384 2 110 C7.28 110 12.56 110 18 110 C18.33 94.82 18.66 79.64 19 64 C19.33 64 19.66 64 20 64 C20.33 80.17 20.66 96.34 21 113 C14.07 113 7.14 113 0 113 C0 75.71 0 38.42 0 0 Z " fill="#6CB5BB" transform="translate(84,194)"/>
<path d="M0 0 C17.82 0 35.64 0 54 0 C54 0.66 54 1.32 54 2 C54.66 2.33 55.32 2.66 56 3 C54.73615479 2.84152588 53.47230957 2.68305176 52.17016602 2.51977539 C46.87181022 1.93313687 41.60411651 1.77851501 36.27734375 1.68359375 C34.79821251 1.6524221 34.79821251 1.6524221 33.28919983 1.62062073 C30.17203015 1.55579082 27.05478392 1.49655316 23.9375 1.4375 C21.8105393 1.39425131 19.68358603 1.35063511 17.55664062 1.30664062 C12.37117006 1.20017873 7.18562334 1.09872843 2 1 C1.97666961 15.06417657 1.95908655 29.12835015 1.94818783 43.19254208 C1.9429583 49.72236233 1.93585939 56.25216963 1.92456055 62.78198242 C1.91373415 69.07781159 1.90772369 75.37362826 1.90512276 81.66946602 C1.90326806 84.07734944 1.8996466 86.48523214 1.89426994 88.89311028 C1.8870628 92.25289286 1.88600892 95.6126231 1.88647461 98.97241211 C1.88287933 99.97869659 1.87928406 100.98498108 1.87557983 102.02175903 C1.8769545 102.93186234 1.87832916 103.84196564 1.87974548 104.77964783 C1.87882369 105.57515517 1.8779019 106.37066252 1.87695217 107.19027615 C1.80221867 109.02138889 1.80221867 109.02138889 3 110 C5.16480797 110.0989294 7.33293785 110.129711 9.5 110.125 C10.6859375 110.12757813 11.871875 110.13015625 13.09375 110.1328125 C15.89259422 110.33210219 15.89259422 110.33210219 17 109 C17.16017166 106.19023482 17.25950534 103.40226404 17.31640625 100.58984375 C17.33718735 99.74780899 17.35796844 98.90577423 17.37937927 98.03822327 C17.44496812 95.33806821 17.50380276 92.63781283 17.5625 89.9375 C17.60567637 88.11131759 17.64929036 86.28514546 17.69335938 84.45898438 C17.80065894 79.97276008 17.90189966 75.4864345 18 71 C18.66 71 19.32 71 20 71 C20 84.53 20 98.06 20 112 C13.4 112 6.8 112 0 112 C0 75.04 0 38.08 0 0 Z " fill="#76C6CE" transform="translate(334,194)"/>

<path d="M0 0 C21.12 0 42.24 0 64 0 C64 5.28 64 10.56 64 16 C56.74 16 49.48 16 42 16 C42 33.82 42 51.64 42 70 C41.67 70 41.34 70 41 70 C41 51.85 41 33.7 41 15 C44.10640166 13.44679917 47.45780805 13.66329944 50.875 13.5 C55.04998579 13.29834595 58.91825159 13.0204371 63 12 C63 8.37 63 4.74 63 1 C42.54 1 22.08 1 1 1 C1 4.96 1 8.92 1 13 C2.53720703 12.98259766 2.53720703 12.98259766 4.10546875 12.96484375 C5.466144 12.95545978 6.82682124 12.94636023 8.1875 12.9375 C8.86103516 12.92912109 9.53457031 12.92074219 10.22851562 12.91210938 C13.95434131 12.89393462 17.3788042 13.10700608 21 14 C21 14.33 21 14.66 21 15 C14.07 15 7.14 15 0 15 C0 10.05 0 5.1 0 0 Z " fill="#74BEC4" transform="translate(256,194)"/>
<path d="M0 0 C1.65 0.33 3.3 0.66 5 1 C5 2.32 5 3.64 5 5 C-0.63905882 6.91190636 -5.5956993 7.28136362 -11.52539062 7.24291992 C-12.46022215 7.24479561 -13.39505367 7.2466713 -14.35821342 7.24860382 C-17.45764242 7.25225414 -20.55684121 7.24151475 -23.65625 7.23046875 C-25.8536477 7.22961149 -28.05104583 7.22953088 -30.2484436 7.23017883 C-36.12086513 7.22902858 -41.99318474 7.21471346 -47.8655777 7.19723511 C-51.4919095 7.18752167 -55.11822601 7.18167602 -58.74456787 7.17724609 C-96.16966785 7.13133582 -133.58390084 6.84629952 -171 6 C-171 5.67 -171 5.34 -171 5 C-169.68083304 4.99365209 -169.68083304 4.99365209 -168.33501625 4.98717594 C-146.96222344 4.88398985 -125.58946431 4.77537034 -104.21673012 4.66066074 C-93.88115202 4.60532048 -83.54557047 4.55183717 -73.20996094 4.50268555 C-64.20422311 4.45985354 -55.19851078 4.41357806 -46.19281232 4.36312145 C-41.42187065 4.33651258 -36.65093405 4.31165931 -31.87996292 4.29092598 C-27.39356539 4.27137501 -22.90721643 4.24723589 -18.4208622 4.21950912 C-16.77045255 4.21013051 -15.12003223 4.20245816 -13.4696064 4.19658089 C-11.22379404 4.18833343 -8.97810002 4.1740607 -6.73233032 4.15821838 C-5.47316111 4.15176583 -4.21399189 4.14531328 -2.91666603 4.1386652 C-0.06302447 4.199943 -0.06302447 4.199943 2 3 C2 2.34 2 1.68 2 1 C1.01 0.505 1.01 0.505 0 0 Z " fill="#6CC4CF" transform="translate(363,146)"/>
<path d="M0 0 C6.46207937 3.60674197 9.69266091 8.2425429 12.1171875 15.2109375 C14.31429049 24.64098132 14.54925763 36.0992027 10.2890625 44.94140625 C8.17474099 48.31791363 5.75360031 51.12123604 3 54 C2.34 53.01 1.68 52.02 1 51 C1.639375 50.773125 2.27875 50.54625 2.9375 50.3125 C5.27193661 49.14749104 5.27193661 49.14749104 5.75 46.375 C5.8325 45.59125 5.915 44.8075 6 44 C6.99 44 7.98 44 9 44 C8.7215625 43.0409375 8.7215625 43.0409375 8.4375 42.0625 C8.293125 41.381875 8.14875 40.70125 8 40 C8.495 39.505 8.495 39.505 9 39 C9.22571184 37.58879098 9.39388349 36.16823957 9.53515625 34.74609375 C9.66567383 33.46508789 9.66567383 33.46508789 9.79882812 32.15820312 C9.88583984 31.26037109 9.97285156 30.36253906 10.0625 29.4375 C10.15337891 28.53580078 10.24425781 27.63410156 10.33789062 26.70507812 C10.56253923 24.47041566 10.78305769 22.23542161 11 20 C10.34 19.67 9.68 19.34 9 19 C8.855625 17.865625 8.71125 16.73125 8.5625 15.5625 C8.376875 14.386875 8.19125 13.21125 8 12 C7.01 11.34 6.02 10.68 5 10 C5 9.01 5 8.02 5 7 C2.525 6.01 2.525 6.01 0 5 C0 4.34 0 3.68 0 3 C-0.66 3 -1.32 3 -2 3 C-2 2.34 -2 1.68 -2 1 C-1.34 0.67 -0.68 0.34 0 0 Z " fill="#5A9B9D" transform="translate(403,201)"/>
<path d="M0 0 C4.36008391 3.72423834 8.69712624 7.47149206 13 11.26171875 C14.34014242 12.42649097 15.69464893 13.57492724 17.0625 14.70703125 C17.701875 15.23683594 18.34125 15.76664063 19 16.3125 C19.5775 16.78300781 20.155 17.25351563 20.75 17.73828125 C22 19 22 19 22 21 C22.639375 21.28875 23.27875 21.5775 23.9375 21.875 C26 23 26 23 27 25 C23.65626525 24.44271087 20.96687001 23.64826111 18 22 C18 21.01 18 20.02 18 19 C15.69 18.67 13.38 18.34 11 18 C11 17.34 11 16.68 11 16 C10.01 15.67 9.02 15.34 8 15 C8 13.68 8 12.36 8 11 C7.443125 10.938125 6.88625 10.87625 6.3125 10.8125 C2.972841 9.6391063 1.28499253 7.65553186 -1 5 C-1.8125 2.6875 -1.8125 2.6875 -2 1 C-1.34 0.67 -0.68 0.34 0 0 Z " fill="#6BC2CA" transform="translate(379,134)"/>
<path d="M0 0 C21.12 0 42.24 0 64 0 C64 0.66 64 1.32 64 2 C43.87 2 23.74 2 3 2 C2.67 5.96 2.34 9.92 2 14 C8.6 14 15.2 14 22 14 C22 14.66 22 15.32 22 16 C14.74 16 7.48 16 0 16 C0 10.72 0 5.44 0 0 Z " fill="#75BBBF" transform="translate(181,194)"/>
<path d="M0 0 C6.27 0 12.54 0 19 0 C19 4.62 19 9.24 19 14 C18.67 14 18.34 14 18 14 C18 9.71 18 5.42 18 1 C12.72 1 7.44 1 2 1 C2.04600342 2.28688721 2.09200684 3.57377441 2.1394043 4.8996582 C2.30581006 9.66827363 2.4519973 14.43733065 2.59204102 19.20678711 C2.6555207 21.27206868 2.72450377 23.33718867 2.79907227 25.40209961 C2.90522897 28.36807528 2.99166371 31.33406658 3.07421875 34.30078125 C3.11157639 35.2258699 3.14893402 36.15095856 3.18742371 37.1040802 C3.20767105 37.96474594 3.2279184 38.82541168 3.2487793 39.7121582 C3.27320602 40.46938675 3.29763275 41.2266153 3.32279968 42.00679016 C3 44 3 44 0 47 C0 31.49 0 15.98 0 0 Z " fill="#70BDC5" transform="translate(148,194)"/>
<path d="M0 0 C0.91007812 0.00902344 1.82015625 0.01804687 2.7578125 0.02734375 C3.80582031 0.04474609 3.80582031 0.04474609 4.875 0.0625 C-6.40843529 7.58479019 -23.36335224 5.65770597 -36.125 4.0625 C-36.125 17.5925 -36.125 31.1225 -36.125 45.0625 C-36.455 45.0625 -36.785 45.0625 -37.125 45.0625 C-37.125 31.2025 -37.125 17.3425 -37.125 3.0625 C-22.25 2.125 -22.25 2.125 -17.55908203 1.83618164 C-15.73932861 1.71811157 -15.73932861 1.71811157 -13.8828125 1.59765625 C-12.6364502 1.519104 -11.39008789 1.44055176 -10.10595703 1.35961914 C-6.44993384 0.99521454 -3.78499264 -0.04852555 0 0 Z " fill="#356367" transform="translate(391.125,260.9375)"/>
<path d="M0 0 C0.66 0 1.32 0 2 0 C2 13.53 2 27.06 2 41 C-4.6 41 -11.2 41 -18 41 C-18 38.03 -18 35.06 -18 32 C-17.67 32 -17.34 32 -17 32 C-16.34 34.31 -15.68 36.62 -15 39 C-12.85423363 39.02685938 -10.70837355 39.04633088 -8.5625 39.0625 C-7.36753906 39.07410156 -6.17257812 39.08570313 -4.94140625 39.09765625 C-2.11126659 39.33901792 -2.11126659 39.33901792 -1 38 C-0.83982834 35.19023482 -0.74049466 32.40226404 -0.68359375 29.58984375 C-0.66281265 28.74780899 -0.64203156 27.90577423 -0.62062073 27.03822327 C-0.55503188 24.33806821 -0.49619724 21.63781283 -0.4375 18.9375 C-0.39432363 17.11131759 -0.35070964 15.28514546 -0.30664062 13.45898438 C-0.19934106 8.97276008 -0.09810034 4.4864345 0 0 Z " fill="#70BDC3" transform="translate(352,265)"/>
<path d="M0 0 C3.73867071 3.12827549 7.43269846 6.30173921 11 9.625 C11.598125 10.17414063 12.19625 10.72328125 12.8125 11.2890625 C14 13 14 13 14.015625 14.81640625 C12.48175106 18.11423521 10.17179309 20.64726295 7.75 23.3125 C7.27175781 23.87517578 6.79351562 24.43785156 6.30078125 25.01757812 C4.859375 26.61328125 4.859375 26.61328125 2 29 C-0.796875 28.98046875 -0.796875 28.98046875 -3 28 C-3.33 27.34 -3.66 26.68 -4 26 C-1.69 26 0.62 26 3 26 C2.67 24.68 2.34 23.36 2 22 C2.66 22 3.32 22 4 22 C4.33 21.34 4.66 20.68 5 20 C5.66 20 6.32 20 7 20 C7 19.34 7 18.68 7 18 C7.66 17.67 8.32 17.34 9 17 C9 14.69 9 12.38 9 10 C7.68 10 6.36 10 5 10 C4.67 8.68 4.34 7.36 4 6 C2.68 6 1.36 6 0 6 C0 4.02 0 2.04 0 0 Z " fill="#64999C" transform="translate(151,366)"/>
<path d="M0 0 C3.75040892 1.25367777 5.93541183 3.66654398 8.5703125 6.484375 C9.32344727 7.26458008 9.32344727 7.26458008 10.09179688 8.06054688 C11.32310377 9.3387607 12.5417532 10.62914647 13.7578125 11.921875 C13.4278125 12.911875 13.0978125 13.901875 12.7578125 14.921875 C12.0978125 14.921875 11.4378125 14.921875 10.7578125 14.921875 C10.7578125 13.601875 10.7578125 12.281875 10.7578125 10.921875 C9.9946875 10.839375 9.2315625 10.756875 8.4453125 10.671875 C5.21066059 9.76918145 4.40681985 8.78594039 2.7578125 5.921875 C2.7578125 5.261875 2.7578125 4.601875 2.7578125 3.921875 C1.1078125 3.591875 -0.5421875 3.261875 -2.2421875 2.921875 C-2.891875 4.1284375 -2.891875 4.1284375 -3.5546875 5.359375 C-5.2421875 7.921875 -5.2421875 7.921875 -8.2421875 8.921875 C-9.45100846 10.92203966 -9.45100846 10.92203966 -10.2421875 12.921875 C-11.2321875 12.921875 -12.2221875 12.921875 -13.2421875 12.921875 C-13.5721875 13.911875 -13.9021875 14.901875 -14.2421875 15.921875 C-14.2421875 14.601875 -14.2421875 13.281875 -14.2421875 11.921875 C-13.5821875 11.921875 -12.9221875 11.921875 -12.2421875 11.921875 C-11.9121875 10.931875 -11.5821875 9.941875 -11.2421875 8.921875 C-10.5821875 8.921875 -9.9221875 8.921875 -9.2421875 8.921875 C-9.2421875 8.261875 -9.2421875 7.601875 -9.2421875 6.921875 C-8.5821875 6.921875 -7.9221875 6.921875 -7.2421875 6.921875 C-6.9740625 6.32375 -6.7059375 5.725625 -6.4296875 5.109375 C-3.58815721 -0.1250229 -3.58815721 -0.1250229 0 0 Z " fill="#65ABB1" transform="translate(348.2421875,105.078125)"/>
<path d="M0 0 C6.27 0 12.54 0 19 0 C19 15.18 19 30.36 19 46 C18.67 46 18.34 46 18 46 C17.67 31.48 17.34 16.96 17 2 C11.72 1.67 6.44 1.34 1 1 C1 5.29 1 9.58 1 14 C0.67 14 0.34 14 0 14 C0 9.38 0 4.76 0 0 Z " fill="#71C3C8" transform="translate(85,194)"/>
<path d="M0 0 C0 0.66 0 1.32 0 2 C-1.23621094 1.68289062 -2.47242188 1.36578125 -3.74609375 1.0390625 C-9.49812269 -0.23916615 -15.18982548 -0.44654039 -21.0625 -0.625 C-24.671875 -0.74875 -28.28125 -0.8725 -32 -1 C-32 11.54 -32 24.08 -32 37 C-32.33 37 -32.66 37 -33 37 C-33 24.13 -33 11.26 -33 -2 C-28.99875 -2.185625 -24.9975 -2.37125 -20.875 -2.5625 C-18.99917236 -2.65446655 -18.99917236 -2.65446655 -17.08544922 -2.74829102 C-16.08529785 -2.79139404 -15.08514648 -2.83449707 -14.0546875 -2.87890625 C-12.53077393 -2.94960327 -12.53077393 -2.94960327 -10.97607422 -3.02172852 C-2.96322618 -2.96322618 -2.96322618 -2.96322618 0 0 Z " fill="#2D5F64" transform="translate(387,211)"/>
<path d="M0 0 C5.28 0 10.56 0 16 0 C16 0.33 16 0.66 16 1 C10.555 1.495 10.555 1.495 5 2 C5.99 2.99 6.98 3.98 8 5 C8.33 5.99 8.66 6.98 9 8 C9.99 8.33 10.98 8.66 12 9 C13 10.66666667 14 12.33333333 15 14 C15.99 14.33 16.98 14.66 18 15 C18.33 15.66 18.66 16.32 19 17 C19.99 17.33 20.98 17.66 22 18 C22.33 19.65 22.66 21.3 23 23 C21.68 22.34 20.36 21.68 19 21 C19 20.34 19 19.68 19 19 C18.34 19 17.68 19 17 19 C17 18.34 17 17.68 17 17 C16.40670898 16.73123047 15.81341797 16.46246094 15.20214844 16.18554688 C12.99459967 14.99709268 11.53457118 13.79257611 9.765625 12.03125 C8.90517578 11.17466797 8.90517578 11.17466797 8.02734375 10.30078125 C7.44082031 9.70652344 6.85429688 9.11226563 6.25 8.5 C5.64800781 7.90574219 5.04601562 7.31148438 4.42578125 6.69921875 C3.85730469 6.12816406 3.28882812 5.55710937 2.703125 4.96875 C2.18395508 4.44732422 1.66478516 3.92589844 1.12988281 3.38867188 C0 2 0 2 0 0 Z " fill="#70A0A4" transform="translate(84,330)"/>
<path d="M0 0 C13.86 0 27.72 0 42 0 C39.0542836 2.9457164 35.99834673 2.8797059 32 3 C28.71276186 2.82126957 25.43603655 2.59494373 22.15478516 2.33227539 C16.80780051 1.9423261 11.76823238 2.25218906 6.453125 3.0390625 C4 3 4 3 0 0 Z " fill="#6DC3CC" transform="translate(104,241)"/>
<path d="M0 0 C1.65 0 3.3 0 5 0 C4.95875 0.94875 4.9175 1.8975 4.875 2.875 C4.65026182 6.10244856 4.65026182 6.10244856 7 8 C7.1953125 10.1640625 7.1953125 10.1640625 7.125 12.625 C7.10695313 13.44226563 7.08890625 14.25953125 7.0703125 15.1015625 C7.03550781 16.04128906 7.03550781 16.04128906 7 17 C6.34 17 5.68 17 5 17 C5.061875 17.886875 5.12375 18.77375 5.1875 19.6875 C4.98048018 23.34485017 4.083926 25.04777151 2 28 C0.68 27.67 -0.64 27.34 -2 27 C-1.360625 26.071875 -0.72125 25.14375 -0.0625 24.1875 C3.39611009 18.84237532 3.54852737 14.20750143 3 8 C2.21752158 5.16579038 1.19931902 2.69846779 0 0 Z " fill="#6AB7C0" transform="translate(390,216)"/>
<path d="M0 0 C1.65 0 3.3 0 5 0 C5 0.99 5 1.98 5 3 C6.82643887 5.13951419 6.82643887 5.13951419 9.25 5.6875 C12.64434243 7.30752707 14.21734557 9.39497814 16.47265625 12.34375 C18.16298901 14.17674511 19.72500074 15.0215057 22 16 C22 17.65 22 19.3 22 21 C17.28712522 17.05433739 12.71878894 12.96404403 8.1875 8.8125 C7.32475464 8.02794434 7.32475464 8.02794434 6.44458008 7.22753906 C3.94483371 4.92622045 1.89369404 2.84054107 0 0 Z " fill="#67A7AC" transform="translate(335,121)"/>
<path d="M0 0 C2.475 0.99 2.475 0.99 5 2 C5 2.33 5 2.66 5 3 C3.35 3 1.7 3 0 3 C-2.45634954 7.73724554 -4.31057116 11.56500474 -4 17 C-3.01 17.33 -2.02 17.66 -1 18 C-1 18.66 -1 19.32 -1 20 C-3.81872737 19.61121002 -4.77195598 19.29189635 -6.5625 17 C-7.036875 16.34 -7.51125 15.68 -8 15 C-8.99 14.67 -9.98 14.34 -11 14 C-11 13.01 -11 12.02 -11 11 C-10.1646875 10.6596875 -10.1646875 10.6596875 -9.3125 10.3125 C-5.03688123 7.88579746 -1.86083181 4.56749627 0 0 Z " fill="#6BC3CB" transform="translate(346,107)"/>
<path d="M0 0 C4.5073626 0.53027795 7.4539073 2.19611275 11 5 C11 5.99 11 6.98 11 8 C11.99 8.33 12.98 8.66 14 9 C13.67 10.32 13.34 11.64 13 13 C11.8274869 12.04882866 10.66212985 11.08882991 9.5 10.125 C8.8503125 9.59132813 8.200625 9.05765625 7.53125 8.5078125 C7.0259375 8.01023437 6.520625 7.51265625 6 7 C6 6.34 6 5.68 6 5 C5.34 5 4.68 5 4 5 C4 4.34 4 3.68 4 3 C2.68 2.34 1.36 1.68 0 1 C0 0.67 0 0.34 0 0 Z " fill="#5FA2A4" transform="translate(130,376)"/>
<path d="M0 0 C1.98 1.65 3.96 3.3 6 5 C5.01 5.495 5.01 5.495 4 6 C4.33 6.99 4.66 7.98 5 9 C-1.27 9 -7.54 9 -14 9 C-14 8.67 -14 8.34 -14 8 C-9.05 7.67 -4.1 7.34 1 7 C0.67 6.67 0.34 6.34 0 6 C-0.04080783 4.00041636 -0.04254356 1.99954746 0 0 Z " fill="#64B3B9" transform="translate(406,159)"/>
<path d="M0 0 C4.13621084 3.3810038 7.81316569 6.66590534 11 11 C8.03 10.67 5.06 10.34 2 10 C1.67 9.01 1.34 8.02 1 7 C1.33 6.34 1.66 5.68 2 5 C1.34 4.67 0.68 4.34 0 4 C0 2.68 0 1.36 0 0 Z " fill="#5AA2A9" transform="translate(368,123)"/>
<path d="M0 0 C0.598125 0.226875 1.19625 0.45375 1.8125 0.6875 C1.214375 0.914375 0.61625 1.14125 0 1.375 C-2.74835774 3.02401464 -3.57961876 4.96109268 -5.1875 7.6875 C-6.1775 8.0175 -7.1675 8.3475 -8.1875 8.6875 C-9.39632096 10.68766466 -9.39632096 10.68766466 -10.1875 12.6875 C-11.1775 12.6875 -12.1675 12.6875 -13.1875 12.6875 C-13.5175 13.6775 -13.8475 14.6675 -14.1875 15.6875 C-14.1875 14.3675 -14.1875 13.0475 -14.1875 11.6875 C-13.5275 11.6875 -12.8675 11.6875 -12.1875 11.6875 C-11.8575 10.6975 -11.5275 9.7075 -11.1875 8.6875 C-10.5275 8.6875 -9.8675 8.6875 -9.1875 8.6875 C-9.1875 8.0275 -9.1875 7.3675 -9.1875 6.6875 C-8.5275 6.6875 -7.8675 6.6875 -7.1875 6.6875 C-6.919375 6.089375 -6.65125 5.49125 -6.375 4.875 C-3.46022727 -0.49431818 -3.46022727 -0.49431818 0 0 Z " fill="#4C8285" transform="translate(348.1875,105.3125)"/>
<path d="M0 0 C1 3 1 3 0.1796875 5.33984375 C-2.28000115 10.23712804 -4.21743151 13.99381409 -9 17 C-9.33 16.01 -9.66 15.02 -10 14 C-9.360625 13.773125 -8.72125 13.54625 -8.0625 13.3125 C-5.72806339 12.14749104 -5.72806339 12.14749104 -5.25 9.375 C-5.1675 8.59125 -5.085 7.8075 -5 7 C-4.01 7 -3.02 7 -2 7 C-2.33 5.68 -2.66 4.36 -3 3 C-2.01 2.67 -1.02 2.34 0 2 C0 1.34 0 0.68 0 0 Z " fill="#4F888B" transform="translate(414,238)"/>
<path d="M0 0 C0.66 0 1.32 0 2 0 C2 5.94 2 11.88 2 18 C1.34 18 0.68 18 0 18 C-0.33 18.66 -0.66 19.32 -1 20 C-0.67 13.4 -0.34 6.8 0 0 Z " fill="#69A6AB" transform="translate(414,220)"/>
<path d="M0 0 C1.17219543 0.78345715 2.33763668 1.57702836 3.5 2.375 C4.47453125 3.03628906 4.47453125 3.03628906 5.46875 3.7109375 C5.9740625 4.13632813 6.479375 4.56171875 7 5 C7 5.66 7 6.32 7 7 C7.9590625 7.433125 7.9590625 7.433125 8.9375 7.875 C11 9 11 9 12 11 C8.65626525 10.44271087 5.96687001 9.64826111 3 8 C3 7.01 3 6.02 3 5 C2.01 4.67 1.02 4.34 0 4 C0 2.68 0 1.36 0 0 Z " fill="#5D939A" transform="translate(394,148)"/>
<path d="M0 0 C5.09210286 3.56320845 9.22660027 7.04741286 13 12 C11.68 12.33 10.36 12.66 9 13 C8.7525 12.38125 8.505 11.7625 8.25 11.125 C7.18798848 8.86976683 7.18798848 8.86976683 5.0625 8.0625 C2.25009798 6.61368684 1.39247104 4.78494207 0 2 C0 1.34 0 0.68 0 0 Z " fill="#63A0A6" transform="translate(381,136)"/>
<path d="M0 0 C0.33 0 0.66 0 1 0 C1.08139142 2.39652528 1.14067009 4.79025436 1.1875 7.1875 C1.21263672 7.86103516 1.23777344 8.53457031 1.26367188 9.22851562 C1.32923478 13.70864748 0.66743649 16.39440999 -2 20 C-3.32 19.67 -4.64 19.34 -6 19 C-5.38125 18.278125 -4.7625 17.55625 -4.125 16.8125 C-0.77202435 11.90193638 -0.64962098 5.76111234 0 0 Z " fill="#538A93" transform="translate(394,224)"/>
<path d="M0 0 C0.66 0 1.32 0 2 0 C1.654156 3.11259604 1.12620033 4.82872813 -0.75 7.375 C-3 9 -3 9 -5.6875 8.875 C-8 8 -8 8 -9 6 C-6.69 6 -4.38 6 -2 6 C-2.33 4.68 -2.66 3.36 -3 2 C-2.34 2 -1.68 2 -1 2 C-0.67 1.34 -0.34 0.68 0 0 Z " fill="#568488" transform="translate(156,386)"/>
<path d="M0 0 C0.91007812 0.00902344 1.82015625 0.01804687 2.7578125 0.02734375 C3.80582031 0.04474609 3.80582031 0.04474609 4.875 0.0625 C1.37486942 2.39592039 -1.02130504 3.19109921 -5.13671875 3.16015625 C-6.27270508 3.15532227 -6.27270508 3.15532227 -7.43164062 3.15039062 C-8.21732422 3.14201172 -9.00300781 3.13363281 -9.8125 3.125 C-10.60978516 3.12048828 -11.40707031 3.11597656 -12.22851562 3.11132812 C-14.19404257 3.0995585 -16.15953085 3.08162348 -18.125 3.0625 C-18.125 2.7325 -18.125 2.4025 -18.125 2.0625 C-17.35414063 2.00191406 -16.58328125 1.94132812 -15.7890625 1.87890625 C-14.28472656 1.75322266 -14.28472656 1.75322266 -12.75 1.625 C-11.75226563 1.54378906 -10.75453125 1.46257812 -9.7265625 1.37890625 C-6.19902318 0.9498812 -3.68583292 -0.04725427 0 0 Z " fill="#65A8AC" transform="translate(391.125,260.9375)"/>
<path d="M0 0 C10.55808656 2.89066059 10.55808656 2.89066059 15 6 C13 7 13 7 9.75 6.25 C6.28838634 5.09612878 3.20971615 3.72228672 0 2 C0 1.34 0 0.68 0 0 Z " fill="#5A9498" transform="translate(388,194)"/>
<path d="M0 0 C8.56097561 4.12195122 8.56097561 4.12195122 10 7 C10.99 7.33 11.98 7.66 13 8 C13.33 9.65 13.66 11.3 14 13 C12.68 12.34 11.36 11.68 10 11 C10 10.34 10 9.68 10 9 C9.34 9 8.68 9 8 9 C8 8.34 8 7.68 8 7 C7.4225 6.773125 6.845 6.54625 6.25 6.3125 C3.4336339 4.66961977 1.91922886 2.60466773 0 0 Z " fill="#4E7B7E" transform="translate(93,340)"/>
<path d="M0 0 C1.65 0 3.3 0 5 0 C5 0.99 5 1.98 5 3 C7.22189824 5.22189824 9.08482708 5.92598892 12 7 C12 8.32 12 9.64 12 11 C8.57472113 9.52651292 6.35044942 7.59092154 3.75 4.9375 C3.04359375 4.22464844 2.3371875 3.51179688 1.609375 2.77734375 C0 1 0 1 0 0 Z " fill="#4B7F88" transform="translate(335,121)"/>
<path d="M0 0 C1.32 0.33 2.64 0.66 4 1 C4 1.99 4 2.98 4 4 C-3.26 4 -10.52 4 -18 4 C-18 3.67 -18 3.34 -18 3 C-12.06 2.67 -6.12 2.34 0 2 C0 1.34 0 0.68 0 0 Z " fill="#7ABDC1" transform="translate(410,165)"/>
<path d="M0 0 C3.25543229 0.34879632 4.01873107 1.02133261 6.25 3.5625 C6.8275 4.366875 7.405 5.17125 8 6 C6.35 6.33 4.7 6.66 3 7 C3 6.01 3 5.02 3 4 C2.01 4 1.02 4 0 4 C0 2.68 0 1.36 0 0 Z " fill="#6BAFB6" transform="translate(134,352)"/>
<path d="M0 0 C2.475 0.495 2.475 0.495 5 1 C5 1.99 5 2.98 5 4 C5.99 4 6.98 4 8 4 C7.34 5.32 6.68 6.64 6 8 C4.99403703 7.0479279 3.99538437 6.08812654 3 5.125 C2.443125 4.59132813 1.88625 4.05765625 1.3125 3.5078125 C0 2 0 2 0 0 Z " fill="#5FA1A6" transform="translate(107,352)"/>
<path d="M0 0 C2.875 0.3125 2.875 0.3125 6 1 C8 4 8 4 7.625 6.1875 C7.41875 6.785625 7.2125 7.38375 7 8 C5.83035398 6.8572081 4.66435444 5.71068285 3.5 4.5625 C2.8503125 3.92441406 2.200625 3.28632813 1.53125 2.62890625 C0 1 0 1 0 0 Z " fill="#5D9698" transform="translate(114,360)"/>
<path d="M0 0 C3.3 0 6.6 0 10 0 C8.68 0.33 7.36 0.66 6 1 C6.33 2.98 6.66 4.96 7 7 C4 6 4 6 2.9375 4.0625 C2.628125 3.381875 2.31875 2.70125 2 2 C1.34 1.34 0.68 0.68 0 0 Z " fill="#6AC7CE" transform="translate(88,332)"/>
<path d="M0 0 C1.65 0 3.3 0 5 0 C6.06775224 1.96466413 7.06553465 3.96855359 8 6 C7.67 6.66 7.34 7.32 7 8 C5.83035398 6.8572081 4.66435444 5.71068285 3.5 4.5625 C2.8503125 3.92441406 2.200625 3.28632813 1.53125 2.62890625 C0 1 0 1 0 0 Z " fill="#4E9092" transform="translate(122,368)"/>
<path d="M0 0 C3.375 0.625 3.375 0.625 7 2 C8.4375 5.125 8.4375 5.125 9 8 C8.34 8 7.68 8 7 8 C7 7.34 7 6.68 7 6 C6.401875 5.7525 5.80375 5.505 5.1875 5.25 C2.71352479 3.83629988 1.56629745 2.34944617 0 0 Z " fill="#58999E" transform="translate(357,142)"/>
<path d="M0 0 C3.67420866 0.30618405 4.78135513 0.75771784 7.3125 3.5625 C8.1478125 4.7690625 8.1478125 4.7690625 9 6 C7.35 5.67 5.7 5.34 4 5 C4 4.34 4 3.68 4 3 C2.68 2.67 1.36 2.34 0 2 C0 1.34 0 0.68 0 0 Z " fill="#6EA3A6" transform="translate(347,106)"/>
<path d="M0 0 C0.66 0 1.32 0 2 0 C2 0.66 2 1.32 2 2 C2.66 2 3.32 2 4 2 C4 2.66 4 3.32 4 4 C4.9590625 4.433125 4.9590625 4.433125 5.9375 4.875 C8 6 8 6 9 8 C5.81390075 7.64598897 4.20933322 7.16972964 1.6875 5.125 C0 3 0 3 0 0 Z " fill="#58898C" transform="translate(142,358)"/>
<path d="M0 0 C1.65 0 3.3 0 5 0 C-0.14285714 5.57142857 -0.14285714 5.57142857 -4 6 C-3.67 5.01 -3.34 4.02 -3 3 C-2.34 3 -1.68 3 -1 3 C-0.67 2.01 -0.34 1.02 0 0 Z " fill="#4F8E8A" transform="translate(400,255)"/>
<path d="M0 0 C6.625 -0.125 6.625 -0.125 10 1 C10 1.66 10 2.32 10 3 C7.03 3 4.06 3 1 3 C0.67 2.01 0.34 1.02 0 0 Z " fill="#60A7AB" transform="translate(144,389)"/>
<path d="M0 0 C2.02054804 1.64169528 4.02043058 3.30911778 6 5 C6 5.33 6 5.66 6 6 C4.02 6 2.04 6 0 6 C0 4.02 0 2.04 0 0 Z " fill="#578C91" transform="translate(151,366)"/>
<path d="M0 0 C1.65 0 3.3 0 5 0 C4.67 2.64 4.34 5.28 4 8 C2.66666667 5.33333333 1.33333333 2.66666667 0 0 Z " fill="#56979B" transform="translate(390,216)"/>
<path d="M0 0 C1.32 0 2.64 0 4 0 C4 0.66 4 1.32 4 2 C5.32 2.33 6.64 2.66 8 3 C7.67 4.32 7.34 5.64 7 7 C5.83040013 6.02433888 4.66438823 5.044375 3.5 4.0625 C2.8503125 3.51722656 2.200625 2.97195313 1.53125 2.41015625 C1.0259375 1.94480469 0.520625 1.47945313 0 1 C0 0.67 0 0.34 0 0 Z " fill="#588C8E" transform="translate(136,382)"/>
<path d="M0 0 C0.66 0 1.32 0 2 0 C1.64950425 3.24208567 1.43778819 4.61527704 -1.0625 6.8125 C-1.701875 7.204375 -2.34125 7.59625 -3 8 C-3.33 7.01 -3.66 6.02 -4 5 C-2.68 4.34 -1.36 3.68 0 3 C0 2.01 0 1.02 0 0 Z " fill="#5C9CA1" transform="translate(408,247)"/>
<path d="M0 0 C1.98 1.65 3.96 3.3 6 5 C4.02 5.99 4.02 5.99 2 7 C0.5393715 4.35261084 0 3.10551666 0 0 Z " fill="#599598" transform="translate(388,142)"/>

<path d="M0 0 C1.9375 0.75 1.9375 0.75 4 2 C4.75 4.125 4.75 4.125 5 6 C3.68 5.67 2.36 5.34 1 5 C0.67 3.35 0.34 1.7 0 0 Z " fill="#6DC2C6" transform="translate(143,384)"/>
<path d="M0 0 C2.76223278 2.76223278 2.57856291 5.20706617 3 9 C2.01 9 1.02 9 0 9 C0 6.03 0 3.06 0 0 Z " fill="#528085" transform="translate(412,211)"/>
<path d="M0 0 C2.475 0.495 2.475 0.495 5 1 C5.33 2.65 5.66 4.3 6 6 C4.68 5.34 3.36 4.68 2 4 C2 3.01 2 2.02 2 1 C1.34 0.67 0.68 0.34 0 0 Z " fill="#659EA1" transform="translate(406,207)"/>
<path d="M0 0 C2.31 1.98 4.62 3.96 7 6 C5.68 6.33 4.36 6.66 3 7 C0 2.25 0 2.25 0 0 Z " fill="#4F8B8D" transform="translate(372,127)"/>
</svg>
