<?xml version="1.0" encoding="UTF-8"?>
<svg version="1.1" xmlns="http://www.w3.org/2000/svg" width="218" height="148" viewBox="197 132 218 148">
<path d="M0 0 C0.85875732 0.11746582 1.71751465 0.23493164 2.60229492 0.35595703 C3.40256104 0.48212402 4.20282715 0.60829102 5.02734375 0.73828125 C6.08876587 0.90324097 6.08876587 0.90324097 7.17163086 1.0715332 C9.44798807 1.81307604 10.51173322 2.89703341 12.0625 4.6875 C11.7325 5.6775 11.4025 6.6675 11.0625 7.6875 C15.46313128 8.06469697 17.36487817 6.95649521 21.0625 4.6875 C33.16870101 -0.43898273 46.31750677 0.55139579 59.1953125 0.58984375 C61.04190024 0.59171181 62.88848849 0.59313388 64.7350769 0.59413147 C69.56499633 0.59792612 74.39488507 0.60772991 79.22479248 0.61883545 C84.16548243 0.62911562 89.10617741 0.63364317 94.046875 0.63867188 C103.71876339 0.64935528 113.39062913 0.6663945 123.0625 0.6875 C123.22560968 2.92996404 123.38788395 5.17248886 123.54980469 7.41503906 C123.64026062 8.6638385 123.73071655 9.91263794 123.82391357 11.19927979 C124.08071056 14.95374506 124.26048322 18.67495315 124.3125 22.4375 C124.35117187 24.16226563 124.35117187 24.16226563 124.390625 25.921875 C124.22820312 27.29085937 124.22820312 27.29085937 124.0625 28.6875 C120.90524381 30.79233746 120.18875389 30.9347059 116.59106445 30.91455078 C115.24000359 30.91432419 115.24000359 30.91432419 113.86164856 30.91409302 C112.89281235 30.90377045 111.92397614 30.89344788 110.92578125 30.8828125 C109.43391548 30.87856766 109.43391548 30.87856766 107.91191101 30.87423706 C104.7328187 30.86303489 101.55400728 30.83793014 98.375 30.8125 C96.22070719 30.80247025 94.06640997 30.79334439 91.91210938 30.78515625 C86.62881028 30.76309546 81.34567521 30.72961756 76.0625 30.6875 C75.83965332 32.5581311 75.83965332 32.5581311 75.61230469 34.46655273 C75.15210545 38.32958095 74.32865136 41.98940705 73.3125 45.75 C73.14057129 46.38631348 72.96864258 47.02262695 72.79150391 47.67822266 C71.16945133 53.55365755 69.2302879 59.3053268 67.2109375 65.0546875 C66.37312678 67.7049051 65.71196139 70.18656047 65.1484375 72.890625 C63.93384772 78.57760692 62.13940463 84.04692153 60.3125 89.5625 C59.82910156 91.08037109 59.82910156 91.08037109 59.3359375 92.62890625 C55.4488847 104.39552732 49.52318853 116.34749909 40.0625 124.6875 C39.4025 124.6875 38.7425 124.6875 38.0625 124.6875 C37.7325 125.6775 37.4025 126.6675 37.0625 127.6875 C36.4025 127.6875 35.7425 127.6875 35.0625 127.6875 C35.0625 128.3475 35.0625 129.0075 35.0625 129.6875 C33.825 130.2753125 33.825 130.2753125 32.5625 130.875 C29.99048393 132.20693689 27.66533203 133.5567283 25.25 135.125 C17.84738787 139.77087378 11.16144918 142.11857631 2.46875 143.29296875 C0.11726924 143.438271 0.11726924 143.438271 -0.9375 144.6875 C-12.7100959 146.0053279 -24.61408789 146.55148384 -35.9375 142.6875 C-37.70258029 142.3628283 -39.47392884 142.07035922 -41.25 141.8125 C-49.32116909 140.41072301 -55.96326306 136.84236456 -62.9375 132.6875 C-62.9375 132.0275 -62.9375 131.3675 -62.9375 130.6875 C-63.494375 130.625625 -64.05125 130.56375 -64.625 130.5 C-67.88846487 129.35337721 -69.57804906 127.16794843 -71.9375 124.6875 C-73.4225 123.6975 -73.4225 123.6975 -74.9375 122.6875 C-74.9375 122.0275 -74.9375 121.3675 -74.9375 120.6875 C-76.4225 120.1925 -76.4225 120.1925 -77.9375 119.6875 C-78.2675 118.6975 -78.5975 117.7075 -78.9375 116.6875 C-79.91654243 115.66697272 -80.91922312 114.66888279 -81.9375 113.6875 C-93.45321153 99.37151982 -94.5542509 78.22613488 -92.9375 60.6875 C-92.00533718 54.77897539 -90.25036732 49.2030608 -88.125 43.625 C-87.86364258 42.93470703 -87.60228516 42.24441406 -87.33300781 41.53320312 C-85.37318479 36.50180293 -83.1943438 32.0299584 -79.9375 27.6875 C-79.2775 27.6875 -78.6175 27.6875 -77.9375 27.6875 C-77.875625 27.130625 -77.81375 26.57375 -77.75 26 C-75.9524359 20.88385602 -70.65438539 17.5229018 -66.5859375 14.1171875 C-64.93277835 12.73384842 -64.93277835 12.73384842 -63.56591797 11.21923828 C-47.72701874 -3.67930051 -19.8435773 -2.79041889 0 0 Z M3.6875 11.9375 C2.388125 13.29875 2.388125 13.29875 1.0625 14.6875 C0.299375 15.409375 -0.46375 16.13125 -1.25 16.875 C-3.16463951 18.51872273 -3.16463951 18.51872273 -2.9375 20.6875 C-3.5975 20.6875 -4.2575 20.6875 -4.9375 20.6875 C-7.1388866 24.49177492 -7.1388866 24.49177492 -7.9375 28.6875 C-8.5975 28.6875 -9.2575 28.6875 -9.9375 28.6875 C-10.5975 29.3475 -11.2575 30.0075 -11.9375 30.6875 C-14.08334859 30.72837331 -16.23148109 30.67049767 -18.375 30.5625 C-29.55245565 30.4367822 -37.8383144 33.99327368 -45.9375 41.6875 C-48.33623305 44.34746858 -48.33623305 44.34746858 -48.9375 47.6875 C-49.5975 47.6875 -50.2575 47.6875 -50.9375 47.6875 C-57.37629927 59.06271204 -58.94979554 72.80558769 -55.69921875 85.53125 C-54.28145862 89.54460177 -52.16359403 93.07780291 -49.9375 96.6875 C-49.380625 97.71875 -48.82375 98.75 -48.25 99.8125 C-41.85046163 107.76868283 -32.84790643 111.86319633 -22.9375 113.6875 C-19.72912549 113.70522583 -17.10084463 113.33089213 -13.9375 112.6875 C-13.9375 113.3475 -13.9375 114.0075 -13.9375 114.6875 C-11.30079915 114.21630251 -8.66537823 113.73931906 -6.03125 113.25390625 C-4.07503861 112.89576149 -2.11686524 112.54803819 -0.15625 112.21484375 C1.12765625 111.98474609 1.12765625 111.98474609 2.4375 111.75 C3.20835937 111.61722656 3.97921875 111.48445313 4.7734375 111.34765625 C15.29229642 108.31406042 23.16602428 99.15106322 28.37890625 90.046875 C31.8137791 83.19306839 33.76101905 76.21466191 35.375 68.75 C36.92412145 61.62750306 39.26301324 54.81459636 41.63793945 47.93383789 C41.93531006 47.06879639 42.23268066 46.20375488 42.5390625 45.3125 C42.80799316 44.54164063 43.07692383 43.77078125 43.35400391 42.9765625 C44.63953994 38.82315595 45.18664765 35.03266786 45.0625 30.6875 C38.53032525 29.97748101 33.48277337 32.00129876 28.0625 35.6875 C27.5675 37.1725 27.5675 37.1725 27.0625 38.6875 C26.44375 38.935 25.825 39.1825 25.1875 39.4375 C21.98770749 41.31973089 21.04311605 44.25846681 20.0625 47.6875 C19.7325 49.9975 19.4025 52.3075 19.0625 54.6875 C8.8325 54.6875 -1.3975 54.6875 -11.9375 54.6875 C-10.73675182 45.08151453 -9.68621824 37.51327394 -5.11328125 28.9609375 C-3.73051806 26.28728907 -2.77363389 23.57596254 -1.9375 20.6875 C-1.2775 20.6875 -0.6175 20.6875 0.0625 20.6875 C1.77243434 19.0652546 3.43597684 17.39336575 5.0625 15.6875 C5.660625 15.15125 6.25875 14.615 6.875 14.0625 C8.38930994 12.61188937 8.38930994 12.61188937 8.0625 9.6875 C5.75922371 9.45825178 5.75922371 9.45825178 3.6875 11.9375 Z " fill="#1f2937" transform="translate(290.9375,134.3125)"/>
<path d="M0 0 C1.84658774 0.00186806 3.69317599 0.00329013 5.5397644 0.00428772 C10.36968383 0.00808237 15.19957257 0.01788616 20.02947998 0.0289917 C24.97016993 0.03927187 29.91086491 0.04379942 34.8515625 0.04882812 C44.52345089 0.05951153 54.19531663 0.07655075 63.8671875 0.09765625 C64.03029718 2.34012029 64.19257145 4.58264511 64.35449219 6.82519531 C64.44494812 8.07399475 64.53540405 9.32279419 64.62860107 10.60943604 C64.88539806 14.36390131 65.06517072 18.0851094 65.1171875 21.84765625 C65.15585937 23.57242188 65.15585937 23.57242188 65.1953125 25.33203125 C65.03289062 26.70101562 65.03289062 26.70101562 64.8671875 28.09765625 C61.70993131 30.20249371 60.99344139 30.34486215 57.39575195 30.32470703 C56.04469109 30.32448044 56.04469109 30.32448044 54.66633606 30.32424927 C53.69749985 30.3139267 52.72866364 30.30360413 51.73046875 30.29296875 C50.23860298 30.28872391 50.23860298 30.28872391 48.71659851 30.28439331 C45.5375062 30.27319114 42.35869478 30.24808639 39.1796875 30.22265625 C37.02539469 30.2126265 34.87109747 30.20350064 32.71679688 30.1953125 C27.43349778 30.17325171 22.15036271 30.13977381 16.8671875 30.09765625 C16.72079834 31.33749268 16.57440918 32.5773291 16.42358398 33.85473633 C15.94109402 37.94116345 15.01195986 41.81137885 13.9296875 45.78515625 C13.42115234 47.67814453 13.42115234 47.67814453 12.90234375 49.609375 C12.03506063 52.53195547 11.06153649 55.29655975 9.8671875 58.09765625 C9.5371875 58.09765625 9.2071875 58.09765625 8.8671875 58.09765625 C8.8671875 55.45765625 8.8671875 52.81765625 8.8671875 50.09765625 C9.1971875 50.09765625 9.5271875 50.09765625 9.8671875 50.09765625 C9.8465625 49.02515625 9.8259375 47.95265625 9.8046875 46.84765625 C9.85445618 43.86153569 10.05774394 41.88573962 10.8671875 39.09765625 C11.21297518 37.09977187 11.54862299 35.10006174 11.8671875 33.09765625 C11.2071875 33.09765625 10.5471875 33.09765625 9.8671875 33.09765625 C9.8671875 31.77765625 9.8671875 30.45765625 9.8671875 29.09765625 C11.8671875 30.09765625 11.8671875 30.09765625 12.8671875 31.09765625 C13.1971875 30.43765625 13.5271875 29.77765625 13.8671875 29.09765625 C14.5271875 29.09765625 15.1871875 29.09765625 15.8671875 29.09765625 C15.8671875 28.43765625 15.8671875 27.77765625 15.8671875 27.09765625 C22.4671875 27.09765625 29.0671875 27.09765625 35.8671875 27.09765625 C36.1971875 26.43765625 36.5271875 25.77765625 36.8671875 25.09765625 C38.3521875 25.59265625 38.3521875 25.59265625 39.8671875 26.09765625 C41.0015625 26.09765625 42.1359375 26.09765625 43.3046875 26.09765625 C46.14939922 26.09765625 48.20069879 26.24437986 50.8671875 27.09765625 C51.1971875 26.43765625 51.5271875 25.77765625 51.8671875 25.09765625 C51.8671875 25.75765625 51.8671875 26.41765625 51.8671875 27.09765625 C53.8471875 27.09765625 55.8271875 27.09765625 57.8671875 27.09765625 C58.1765625 26.47890625 58.4859375 25.86015625 58.8046875 25.22265625 C59.4921875 23.84765625 60.1796875 22.47265625 60.8671875 21.09765625 C60.93811592 18.89036395 60.95133775 16.68098173 60.9296875 14.47265625 C60.92066406 13.28414062 60.91164063 12.095625 60.90234375 10.87109375 C60.89074219 9.95585937 60.87914062 9.040625 60.8671875 8.09765625 C60.2071875 8.09765625 59.5471875 8.09765625 58.8671875 8.09765625 C58.39667969 8.59136719 57.92617188 9.08507812 57.44140625 9.59375 C52.24740982 14.93829705 47.61455969 15.67938511 40.5078125 15.83203125 C39.59208969 15.86354782 38.67636688 15.89506439 37.7328949 15.92753601 C25.77929085 16.28275601 13.8050258 16.08114707 1.8503418 15.85083008 C-13.47255826 15.57187753 -29.04436249 15.83469071 -42.1328125 25.09765625 C-43.96758263 27.15030534 -45.50037322 29.20187238 -46.9765625 31.5234375 C-47.358125 32.04292969 -47.7396875 32.56242187 -48.1328125 33.09765625 C-48.7928125 33.09765625 -49.4528125 33.09765625 -50.1328125 33.09765625 C-50.4009375 34.37640625 -50.6690625 35.65515625 -50.9453125 36.97265625 C-51.70471349 40.5944148 -51.83359053 40.89817493 -55.1328125 43.09765625 C-56.1228125 43.09765625 -57.1128125 43.09765625 -58.1328125 43.09765625 C-58.1328125 43.75765625 -58.1328125 44.41765625 -58.1328125 45.09765625 C-59.890625 46.07421875 -61.6484375 47.05078125 -63.40625 48.02734375 C-65.2940739 49.10662899 -65.2940739 49.10662899 -67.1328125 51.09765625 C-54.2628125 51.59265625 -54.2628125 51.59265625 -41.1328125 52.09765625 C-40.4728125 49.12765625 -39.8128125 46.15765625 -39.1328125 43.09765625 C-38.1428125 42.10765625 -37.1528125 41.11765625 -36.1328125 40.09765625 C-37.3099365 44.80615226 -38.73819638 49.44893584 -40.1328125 54.09765625 C-50.3628125 54.09765625 -60.5928125 54.09765625 -71.1328125 54.09765625 C-72.11553053 49.18406609 -71.78449531 46.15458081 -70.5703125 41.47265625 C-70.39266357 40.77060059 -70.21501465 40.06854492 -70.03198242 39.34521484 C-68.32587423 33.04319226 -65.58043446 27.63506751 -62.1328125 22.09765625 C-61.8028125 21.43765625 -61.4728125 20.77765625 -61.1328125 20.09765625 C-60.4728125 20.09765625 -59.8128125 20.09765625 -59.1328125 20.09765625 C-58.9059375 19.52015625 -58.6790625 18.94265625 -58.4453125 18.34765625 C-56.80771566 15.54034738 -54.66016392 14.10657661 -52.1328125 12.09765625 C-51.8028125 11.10765625 -51.4728125 10.11765625 -51.1328125 9.09765625 C-51.7928125 8.76765625 -52.4528125 8.43765625 -53.1328125 8.09765625 C-50.1328125 7.09765625 -50.1328125 7.09765625 -46.7578125 7.22265625 C-42.69270492 7.08248013 -41.48264786 6.25112184 -38.1328125 4.09765625 C-26.04037908 -1.0434382 -12.8676365 -0.0384176 0 0 Z " fill="#007780" transform="translate(350.1328125,134.90234375)"/>
<path d="M0 0 C1.97636414 0.9805603 1.97636414 0.9805603 4 3 C4.35690323 5.90174419 4.4583047 8.41414315 4.37817383 11.31103516 C4.37061066 12.15842758 4.36304749 13.00582001 4.35525513 13.87889099 C4.32525607 16.6829073 4.26644873 19.4855275 4.20703125 22.2890625 C4.17967281 24.23291859 4.1539525 26.17679837 4.12980652 28.12069702 C4.07517755 32.19469339 4.00752049 36.26818327 3.92944336 40.34179688 C3.82920643 45.57540761 3.75069601 50.80903877 3.6805315 56.04313087 C3.6130896 61.02105399 3.53576516 65.99880704 3.45703125 70.9765625 C3.43532836 72.41075468 3.43532836 72.41075468 3.41318703 73.87392044 C3.37048526 76.56532927 3.32086014 79.25651186 3.26879883 81.94775391 C3.25675919 82.75295975 3.24471954 83.55816559 3.23231506 84.38777161 C3.11491884 89.88508116 3.11491884 89.88508116 2 91 C-0.27947792 91.1002093 -2.56207135 91.13081303 -4.84375 91.1328125 C-5.52804077 91.13376923 -6.21233154 91.13472595 -6.9173584 91.13571167 C-8.36661877 91.1363933 -9.81588218 91.13454023 -11.26513672 91.13037109 C-13.49062928 91.12502252 -15.71592001 91.1303166 -17.94140625 91.13671875 C-19.34635461 91.13605797 -20.75130285 91.1347768 -22.15625 91.1328125 C-23.44337891 91.13168457 -24.73050781 91.13055664 -26.05664062 91.12939453 C-29 91 -29 91 -30 90 C-30.27742966 86.88354012 -30.23176472 83.75235077 -30.25 80.625 C-30.270625 79.7484375 -30.29125 78.871875 -30.3125 77.96875 C-30.31765625 77.12570312 -30.3228125 76.28265625 -30.328125 75.4140625 C-30.3374707 74.6401416 -30.34681641 73.8662207 -30.35644531 73.06884766 C-29.90909104 70.47235445 -29.07137673 69.58032302 -27 68 C-26.34 68 -25.68 68 -25 68 C-24.34 66.35 -23.68 64.7 -23 63 C-22.34 63 -21.68 63 -21 63 C-20.91363281 62.33484375 -20.82726562 61.6696875 -20.73828125 60.984375 C-19.78041696 57.11237331 -17.98439204 53.78259087 -16.1875 50.25 C-12.56529908 42.88883089 -10.40317042 35.72771046 -8.7890625 27.70703125 C-7.86110365 23.3474622 -6.47947307 19.29739772 -4.9375 15.125 C-3.81776273 11.39254244 -3.40072867 7.87371043 -3 4 C-2.01 3.67 -1.02 3.34 0 3 C0 2.01 0 1.02 0 0 Z " fill="#007780" transform="translate(365,186)"/>
<path d="M0 0 C1.1796875 2.6640625 1.1796875 2.6640625 2 6 C0.8828125 8.7734375 0.8828125 8.7734375 -0.875 11.375 C-1.44992187 12.24898437 -2.02484375 13.12296875 -2.6171875 14.0234375 C-3.07351563 14.67570313 -3.52984375 15.32796875 -4 16 C-5.43410153 12.21180727 -4.51009497 9.93478721 -3.0625 6.25 C-2.68222656 5.26515625 -2.30195313 4.2803125 -1.91015625 3.265625 C-1.60980469 2.51796875 -1.30945313 1.7703125 -1 1 C-1.72445312 1.53109375 -2.44890625 2.0621875 -3.1953125 2.609375 C-4.16210938 3.31578125 -5.12890625 4.0221875 -6.125 4.75 C-7.12660156 5.48734375 -8.12820313 6.2246875 -9.16015625 6.984375 C-11.27283493 8.48388284 -13.30380537 9.76081591 -15.5625 11 C-19.11602038 13.91570903 -19.25538105 16.53228629 -20 21 C-20.66 20.67 -21.32 20.34 -22 20 C-22 18.68 -22 17.36 -22 16 C-28.20731609 15.18324788 -32.83234435 17.88695443 -38 21 C-40.39909163 22.97827485 -40.39909163 22.97827485 -42 25 C-42.99 25.99 -43.98 26.98 -45 28 C-45.99 30.97 -46.98 33.94 -48 37 C-56.91 37 -65.82 37 -75 37 C-71 32 -71 32 -68 30 C-67.01 30 -66.02 30 -65 30 C-65 29.34 -65 28.68 -65 28 C-63.576875 27.7525 -63.576875 27.7525 -62.125 27.5 C-58.91873588 26.37777898 -58.91873588 26.37777898 -58.15625 24.0859375 C-57.67381375 22.07815136 -57.32880438 20.03858716 -57 18 C-56.34 18 -55.68 18 -55 18 C-54.6596875 17.195625 -54.6596875 17.195625 -54.3125 16.375 C-50.42817559 9.3462225 -46.4098561 6.63316472 -39 4 C-37.60587891 3.43925781 -37.60587891 3.43925781 -36.18359375 2.8671875 C-24.4349985 -1.25563243 -12.28607594 -0.37625203 0 0 Z " fill="#007780" transform="translate(357,150)"/>
<path d="M0 0 C0.33 0 0.66 0 1 0 C0.99887207 0.82201904 0.99774414 1.64403809 0.99658203 2.4909668 C1.00870476 6.22397558 1.06636388 9.95494417 1.125 13.6875 C1.12242187 14.98107422 1.11984375 16.27464844 1.1171875 17.60742188 C0.98871143 24.12663731 0.98871143 24.12663731 3.39355469 29.93994141 C5.19342704 31.445668 5.19342704 31.445668 8 33 C8 33.66 8 34.32 8 35 C11.71599191 35.20086443 12.77208445 35.1519437 16 33 C16 35.97 16 38.94 16 42 C11.60343827 42.02465504 7.2069128 42.04283842 2.81030273 42.05493164 C1.31355082 42.05997121 -0.18319616 42.06680287 -1.67993164 42.07543945 C-3.82699807 42.08752159 -5.97399962 42.09323191 -8.12109375 42.09765625 C-10.06133423 42.10551147 -10.06133423 42.10551147 -12.04077148 42.11352539 C-15 42 -15 42 -16 41 C-16.27742966 37.88354012 -16.23176472 34.75235077 -16.25 31.625 C-16.270625 30.7484375 -16.29125 29.871875 -16.3125 28.96875 C-16.31765625 28.12570312 -16.3228125 27.28265625 -16.328125 26.4140625 C-16.3374707 25.6401416 -16.34681641 24.8662207 -16.35644531 24.06884766 C-15.90909104 21.47235445 -15.07137673 20.58032302 -13 19 C-12.34 19 -11.68 19 -11 19 C-10.7525 18.195625 -10.505 17.39125 -10.25 16.5625 C-9 14 -9 14 -6.875 13.1875 C-6.25625 13.125625 -5.6375 13.06375 -5 13 C-4.87753906 12.43796875 -4.75507813 11.8759375 -4.62890625 11.296875 C-3.9480131 8.81013481 -3.00647675 6.59485224 -1.9375 4.25 C-1.57527344 3.45078125 -1.21304687 2.6515625 -0.83984375 1.828125 C-0.56269531 1.22484375 -0.28554688 0.6215625 0 0 Z " fill="#007780" transform="translate(351,235)"/>
<path d="M0 0 C5.94 0 11.88 0 18 0 C18 4.54297427 17.77821161 6.13532044 14.75 9.5 C12.23150988 11.78953648 9.95130378 13.34439056 7 15 C6.113125 15.66 5.22625 16.32 4.3125 17 C-2.4530242 21.0848448 -9.17358545 22.43480081 -17 22 C-17.33 21.01 -17.66 20.02 -18 19 C-17.35933594 18.68289062 -16.71867187 18.36578125 -16.05859375 18.0390625 C-8.35540281 13.88324265 -2.82002763 8.4600829 0 0 Z " fill="#1f2937" transform="translate(295,224)"/>
<path d="M0 0 C1.84229884 0.00373879 3.68459969 0.00658166 5.52690125 0.00857544 C10.33216014 0.01614382 15.13729454 0.03573241 19.94250488 0.0579834 C24.86334551 0.07858976 29.78420662 0.08760851 34.70507812 0.09765625 C44.32817914 0.11898597 53.95118852 0.15303791 63.57421875 0.1953125 C63.73732843 2.43777654 63.8996027 4.68030136 64.06152344 6.92285156 C64.15197937 8.171651 64.2424353 9.42045044 64.33563232 10.70709229 C64.59242931 14.46155756 64.77220197 18.18276565 64.82421875 21.9453125 C64.85 23.09515625 64.87578125 24.245 64.90234375 25.4296875 C64.7940625 26.34234375 64.68578125 27.255 64.57421875 28.1953125 C61.41696256 30.30014996 60.70047264 30.4425184 57.1027832 30.42236328 C55.75172234 30.42213669 55.75172234 30.42213669 54.37336731 30.42190552 C53.4045311 30.41158295 52.43569489 30.40126038 51.4375 30.390625 C49.94563423 30.38638016 49.94563423 30.38638016 48.42362976 30.38204956 C45.24453745 30.37084739 42.06572603 30.34574264 38.88671875 30.3203125 C36.73242594 30.31028275 34.57812872 30.30115689 32.42382812 30.29296875 C27.14052903 30.27090796 21.85739396 30.23743006 16.57421875 30.1953125 C16.42782959 31.43514893 16.28144043 32.67498535 16.13061523 33.95239258 C15.64812527 38.0388197 14.71899111 41.9090351 13.63671875 45.8828125 C13.29769531 47.14480469 12.95867187 48.40679687 12.609375 49.70703125 C11.74209188 52.62961172 10.76856774 55.394216 9.57421875 58.1953125 C9.24421875 58.1953125 8.91421875 58.1953125 8.57421875 58.1953125 C8.57421875 55.5553125 8.57421875 52.9153125 8.57421875 50.1953125 C8.90421875 50.1953125 9.23421875 50.1953125 9.57421875 50.1953125 C9.55359375 49.1228125 9.53296875 48.0503125 9.51171875 46.9453125 C9.56148743 43.95919194 9.76477519 41.98339587 10.57421875 39.1953125 C10.92000643 37.19742812 11.25565424 35.19771799 11.57421875 33.1953125 C10.91421875 33.1953125 10.25421875 33.1953125 9.57421875 33.1953125 C9.57421875 31.8753125 9.57421875 30.5553125 9.57421875 29.1953125 C11.57421875 30.1953125 11.57421875 30.1953125 12.57421875 31.1953125 C12.90421875 30.5353125 13.23421875 29.8753125 13.57421875 29.1953125 C14.23421875 29.1953125 14.89421875 29.1953125 15.57421875 29.1953125 C15.57421875 28.5353125 15.57421875 27.8753125 15.57421875 27.1953125 C22.17421875 27.1953125 28.77421875 27.1953125 35.57421875 27.1953125 C35.90421875 26.5353125 36.23421875 25.8753125 36.57421875 25.1953125 C38.05921875 25.6903125 38.05921875 25.6903125 39.57421875 26.1953125 C40.70859375 26.1953125 41.84296875 26.1953125 43.01171875 26.1953125 C45.85643047 26.1953125 47.90773004 26.34203611 50.57421875 27.1953125 C50.90421875 26.5353125 51.23421875 25.8753125 51.57421875 25.1953125 C51.57421875 26.1853125 51.57421875 27.1753125 51.57421875 28.1953125 C55.20421875 28.1953125 58.83421875 28.1953125 62.57421875 28.1953125 C62.57421875 19.2853125 62.57421875 10.3753125 62.57421875 1.1953125 C52.28934309 1.28132281 42.00462164 1.37532887 31.71994781 1.48283958 C26.94272173 1.53247064 22.1655143 1.57879925 17.38818359 1.6171875 C12.76501542 1.65446505 8.14201728 1.70093053 3.51899719 1.75337601 C1.7682854 1.77169732 0.01753749 1.78688427 -1.73323059 1.79865646 C-12.77708181 1.87546875 -23.49936649 2.5578154 -34.42578125 4.1953125 C-27.54407263 -2.68639612 -9.1533532 -0.05515045 0 0 Z " fill="#007780" transform="translate(350.42578125,134.8046875)"/>
<path d="M0 0 C-0.72023117 3.9987835 -1.79679373 7.80804449 -3 11.6875 C-3.350625 12.82574219 -3.70125 13.96398437 -4.0625 15.13671875 C-5 18 -5 18 -6 20 C-7.92578125 20.44921875 -7.92578125 20.44921875 -10.3125 20.6875 C-11.09238281 20.77386719 -11.87226563 20.86023438 -12.67578125 20.94921875 C-14.99287105 20.99984424 -16.79287394 20.67173402 -19 20 C-19.52364821 14.13514009 -18.93530047 10.63886489 -15.5625 5.76171875 C-11.59168573 1.28462566 -5.87352302 -1.95784101 0 0 Z " fill="#007780" transform="translate(333,169)"/>
<path d="M0 0 C1.33332095 2.6666419 0.67102033 4.16680303 0 7 C1.98 7.66 3.96 8.32 6 9 C6 9.66 6 10.32 6 11 C6.66 11.33 7.32 11.66 8 12 C0.76337214 17.52268969 -6.96564457 19.50190864 -16 19 C-16.33 18.01 -16.66 17.02 -17 16 C-16.35933594 15.68289062 -15.71867187 15.36578125 -15.05859375 15.0390625 C-7.97776041 11.2190004 -4.10171123 6.87240358 0 0 Z " fill="#1f2937" transform="translate(294,227)"/>
<path d="M0 0 C1.18422255 3.44139841 0.80199625 5.50949969 -0.3125 8.9375 C-0.57675781 9.77152344 -0.84101563 10.60554687 -1.11328125 11.46484375 C-1.68964558 13.11268714 -2.30892111 14.74635341 -2.9765625 16.359375 C-6.12054056 24.47131838 -8.29206199 33.32775934 -9 42 C-10.485 42.495 -10.485 42.495 -12 43 C-11.38096523 39.9570882 -10.75369647 36.91592903 -10.125 33.875 C-9.95097656 33.0190625 -9.77695312 32.163125 -9.59765625 31.28125 C-8.44043284 25.7094336 -6.91148147 20.46636162 -4.9375 15.125 C-3.81776273 11.39254244 -3.40072867 7.87371043 -3 4 C-2.01 3.67 -1.02 3.34 0 3 C0 2.01 0 1.02 0 0 Z " fill="#007780" transform="translate(365,186)"/>
<path d="M0 0 C0.66 0 1.32 0 2 0 C2 8.58 2 17.16 2 26 C-1.63 26 -5.26 26 -9 26 C-9 25.67 -9 25.34 -9 25 C-7.02 25 -5.04 25 -3 25 C-2.690625 24.38125 -2.38125 23.7625 -2.0625 23.125 C-1.375 21.75 -0.6875 20.375 0 19 C0.07092842 16.7927077 0.08415025 14.58332548 0.0625 12.375 C0.05347656 11.18648437 0.04445313 9.99796875 0.03515625 8.7734375 C0.02355469 7.85820312 0.01195312 6.94296875 0 6 C-2.21081851 5.89459074 -2.21081851 5.89459074 -5 7 C-5 5 -5 5 -3.625 3.375 C-2 2 -2 2 0 2 C0 1.34 0 0.68 0 0 Z " fill="#007780" transform="translate(411,137)"/>
<path d="M0 0 C1.52519276 0.08937803 3.04681929 0.24537146 4.5625 0.4375 C5.38878906 0.53933594 6.21507812 0.64117187 7.06640625 0.74609375 C7.70449219 0.82988281 8.34257812 0.91367188 9 1 C8.443125 1.4125 7.88625 1.825 7.3125 2.25 C6.549375 2.8275 5.78625 3.405 5 4 C4.113125 4.639375 3.22625 5.27875 2.3125 5.9375 C-0.13116619 7.72767983 -0.13116619 7.72767983 -0.5 10 C-1.28387077 13.13548309 -3.41703247 14.23602217 -6 16 C-6.66 16 -7.32 16 -8 16 C-8.66 16.33 -9.32 16.66 -10 17 C-9.67 15.68 -9.34 14.36 -9 13 C-8.34 13 -7.68 13 -7 13 C-6.773125 12.4225 -6.54625 11.845 -6.3125 11.25 C-4.67490316 8.44269113 -2.52735142 7.00892036 0 5 C0.33 4.01 0.66 3.02 1 2 C0.34 1.67 -0.32 1.34 -1 1 C-0.67 0.67 -0.34 0.34 0 0 Z " fill="#1f2937" transform="translate(298,142)"/>
<path d="M0 0 C9.76629876 -0.31846626 19.25274695 -0.09017448 28.9375 1.3125 C29.79504883 1.43020752 30.65259766 1.54791504 31.53613281 1.66918945 C32.33760742 1.79511475 33.13908203 1.92104004 33.96484375 2.05078125 C34.6724585 2.16075439 35.38007324 2.27072754 36.10913086 2.3840332 C38.38548807 3.12557604 39.44923322 4.20953341 41 6 C40.67 6.99 40.34 7.98 40 9 C39.34 9 38.68 9 38 9 C37.505 7.515 37.505 7.515 37 6 C29.35068262 2.568194 20.5527249 2.31681472 12.3125 1.8125 C11.12205078 1.73064453 9.93160156 1.64878906 8.70507812 1.56445312 C5.80389541 1.36638041 2.90244613 1.17841988 0 1 C0 0.67 0 0.34 0 0 Z " fill="#1f2937" transform="translate(262,133)"/>
<path d="M0 0 C3.34373475 0.55728913 6.03312999 1.35173889 9 3 C9 3.66 9 4.32 9 5 C6.27076612 5.0270817 3.54180363 5.04687847 0.8125 5.0625 C0.04357422 5.07087891 -0.72535156 5.07925781 -1.51757812 5.08789062 C-5.48526789 5.10491934 -9.12571234 4.98604115 -13 4 C-13 3.67 -13 3.34 -13 3 C-6.565 2.505 -6.565 2.505 0 2 C0 1.34 0 0.68 0 0 Z " fill="#1f2937" transform="translate(273,273)"/>
<path d="M0 0 C0.66 0.33 1.32 0.66 2 1 C1.01 2.485 1.01 2.485 0 4 C2.97 4.495 2.97 4.495 6 5 C5 7 5 7 3.4375 7.625 C-0.06398181 8.16368951 -3.45806833 8.05903219 -7 8 C-7.33 7.01 -7.66 6.02 -8 5 C-6.71475739 4.13619741 -5.42157581 3.28419631 -4.125 2.4375 C-3.04605469 1.72400391 -3.04605469 1.72400391 -1.9453125 0.99609375 C-1.30335938 0.66738281 -0.66140625 0.33867187 0 0 Z " fill="#1f2937" transform="translate(285,238)"/>
<path d="M0 0 C-1.6037331 0.64690922 -3.20800306 1.29248764 -4.8125 1.9375 C-5.70582031 2.29714844 -6.59914062 2.65679687 -7.51953125 3.02734375 C-9.3270909 3.73613486 -11.15807409 4.3860247 -13 5 C-13 4.34 -13 3.68 -13 3 C-14.32 3.33 -15.64 3.66 -17 4 C-17 4.99 -17 5.98 -17 7 C-19.64 7 -22.28 7 -25 7 C-23.40189687 3.80379374 -20.6005198 3.58847872 -17.3125 2.4375 C-16.09175781 2.00308594 -14.87101563 1.56867188 -13.61328125 1.12109375 C-4.72667385 -1.63615633 -4.72667385 -1.63615633 0 0 Z " fill="#1f2937" transform="translate(261,135)"/>
<path d="M0 0 C0.33 0 0.66 0 1 0 C1 2.97 1 5.94 1 9 C0.01 9.495 0.01 9.495 -1 10 C-1 11.32 -1 12.64 -1 14 C-1.99 14.495 -1.99 14.495 -3 15 C-3.62852934 17.33247815 -4.15535246 19.69291467 -4.625 22.0625 C-4.88539063 23.35285156 -5.14578125 24.64320313 -5.4140625 25.97265625 C-5.60742188 26.97167969 -5.80078125 27.97070312 -6 29 C-6.66 29 -7.32 29 -8 29 C-6.45199077 18.93794 -3.94137904 9.39867309 0 0 Z " fill="#007780" transform="translate(366,187)"/>
<path d="M0 0 C0.66 0.99 1.32 1.98 2 3 C0.8553125 3.8971875 0.8553125 3.8971875 -0.3125 4.8125 C-3.6728416 8.09711559 -4.28195095 11.99885839 -5.2265625 16.4765625 C-6.04459216 19.14548755 -6.87331081 20.24930006 -9 22 C-9.43088022 16.79752025 -8.02549812 13.24617107 -5.625 8.75 C-5.30789063 8.12609375 -4.99078125 7.5021875 -4.6640625 6.859375 C-3.30832906 4.23829036 -2.09815161 2.09815161 0 0 Z " fill="#1f2937" transform="translate(291,156)"/>
<path d="M0 0 C0.66 0.33 1.32 0.66 2 1 C1.01 2.485 1.01 2.485 0 4 C0.66 4.33 1.32 4.66 2 5 C0.99796679 8.00609963 0.39971554 9.06176821 -2 11 C-2.99 11 -3.98 11 -5 11 C-5.99 14.465 -5.99 14.465 -7 18 C-8 15 -8 15 -6.6015625 11.6796875 C-5.95287044 10.40623054 -5.29356847 9.13813508 -4.625 7.875 C-4.13 6.90626953 -4.13 6.90626953 -3.625 5.91796875 C-1.18313718 1.18313718 -1.18313718 1.18313718 0 0 Z " fill="#1f2937" transform="translate(211,162)"/>
<path d="M0 0 C0.99696276 3.11043655 0.9745415 5.02617323 0.07421875 8.15234375 C-0.14556641 8.92900391 -0.36535156 9.70566406 -0.59179688 10.50585938 C-0.82962891 11.30830078 -1.06746094 12.11074219 -1.3125 12.9375 C-1.53873047 13.73607422 -1.76496094 14.53464844 -1.99804688 15.35742188 C-3.14054429 19.33146908 -4.36287852 23.19542192 -6 27 C-6.33 27 -6.66 27 -7 27 C-7.25 19.375 -7.25 19.375 -5 16 C-4.52657202 14.75139689 -4.0993317 13.48464376 -3.7109375 12.20703125 C-3.49179687 11.49482422 -3.27265625 10.78261719 -3.046875 10.04882812 C-2.82515625 9.31083984 -2.6034375 8.57285156 -2.375 7.8125 C-2.14554687 7.06291016 -1.91609375 6.31332031 -1.6796875 5.54101562 C-1.11540619 3.69534551 -0.55711784 1.84784504 0 0 Z " fill="#007780" transform="translate(366,166)"/>
<path d="M0 0 C0.99 0 1.98 0 3 0 C3 1.32 3 2.64 3 4 C3.66 4 4.32 4 5 4 C5 4.66 5 5.32 5 6 C-1.75 7.125 -1.75 7.125 -4 6 C-3.34 4.68 -2.68 3.36 -2 2 C-1.34 2 -0.68 2 0 2 C0 1.34 0 0.68 0 0 Z " fill="#1f2937" transform="translate(289,236)"/>
<path d="M0 0 C1.32 0 2.64 0 4 0 C3.67 0.99 3.34 1.98 3 3 C2.34 3 1.68 3 1 3 C1 3.66 1 4.32 1 5 C0.05125 5.45375 -0.8975 5.9075 -1.875 6.375 C-5.00313679 7.80238254 -5.00313679 7.80238254 -7 10 C-7.99 9.67 -8.98 9.34 -10 9 C-8.37660195 7.29115995 -6.70680947 5.62553283 -5 4 C-4.34 4 -3.68 4 -3 4 C-2.54625 3.34 -2.0925 2.68 -1.625 2 C-1.08875 1.34 -0.5525 0.68 0 0 Z " fill="#007780" transform="translate(325,259)"/>
<path d="M0 0 C1.14709734 3.37928676 0.84353618 5.38362393 -0.25 8.75 C-0.52972656 9.61882812 -0.80945313 10.48765625 -1.09765625 11.3828125 C-2.32831761 14.95226319 -3.63149299 18.48098198 -5 22 C-6.22244075 17.97111077 -5.37784175 15.98043171 -4 12 C-3.55760646 9.3360215 -3.27811017 6.68839835 -3 4 C-2.01 3.67 -1.02 3.34 0 3 C0 2.01 0 1.02 0 0 Z " fill="#007780" transform="translate(365,186)"/>
<path d="M0 0 C0.66 0 1.32 0 2 0 C2 0.66 2 1.32 2 2 C5.64793184 3.27253436 9.1936543 4.32829194 13 5 C13.33 6.65 13.66 8.3 14 10 C12.02 9.34 10.04 8.68 8 8 C8 7.34 8 6.68 8 6 C7.4225 5.9175 6.845 5.835 6.25 5.75 C3.36675699 4.788919 1.98036332 3.26327237 0 1 C0 0.67 0 0.34 0 0 Z " fill="#1f2937" transform="translate(220,259)"/>
<path d="M0 0 C1 2 1 2 0 7 C3.96 7 7.92 7 12 7 C12 7.66 12 8.32 12 9 C10.58456585 9.19658808 9.16755969 9.38187546 7.75 9.5625 C6.96109375 9.66691406 6.1721875 9.77132812 5.359375 9.87890625 C2.99467126 10.00027349 1.2488963 9.69633257 -1 9 C-1.09765625 2.84765625 -1.09765625 2.84765625 -1 1 C-0.67 0.67 -0.34 0.34 0 0 Z " fill="#007780" transform="translate(315,180)"/>
<path d="M0 0 C1.32 0.33 2.64 0.66 4 1 C3.25 7.625 3.25 7.625 1 11 C1 9.35 1 7.7 1 6 C0.01 5.67 -0.98 5.34 -2 5 C-1.34 3.35 -0.68 1.7 0 0 Z " fill="#007780" transform="translate(355,192)"/>
<path d="M0 0 C1.3498085 4.0494255 -0.18152388 6.32703845 -1.875 10 C-4.10561478 14.93174634 -4.10561478 14.93174634 -6 20 C-6.66 19.67 -7.32 19.34 -8 19 C-6.60121198 14.53202662 -4.86369228 10.36177921 -2.875 6.125 C-2.33617187 4.97257813 -1.79734375 3.82015625 -1.2421875 2.6328125 C-0.62730469 1.32957031 -0.62730469 1.32957031 0 0 Z " fill="#007780" transform="translate(352,229)"/>
<path d="M0 0 C2.55192629 1.27596315 2.99500868 2.37156116 4 5 C3.67 5.99 3.34 6.98 3 8 C3 7.34 3 6.68 3 6 C2.34 6 1.68 6 1 6 C1 6.99 1 7.98 1 9 C-0.32 8.67 -1.64 8.34 -3 8 C-2.67 6.68 -2.34 5.36 -2 4 C-1.34 4 -0.68 4 0 4 C0 2.68 0 1.36 0 0 Z " fill="#1f2937" transform="translate(236,222)"/>
<path d="M0 0 C1.52519276 0.08937803 3.04681929 0.24537146 4.5625 0.4375 C5.80193359 0.59025391 5.80193359 0.59025391 7.06640625 0.74609375 C7.70449219 0.82988281 8.34257812 0.91367188 9 1 C8.443125 1.4125 7.88625 1.825 7.3125 2.25 C4.83804044 4.12256399 2.4164771 6.05339344 0 8 C-0.66 7.67 -1.32 7.34 -2 7 C-1.01 5.35 -0.02 3.7 1 2 C0.34 1.67 -0.32 1.34 -1 1 C-0.67 0.67 -0.34 0.34 0 0 Z " fill="#1f2937" transform="translate(298,142)"/>
<path d="M0 0 C1.32 0 2.64 0 4 0 C3.51421457 3.12290635 3.0013988 5.99580359 2 9 C1.01 9 0.02 9 -1 9 C-0.67 6.03 -0.34 3.06 0 0 Z " fill="#007780" transform="translate(327,170)"/>
<path d="M0 0 C0.66 0.33 1.32 0.66 2 1 C2.08226668 4.04386724 1.97608217 6.07175348 1 9 C0.01 9 -0.98 9 -2 9 C-1.125 1.125 -1.125 1.125 0 0 Z " fill="#1f2937" transform="translate(282,179)"/>
<path d="M0 0 C0.33 0 0.66 0 1 0 C1 2.97 1 5.94 1 9 C-0.65 8.67 -2.3 8.34 -4 8 C-2.68 5.36 -1.36 2.72 0 0 Z " fill="#007780" transform="translate(350,238)"/>
<path d="M0 0 C4.62 0 9.24 0 14 0 C13 2 13 2 11.4375 2.625 C7.93601819 3.16368951 4.54193167 3.05903219 1 3 C0.67 2.01 0.34 1.02 0 0 Z " fill="#1f2937" transform="translate(277,243)"/>
<path d="M0 0 C0.66 0 1.32 0 2 0 C1.54979057 5.85272256 -1.03839227 10.08220119 -4 15 C-4.33 14.34 -4.66 13.68 -5 13 C-4.2578125 11.23046875 -4.2578125 11.23046875 -3.125 9.1875 C-1.50538112 6.12139391 -0.43495184 3.47961473 0 0 Z " fill="#007780" transform="translate(346,230)"/>
<path d="M0 0 C2.97 0.495 2.97 0.495 6 1 C5.979375 1.94875 5.95875 2.8975 5.9375 3.875 C5.77448174 6.90666283 5.77448174 6.90666283 7 9 C6.01 8.67 5.02 8.34 4 8 C3.67 7.01 3.34 6.02 3 5 C2.484375 4.484375 1.96875 3.96875 1.4375 3.4375 C0.963125 2.963125 0.48875 2.48875 0 2 C0 1.34 0 0.68 0 0 Z " fill="#1f2937" transform="translate(209,246)"/>
<path d="M0 0 C5.94 0 11.88 0 18 0 C18 1.32 18 2.64 18 4 C17.34 3.34 16.68 2.68 16 2 C13.26565038 1.6936141 10.61720179 1.4886664 7.875 1.375 C7.12089844 1.33632812 6.36679687 1.29765625 5.58984375 1.2578125 C3.72696816 1.16348969 1.86351745 1.08065338 0 1 C0 0.67 0 0.34 0 0 Z " fill="#1f2937" transform="translate(295,224)"/>
<path d="M0 0 C-1.6037331 0.64690922 -3.20800306 1.29248764 -4.8125 1.9375 C-5.70582031 2.29714844 -6.59914062 2.65679687 -7.51953125 3.02734375 C-9.3270909 3.73613486 -11.15807409 4.3860247 -13 5 C-13 4.01 -13 3.02 -13 2 C-12.01 2 -11.02 2 -10 2 C-10 1.34 -10 0.68 -10 0 C-6.26432828 -0.76411467 -3.65188082 -1.07174763 0 0 Z " fill="#1f2937" transform="translate(261,135)"/>
<path d="M0 0 C0.99 0.66 1.98 1.32 3 2 C2.34 2 1.68 2 1 2 C1.020625 2.94875 1.04125 3.8975 1.0625 4.875 C1 8 1 8 0 10 C-0.66 10 -1.32 10 -2 10 C-1.125 2.25 -1.125 2.25 0 0 Z " fill="#007780" transform="translate(349,174)"/>
<path d="M0 0 C-0.7425 0.4125 -1.485 0.825 -2.25 1.25 C-4.90171685 2.93745618 -6.86674014 4.70872089 -9 7 C-9 3.83119306 -8.7941758 2.56310828 -7 0 C-4.12060581 -0.93580311 -2.74490212 -1.37245106 0 0 Z " fill="#007780" transform="translate(324,168)"/>
<path d="M0 0 C0.33 0.66 0.66 1.32 1 2 C-2.44615385 7.78461538 -2.44615385 7.78461538 -5.25 8.875 C-5.8275 8.91625 -6.405 8.9575 -7 9 C-5.03681826 5.46627288 -2.95929119 2.75520215 0 0 Z " fill="#1f2937" transform="translate(224,150)"/>
<path d="M0 0 C1.9375 0.3125 1.9375 0.3125 4 1 C4.33 1.99 4.66 2.98 5 4 C3.02 4.99 3.02 4.99 1 6 C-0.0625 4.125 -0.0625 4.125 -1 2 C-0.67 1.34 -0.34 0.68 0 0 Z " fill="#1f2937" transform="translate(210,242)"/>
<path d="M0 0 C0.99 0 1.98 0 3 0 C2.88541307 1.43836751 2.75790884 2.87570966 2.625 4.3125 C2.55539062 5.11300781 2.48578125 5.91351563 2.4140625 6.73828125 C2 9 2 9 0 12 C-1.00007341 8.8886605 -0.87515553 7.11166412 0 4 C0 2.68 0 1.36 0 0 Z " fill="#007780" transform="translate(361,170)"/>
<path d="M0 0 C-3.96 3.465 -3.96 3.465 -8 7 C-8 4.37886292 -7.68707555 2.49064888 -7 0 C-2.25 -1.125 -2.25 -1.125 0 0 Z " fill="#1f2937" transform="translate(252,171)"/>
<path d="M0 0 C1.02104551 0.97850195 2.0206121 1.97980427 3 3 C3 3.33 3 3.66 3 4 C-0.3 4 -3.6 4 -7 4 C-6.34 3.01 -5.68 2.02 -5 1 C-3.68 1 -2.36 1 -1 1 C-0.67 0.67 -0.34 0.34 0 0 Z " fill="#007780" transform="translate(352,272)"/>
<path d="M0 0 C0.66 0.33 1.32 0.66 2 1 C2.625 3.0625 2.625 3.0625 3 5 C2.34 5 1.68 5 1 5 C1 5.66 1 6.32 1 7 C0.34 7 -0.32 7 -1 7 C-0.67 4.69 -0.34 2.38 0 0 Z " fill="#007780" transform="translate(316,180)"/>
<path d="M0 0 C0.66 0.99 1.32 1.98 2 3 C1.34 4.32 0.68 5.64 0 7 C-0.66 7 -1.32 7 -2 7 C-2 5.02 -2 3.04 -2 1 C-1.34 0.67 -0.68 0.34 0 0 Z " fill="#1f2937" transform="translate(243,170)"/>
<path d="M0 0 C3.96 0.33 7.92 0.66 12 1 C8.25631258 2.87184371 7.1599209 3.23999767 3.25 3.125 C2.45078125 3.10695312 1.6515625 3.08890625 0.828125 3.0703125 C0.22484375 3.04710937 -0.3784375 3.02390625 -1 3 C-0.67 2.01 -0.34 1.02 0 0 Z " fill="#007780" transform="translate(368,162)"/>
<path d="M0 0 C0.33 0.66 0.66 1.32 1 2 C2.32 1.67 3.64 1.34 5 1 C5.33 2.32 5.66 3.64 6 5 C4.68 5 3.36 5 2 5 C1.34 4.34 0.68 3.68 0 3 C0 2.01 0 1.02 0 0 Z " fill="#1f2937" transform="translate(223,258)"/>
<path d="M0 0 C-0.33 1.65 -0.66 3.3 -1 5 C-1.33 3.68 -1.66 2.36 -2 1 C-3.98 1.33 -5.96 1.66 -8 2 C-7 0 -7 0 -5.125 -0.6875 C-3 -1 -3 -1 0 0 Z " fill="#007780" transform="translate(333,169)"/>
<path d="M0 0 C0.99 0.33 1.98 0.66 3 1 C3 1.66 3 2.32 3 3 C1.02 3.66 -0.96 4.32 -3 5 C-1.125 1.125 -1.125 1.125 0 0 Z " fill="#1f2937" transform="translate(300,147)"/>
</svg>
