<?xml version="1.0" encoding="UTF-8"?>
<svg version="1.1" xmlns="http://www.w3.org/2000/svg" width="500" height="500">
<path d="M0 0 C1.8671875 1.453125 1.8671875 1.453125 3.125 2.75 C3.125 3.41 3.125 4.07 3.125 4.75 C3.7025 4.95625 4.28 5.1625 4.875 5.375 C7.96977636 7.26625222 9.3168763 9.65035937 11.125 12.75 C11.125 13.41 11.125 14.07 11.125 14.75 C11.785 14.75 12.445 14.75 13.125 14.75 C17.00191462 23.49094034 18.95264901 31.17668607 19.125 40.75 C20.341875 40.6675 21.55875 40.585 22.8125 40.5 C32.67116297 40.51552545 41.90687079 44.56854386 50.125 49.75 C50.125 50.41 50.125 51.07 50.125 51.75 C51.01058594 52.14058594 51.01058594 52.14058594 51.9140625 52.5390625 C60.81588581 57.41461943 65.18508729 68.45932898 68.5 77.5 C71.10302269 90.38093703 69.63287067 104.50932833 62.6875 115.6875 C56.32785574 125.12026096 56.32785574 125.12026096 52.125 128.75 C51.465 128.75 50.805 128.75 50.125 128.75 C50.125 129.41 50.125 130.07 50.125 130.75 C49.465 130.75 48.805 130.75 48.125 130.75 C48.125 131.41 48.125 132.07 48.125 132.75 C47.465 132.75 46.805 132.75 46.125 132.75 C46.125 133.41 46.125 134.07 46.125 134.75 C45.465 134.75 44.805 134.75 44.125 134.75 C44.125 135.41 44.125 136.07 44.125 136.75 C42.55078125 138.30078125 42.55078125 138.30078125 40.4375 140.0625 C37.17886475 142.83604944 34.11557826 145.68465728 31.125 148.75 C30.44953125 149.41515625 29.7740625 150.0803125 29.078125 150.765625 C28.35109375 151.48234375 27.6240625 152.1990625 26.875 152.9375 C25.84632813 153.94876953 25.84632813 153.94876953 24.796875 154.98046875 C23.05050889 156.65798995 23.05050889 156.65798995 22.125 158.75 C21.465 158.75 20.805 158.75 20.125 158.75 C20.125 159.41 20.125 160.07 20.125 160.75 C19.465 160.75 18.805 160.75 18.125 160.75 C18.125 161.41 18.125 162.07 18.125 162.75 C17.465 162.75 16.805 162.75 16.125 162.75 C16.125 163.41 16.125 164.07 16.125 164.75 C14.75 166.375 14.75 166.375 13.125 167.75 C12.465 167.75 11.805 167.75 11.125 167.75 C11.125 168.41 11.125 169.07 11.125 169.75 C10.465 169.75 9.805 169.75 9.125 169.75 C9.125 170.41 9.125 171.07 9.125 171.75 C8.465 171.75 7.805 171.75 7.125 171.75 C7.125 172.41 7.125 173.07 7.125 173.75 C6.465 173.75 5.805 173.75 5.125 173.75 C5.125 174.41 5.125 175.07 5.125 175.75 C4.465 175.75 3.805 175.75 3.125 175.75 C3.125 176.41 3.125 177.07 3.125 177.75 C2.465 177.75 1.805 177.75 1.125 177.75 C1.125 178.41 1.125 179.07 1.125 179.75 C-0.44921875 181.265625 -0.44921875 181.265625 -2.5625 183 C-5.11477762 185.16203482 -7.42571681 187.2498416 -9.5 189.875 C-11.34588898 192.10949719 -12.91392734 193.70808804 -15.125 195.5 C-17.89859938 197.45631884 -17.89859938 197.45631884 -18.875 199.75 C-19.535 199.75 -20.195 199.75 -20.875 199.75 C-20.875 200.41 -20.875 201.07 -20.875 201.75 C-21.535 201.75 -22.195 201.75 -22.875 201.75 C-22.875 202.41 -22.875 203.07 -22.875 203.75 C-24.40625 205.2578125 -24.40625 205.2578125 -26.375 206.875 C-27.0246875 207.41382813 -27.674375 207.95265625 -28.34375 208.5078125 C-28.8490625 208.91773438 -29.354375 209.32765625 -29.875 209.75 C-28.18991069 213.51389108 -26.10300606 215.20157416 -22.875 217.75 C-22.875 218.41 -22.875 219.07 -22.875 219.75 C-22.215 219.75 -21.555 219.75 -20.875 219.75 C-20.875 220.41 -20.875 221.07 -20.875 221.75 C-20.215 221.75 -19.555 221.75 -18.875 221.75 C-18.875 222.41 -18.875 223.07 -18.875 223.75 C-18.215 223.75 -17.555 223.75 -16.875 223.75 C-13.50008078 227.52669531 -11.53171678 230.17567234 -11.375 235.3125 C-11.69708326 240.42230745 -13.08380995 244.07075933 -16.875 247.625 C-21.95890585 249.53146469 -28.16358603 249.93143413 -33.21484375 247.73046875 C-34.03662109 247.24513672 -34.03662109 247.24513672 -34.875 246.75 C-34.875 246.09 -34.875 245.43 -34.875 244.75 C-35.535 244.75 -36.195 244.75 -36.875 244.75 C-38.61422071 243.12610396 -40.24372079 241.47808627 -41.875 239.75 C-42.42575195 239.18168457 -42.97650391 238.61336914 -43.54394531 238.02783203 C-45.37535511 236.13450266 -47.1885941 234.22496328 -49 232.3125 C-49.62003906 231.66990234 -50.24007812 231.02730469 -50.87890625 230.36523438 C-57.13693261 223.73710968 -59.86113665 217.91367238 -59.875 208.75 C-59.14758644 200.7484508 -55.91194525 194.4073271 -49.875 189.125 C-48.885 188.34125 -47.895 187.5575 -46.875 186.75 C-45.66540183 185.28574958 -44.45658834 183.82063228 -43.27150917 182.33646774 C-41.68903799 180.53874272 -39.9809334 179.04206223 -38.15585327 177.49151611 C-34.19313937 174.06371525 -30.45387012 170.47065754 -26.75634766 166.76074219 C-26.09514923 166.10129608 -25.43395081 165.44184998 -24.75271606 164.76242065 C-22.59566448 162.6097253 -20.44223789 160.45344687 -18.2890625 158.296875 C-16.7808568 156.78934372 -15.27250274 155.28196085 -13.76400757 153.77471924 C-10.6172493 150.62942914 -7.47229169 147.48235266 -4.32861328 144.33398438 C-0.29688008 140.29652979 3.73935919 136.26361437 7.77693748 132.23200607 C10.88591088 129.12664116 13.99250491 126.01890477 17.09837723 122.91043854 C18.58641772 121.42173084 20.07520174 119.93376596 21.56473923 118.44655609 C23.63982455 116.37400463 25.71168716 114.29828473 27.78271484 112.22167969 C28.70685181 111.30057907 28.70685181 111.30057907 29.6496582 110.36087036 C30.49468399 109.51161484 30.49468399 109.51161484 31.35678101 108.64520264 C31.84600225 108.15560436 32.3352235 107.66600609 32.83926964 107.1615715 C34.35313387 105.57052051 34.35313387 105.57052051 36.125 102.75 C36.785 102.75 37.445 102.75 38.125 102.75 C40.66424533 95.07487995 42.64332874 88.19346443 39.109375 80.5546875 C36.1108191 75.41159478 32.82672055 71.95076469 27.3125 69.5 C19.94825796 67.76723717 14.88499778 68.85714064 8.125 71.75 C7.135 72.08 6.145 72.41 5.125 72.75 C5.125 73.41 5.125 74.07 5.125 74.75 C4.465 74.75 3.805 74.75 3.125 74.75 C2.9084375 75.29140625 2.691875 75.8328125 2.46875 76.390625 C0.66000003 79.56645344 -1.79223799 81.95728081 -4.375 84.5 C-4.87386719 85.00660156 -5.37273437 85.51320313 -5.88671875 86.03515625 C-9.62158861 89.75 -9.62158861 89.75 -11.875 89.75 C-12.23078125 90.59256348 -12.23078125 90.59256348 -12.59375 91.45214844 C-14.16819357 94.27582658 -16.09184545 96.22614842 -18.375 98.515625 C-19.7053125 99.84980469 -19.7053125 99.84980469 -21.0625 101.2109375 C-22.4546875 102.59152344 -22.4546875 102.59152344 -23.875 104 C-24.803125 104.93585938 -25.73125 105.87171875 -26.6875 106.8359375 C-27.574375 107.72023438 -28.46125 108.60453125 -29.375 109.515625 C-30.1896875 110.32805664 -31.004375 111.14048828 -31.84375 111.97753906 C-33.875 113.75 -33.875 113.75 -35.875 113.75 C-35.875 114.41 -35.875 115.07 -35.875 115.75 C-36.535 115.75 -37.195 115.75 -37.875 115.75 C-37.875 116.41 -37.875 117.07 -37.875 117.75 C-38.535 117.75 -39.195 117.75 -39.875 117.75 C-40.26171875 118.62398437 -40.26171875 118.62398437 -40.65625 119.515625 C-41.97334017 121.9302903 -43.42588384 123.56740177 -45.375 125.5 C-45.9834375 126.11359375 -46.591875 126.7271875 -47.21875 127.359375 C-48.875 128.75 -48.875 128.75 -50.875 128.75 C-50.875 129.41 -50.875 130.07 -50.875 130.75 C-51.535 130.75 -52.195 130.75 -52.875 130.75 C-52.875 131.41 -52.875 132.07 -52.875 132.75 C-53.535 132.75 -54.195 132.75 -54.875 132.75 C-54.875 133.41 -54.875 134.07 -54.875 134.75 C-55.535 134.75 -56.195 134.75 -56.875 134.75 C-57.11089844 135.32492187 -57.34679687 135.89984375 -57.58984375 136.4921875 C-59.15675381 139.24499605 -61.02202188 140.83560756 -63.4375 142.875 C-66.6224573 145.44470499 -66.6224573 145.44470499 -68.875 148.75 C-69.535 148.75 -70.195 148.75 -70.875 148.75 C-70.875 149.41 -70.875 150.07 -70.875 150.75 C-75.35432166 154.86613341 -79.22880885 155.42807437 -85.24609375 155.20703125 C-90.09969238 154.3632407 -92.31357572 151.8082411 -95.25 147.9375 C-96.55195709 143.38065018 -96.55199723 139.46131722 -94.82958984 135.10740662 C-92.23485808 130.65042572 -88.91121837 127.42353252 -85.23828125 123.83618164 C-84.07442398 122.68130501 -84.07442398 122.68130501 -82.88705444 121.50309753 C-81.20593351 119.83671035 -79.5213934 118.17376701 -77.83383179 116.51390266 C-75.16209485 113.88515992 -72.50033797 111.24667798 -69.84106445 108.60533142 C-63.23539788 102.04772089 -56.61573852 95.50430669 -49.99108887 88.96588135 C-44.39071165 83.43811622 -38.79839455 77.90239584 -33.21737671 72.35507011 C-30.59771291 69.75757122 -27.96665093 67.17199496 -25.33520508 64.58644104 C-23.72675289 62.98932591 -22.11889228 61.39161471 -20.51171875 59.79321289 C-19.77915863 59.07974701 -19.04659851 58.36628113 -18.2918396 57.63119507 C-13.59107818 52.92230814 -10.5010044 48.87426427 -9.4765625 42.125 C-9.55326999 34.35197468 -11.19384005 28.43115995 -16.875 22.75 C-22.76060454 18.48223937 -28.75842484 17.81418125 -35.875 18.75 C-39.29474919 20.03994793 -39.29474919 20.03994793 -41.875 21.75 C-42.865 22.08 -43.855 22.41 -44.875 22.75 C-44.875 23.41 -44.875 24.07 -44.875 24.75 C-45.535 24.75 -46.195 24.75 -46.875 24.75 C-46.875 25.41 -46.875 26.07 -46.875 26.75 C-48.33222294 28.18833447 -48.33222294 28.18833447 -50.35450745 29.8625946 C-54.85380128 33.69171104 -59.03266588 37.76666118 -63.20288086 41.94848633 C-63.99248199 42.73633514 -64.78208313 43.52418396 -65.59561157 44.33590698 C-68.17952697 46.91545524 -70.75980805 49.49860301 -73.33984375 52.08203125 C-75.14190813 53.88342152 -76.9441209 55.68466337 -78.74647522 57.48576355 C-82.50945003 61.24726871 -86.27066946 65.01051693 -90.03051758 68.77514648 C-94.37766112 73.12775442 -98.72842736 77.47671629 -103.08104604 81.82384855 C-107.2779305 86.01565488 -111.47200824 90.21026065 -115.66488838 94.40607262 C-117.44681894 96.18867151 -119.22949607 97.97052442 -121.01292229 99.75162697 C-123.49533038 102.23150788 -125.9745315 104.71455011 -128.45288086 107.19848633 C-129.19412704 107.93770828 -129.93537323 108.67693024 -130.69908142 109.43855286 C-131.37044128 110.11273254 -132.04180115 110.78691223 -132.73350525 111.48152161 C-133.31951476 112.06790814 -133.90552427 112.65429468 -134.50929165 113.25845051 C-135.97593622 114.72338955 -135.97593622 114.72338955 -136.875 116.75 C-137.535 116.75 -138.195 116.75 -138.875 116.75 C-138.875 117.41 -138.875 118.07 -138.875 118.75 C-141.37504094 121.26865167 -144.15752053 123.47016703 -146.875 125.75 C-148.1434375 126.925625 -148.1434375 126.925625 -149.4375 128.125 C-152.69561644 130.29707763 -154.96615592 130.68260614 -158.875 130.75 C-163.49999438 129.3943982 -167.03074559 127.53965104 -169.99609375 123.625 C-171.76097248 119.85992539 -171.64015395 115.77343454 -170.875 111.75 C-168.86952683 107.97785124 -166.50715715 105.12257307 -163.50834656 102.09573364 C-162.16941597 100.73750488 -162.16941597 100.73750488 -160.80343628 99.35183716 C-159.81658745 98.36090326 -158.82961428 97.37009319 -157.8425293 96.37939453 C-156.80039948 95.32636141 -155.75865625 94.2729456 -154.7172699 93.21917725 C-151.89121124 90.36267082 -149.05848087 87.51287654 -146.22351813 84.66520929 C-144.4481745 82.88176349 -142.67387624 81.09728372 -140.89985085 79.3125267 C-135.33683738 73.71680072 -129.7694303 68.12549636 -124.1961419 62.5400039 C-117.78584364 56.11548219 -111.39059738 49.6764613 -105.00803059 43.2243911 C-100.05972337 38.2240883 -95.0978429 33.23751481 -90.12578708 28.26082695 C-87.16344498 25.29510542 -84.2069742 22.32407183 -81.26468468 19.33844376 C-78.49020057 16.52381443 -75.69903445 13.72680723 -72.89498329 10.94164276 C-71.87719445 9.92510618 -70.86520023 8.90272338 -69.86004639 7.87369156 C-50.69710763 -11.71762632 -22.9626232 -16.1854601 0 0 Z " fill="#24293E" transform="translate(302.875,134.25)"/>
<path d="M0 0 C3.9805844 2.25828486 6.54666871 4.64000612 8 9 C8.50954284 13.85318671 8.83988787 18.39623414 6.125 22.625 C5.073125 23.800625 5.073125 23.800625 4 25 C3.34 25 2.68 25 2 25 C2 25.66 2 26.32 2 27 C-0.375 29.625 -0.375 29.625 -3 32 C-3.66 32 -4.32 32 -5 32 C-5 32.66 -5 33.32 -5 34 C-5.66 34 -6.32 34 -7 34 C-7 34.66 -7 35.32 -7 36 C-7.66 36 -8.32 36 -9 36 C-9 36.66 -9 37.32 -9 38 C-9.66 38 -10.32 38 -11 38 C-11 38.66 -11 39.32 -11 40 C-11.66 40 -12.32 40 -13 40 C-13 40.66 -13 41.32 -13 42 C-14.375 43.625 -14.375 43.625 -16 45 C-16.66 45 -17.32 45 -18 45 C-18 45.66 -18 46.32 -18 47 C-18.66 47 -19.32 47 -20 47 C-20 47.66 -20 48.32 -20 49 C-20.66 49 -21.32 49 -22 49 C-22 49.66 -22 50.32 -22 51 C-22.66 51 -23.32 51 -24 51 C-24 51.66 -24 52.32 -24 53 C-24.66 53 -25.32 53 -26 53 C-26 53.66 -26 54.32 -26 55 C-26.66 55 -27.32 55 -28 55 C-28.33 55.99 -28.66 56.98 -29 58 C-29.66 58 -30.32 58 -31 58 C-31 58.66 -31 59.32 -31 60 C-31.66 60 -32.32 60 -33 60 C-33 60.66 -33 61.32 -33 62 C-33.66 62 -34.32 62 -35 62 C-35 62.66 -35 63.32 -35 64 C-35.66 64 -36.32 64 -37 64 C-37 64.66 -37 65.32 -37 66 C-37.66 66 -38.32 66 -39 66 C-39 66.66 -39 67.32 -39 68 C-39.66 68 -40.32 68 -41 68 C-41.268125 68.639375 -41.53625 69.27875 -41.8125 69.9375 C-43 72 -43 72 -46 73 C-46 73.66 -46 74.32 -46 75 C-46.66 75 -47.32 75 -48 75 C-48 75.66 -48 76.32 -48 77 C-48.66 77 -49.32 77 -50 77 C-50 77.66 -50 78.32 -50 79 C-50.66 79 -51.32 79 -52 79 C-52 79.66 -52 80.32 -52 81 C-52.66 81 -53.32 81 -54 81 C-54 81.66 -54 82.32 -54 83 C-54.66 83 -55.32 83 -56 83 C-56.495 84.485 -56.495 84.485 -57 86 C-57.66 86 -58.32 86 -59 86 C-59 86.66 -59 87.32 -59 88 C-59.66 88 -60.32 88 -61 88 C-61 88.66 -61 89.32 -61 90 C-61.66 90 -62.32 90 -63 90 C-63 90.66 -63 91.32 -63 92 C-63.66 92 -64.32 92 -65 92 C-65 92.66 -65 93.32 -65 94 C-65.66 94 -66.32 94 -67 94 C-67 94.66 -67 95.32 -67 96 C-67.66 96 -68.32 96 -69 96 C-69.268125 96.639375 -69.53625 97.27875 -69.8125 97.9375 C-71 100 -71 100 -74 101 C-75.15922128 102.73142854 -75.15922128 102.73142854 -76 105 C-76.37125 105.86625 -76.7425 106.7325 -77.125 107.625 C-78.93317062 114.5993724 -78.89059336 120.89683081 -75.2734375 127.24609375 C-72.38412363 131.22554751 -68.55914202 134.148859 -64 136 C-60.99753059 136.42962749 -60.99753059 136.42962749 -57.75 136.4375 C-56.67234375 136.47746094 -55.5946875 136.51742187 -54.484375 136.55859375 C-46.17170516 135.22595722 -40.70179207 129.06224567 -35.125 123.1875 C-33.81964586 121.82246528 -32.50997123 120.46154457 -31.1953125 119.10546875 C-30.62828613 118.50887451 -30.06125977 117.91228027 -29.47705078 117.29760742 C-28 116 -28 116 -26 116 C-26 115.34 -26 114.68 -26 114 C-25.34 114 -24.68 114 -24 114 C-24 113.34 -24 112.68 -24 112 C-23.34 112 -22.68 112 -22 112 C-22 111.34 -22 110.68 -22 110 C-21.34 110 -20.68 110 -20 110 C-20 109.34 -20 108.68 -20 108 C-19.34 108 -18.68 108 -18 108 C-18 107.34 -18 106.68 -18 106 C-16.50390625 104.5625 -16.50390625 104.5625 -14.5625 103 C-11.84811762 100.85474956 -11.84811762 100.85474956 -10 98 C-9.34 98 -8.68 98 -8 98 C-8 97.34 -8 96.68 -8 96 C-7.34 96 -6.68 96 -6 96 C-6 95.34 -6 94.68 -6 94 C-5.34 94 -4.68 94 -4 94 C-4 93.34 -4 92.68 -4 92 C-3.34 92 -2.68 92 -2 92 C-2 91.34 -2 90.68 -2 90 C-1.34 90 -0.68 90 0 90 C0 89.34 0 88.68 0 88 C0.66 88 1.32 88 2 88 C2.38671875 87.12601563 2.38671875 87.12601563 2.78125 86.234375 C4.09834017 83.8197097 5.55088384 82.18259823 7.5 80.25 C8.1084375 79.63640625 8.716875 79.0228125 9.34375 78.390625 C11 77 11 77 13 77 C13 76.34 13 75.68 13 75 C13.66 75 14.32 75 15 75 C15 74.34 15 73.68 15 73 C15.66 73 16.32 73 17 73 C17 72.34 17 71.68 17 71 C17.66 71 18.32 71 19 71 C19 70.34 19 69.68 19 69 C19.66 69 20.32 69 21 69 C21 68.34 21 67.68 21 67 C22.46875 65.5546875 22.46875 65.5546875 24.5 63.875 C28.27909774 60.67884818 31.73143286 57.28450552 35.140625 53.69921875 C38.81269294 50.34344238 41.95957689 49.54899269 46.97265625 49.6796875 C51.10229502 50.33215451 53.88939772 52.77432327 56.62109375 55.7890625 C59.41503066 60.26885936 58.92837924 64.96491922 58 70 C56.53547668 72.22421265 56.53547668 72.22421265 54.47973633 74.35693359 C53.6583316 75.21889343 52.83692688 76.08085327 51.9906311 76.96893311 C50.99467795 77.98019946 49.99772302 78.99047977 49 80 C47.81537466 81.21560084 46.63110127 82.43154472 45.44711304 83.64776611 C41.18121558 88.01152163 36.87974576 92.33945263 32.57421875 96.6640625 C31.40100036 97.84339418 31.40100036 97.84339418 30.20408058 99.04655075 C26.06941803 103.20194557 21.93157775 107.35414669 17.79125977 111.50390625 C13.54323486 115.7630149 9.30702842 120.03368193 5.07332134 124.30701637 C1.78811156 127.61848422 -1.50606157 130.92092722 -4.80263329 134.22108078 C-6.36752764 135.79081114 -7.92907526 137.36388604 -9.48702431 138.9405098 C-23.46184116 153.07248204 -36.12402959 164.85652135 -57.0625 165.4375 C-69.15832802 165.00453971 -78.23434403 162.17343678 -88 155 C-89.14275391 154.21109375 -89.14275391 154.21109375 -90.30859375 153.40625 C-90.86675781 152.9421875 -91.42492187 152.478125 -92 152 C-92 151.34 -92 150.68 -92 150 C-92.66 150 -93.32 150 -94 150 C-103.43272442 139.08034365 -107.83316223 125.36277237 -107 111 C-106.56782881 108.3237598 -106.0822101 105.80549284 -105.4375 103.1875 C-105.14746094 101.90230469 -104.85742188 100.61710937 -104.55859375 99.29296875 C-100.99567624 88.00717739 -92.3374045 79.78736839 -84.1171875 71.7265625 C-82.97243605 70.58929595 -81.82858265 69.45112481 -80.68557739 68.31210327 C-77.70105364 65.34270499 -74.70472579 62.38551369 -71.70556641 59.4309082 C-68.65710788 56.42351321 -65.62004822 53.40465485 -62.58203125 50.38671875 C-57.23974087 45.0824968 -51.88771817 39.78827634 -46.52828979 34.50137329 C-43.03044754 31.04076952 -39.54886497 27.56431695 -36.09326172 24.06152344 C-33.29326628 21.22611998 -30.48733888 18.39667262 -27.67919922 15.56933594 C-26.47104245 14.35104307 -25.2646754 13.1309729 -24.06005859 11.90917969 C-22.31294412 10.13787221 -20.55950634 8.3730459 -18.8046875 6.609375 C-18.26713837 6.0615033 -17.72958923 5.51363159 -17.17575073 4.94915771 C-12.04046535 -0.18766632 -7.10339571 -1.16061534 0 0 Z " fill="#272C40" transform="translate(276,162)"/>
<path d="M0 0 C3.96395576 1.73634814 5.82915076 3.6232002 8.0078125 7.32421875 C10.10247286 12.97320436 10.03180935 19.12475618 9 25 C5.94131078 31.330133 1.26965176 36.13683932 -3.69604492 41.00488281 C-4.45434097 41.76040436 -5.21263702 42.5159259 -5.99391174 43.29434204 C-8.48264878 45.77086967 -10.98163007 48.23679431 -13.48046875 50.703125 C-15.21811078 52.43008308 -16.95494066 54.1578587 -18.69099426 55.88641357 C-23.24925854 60.42195276 -27.81559839 64.94926148 -32.38458252 69.47399902 C-39.70939342 76.72846954 -47.02657642 83.99056423 -54.33474159 91.26180267 C-56.88854895 93.79889773 -59.44868389 96.32948308 -62.00932312 98.85968018 C-63.57052305 100.41042209 -65.13147514 101.96141357 -66.69213867 103.51269531 C-67.4064505 104.21510345 -68.12076233 104.9175116 -68.85671997 105.64120483 C-69.50854752 106.29144623 -70.16037506 106.94168762 -70.83195496 107.6116333 C-71.3988161 108.1727544 -71.96567724 108.7338755 -72.549716 109.31200027 C-76.11529483 113.46201232 -76.47687799 117.26767231 -76.3984375 122.5859375 C-75.79489782 126.24267793 -73.87528922 127.82600084 -71 130 C-70.67 130.33 -70.34 130.66 -70 131 C-65.861817 131.7153533 -62.33430865 131.7527432 -58.625 129.66015625 C-56.67074893 128.17701928 -54.80906087 126.65625191 -53 125 C-52.505 125.99 -52.505 125.99 -52 127 C-52.66 127 -53.32 127 -54 127 C-54 127.66 -54 128.32 -54 129 C-58.47932166 133.11613341 -62.35380885 133.67807437 -68.37109375 133.45703125 C-73.22469238 132.6132407 -75.43857572 130.0582411 -78.375 126.1875 C-79.67695709 121.63065018 -79.67699723 117.71131722 -77.95458984 113.35740662 C-75.35985808 108.90042572 -72.03621837 105.67353252 -68.36328125 102.08618164 C-67.5873764 101.31626389 -66.81147156 100.54634613 -66.01205444 99.75309753 C-64.33093351 98.08671035 -62.6463934 96.42376701 -60.95883179 94.76390266 C-58.28709485 92.13515992 -55.62533797 89.49667798 -52.96606445 86.85533142 C-46.36039788 80.29772089 -39.74073852 73.75430669 -33.11608887 67.21588135 C-27.51571165 61.68811622 -21.92339455 56.15239584 -16.34237671 50.60507011 C-13.72271291 48.00757122 -11.09165093 45.42199496 -8.46020508 42.83644104 C-6.85175289 41.23932591 -5.24389228 39.64161471 -3.63671875 38.04321289 C-2.90415863 37.32974701 -2.17159851 36.61628113 -1.4168396 35.88119507 C3.28392182 31.17230814 6.3739956 27.12426427 7.3984375 20.375 C7.31789743 12.21360652 4.64701559 6.56991859 0 0 Z " fill="#DDDFE4" transform="translate(286,156)"/>
<path d="M0 0 C5.10456094 1.89057813 8.05066175 6.01091032 10.3125 10.75 C12.24080812 19.8656384 10.85820144 26.08765182 6 34 C3.68272898 36.92918288 1.11661784 39.52023588 -1.55664062 42.12426758 C-2.30036423 42.86872131 -3.04408783 43.61317505 -3.81034851 44.38018799 C-6.24730882 46.81369324 -8.70144202 49.22904266 -11.15625 51.64453125 C-12.86457896 53.34352018 -14.57179653 55.04362728 -16.2779541 56.74479675 C-20.75637025 61.20419892 -25.24958847 65.64838737 -29.74615479 70.08947754 C-34.31765959 74.60981521 -38.87504383 79.14433919 -43.43359375 83.67773438 C-50.79526595 90.99553664 -58.16550525 98.30457467 -65.54692078 105.60246277 C-68.31647752 108.34111432 -71.08434368 111.08086753 -73.83239746 113.84111023 C-75.92465463 115.92495749 -78.07897866 117.88182901 -80.3125 119.8125 C-81.00988281 120.41707031 -81.70726562 121.02164063 -82.42578125 121.64453125 C-82.94527344 122.09183594 -83.46476563 122.53914063 -84 123 C-84.33 122.34 -84.66 121.68 -85 121 C-84.113125 120.29875 -83.22625 119.5975 -82.3125 118.875 C-79.65792821 116.67213856 -77.55255989 114.28665361 -75.39650917 111.58646774 C-73.81403799 109.78874272 -72.1059334 108.29206223 -70.28085327 106.74151611 C-66.31813937 103.31371525 -62.57887012 99.72065754 -58.88134766 96.01074219 C-57.88955002 95.02157303 -57.88955002 95.02157303 -56.87771606 94.01242065 C-54.72066448 91.8597253 -52.56723789 89.70344687 -50.4140625 87.546875 C-48.9058568 86.03934372 -47.39750274 84.53196085 -45.88900757 83.02471924 C-42.7422493 79.87942914 -39.59729169 76.73235266 -36.45361328 73.58398438 C-32.42188008 69.54652979 -28.38564081 65.51361437 -24.34806252 61.48200607 C-21.23908912 58.37664116 -18.13249509 55.26890477 -15.02662277 52.16043854 C-13.53858228 50.67173084 -12.04979826 49.18376596 -10.56026077 47.69655609 C-8.48517545 45.62400463 -6.41331284 43.54828473 -4.34228516 41.47167969 C-3.41814819 40.55057907 -3.41814819 40.55057907 -2.4753418 39.61087036 C-1.63031601 38.76161484 -1.63031601 38.76161484 -0.76821899 37.89520264 C-0.27899775 37.40560436 0.2102235 36.91600609 0.71426964 36.4115715 C2.22813387 34.82052051 2.22813387 34.82052051 4 32 C4.66 32 5.32 32 6 32 C8.51857079 24.38737078 10.6402768 17.337538 6.9140625 9.8046875 C5.69021991 7.79461876 4.39715731 5.89278498 3 4 C2.401875 3.175 1.80375 2.35 1.1875 1.5 C0.5996875 0.7575 0.5996875 0.7575 0 0 Z " fill="#C7CBD2" transform="translate(335,205)"/>
<path d="M0 0 C0 3 0 3 -1.6875 5.015625 C-2.450625 5.75296875 -3.21375 6.4903125 -4 7.25 C-4.82757813 8.05179687 -5.65515625 8.85359375 -6.5078125 9.6796875 C-9.22482436 12.20931923 -12.00870872 14.6381347 -14.8359375 17.04296875 C-17.01225831 19.01108558 -19.04126805 21.08835709 -21.07080078 23.20629883 C-27.2861621 29.64780841 -32.15982844 34.02043108 -41.375 34.5625 C-48.11570868 34.28163714 -53.97535741 32.05135026 -58.76953125 27.21484375 C-60.1875 25.375 -60.1875 25.375 -62 22 C-61.505 20.515 -61.505 20.515 -61 19 C-60.47212891 19.79664063 -60.47212891 19.79664063 -59.93359375 20.609375 C-56.70494559 25.22895513 -53.61936786 29.37864117 -48 31 C-40.62470796 31.99028857 -35.26172904 31.76280795 -29.0456543 27.58422852 C-25.41333268 24.77122756 -22.28249237 21.51368903 -19.125 18.1875 C-17.81964586 16.82246528 -16.50997123 15.46154457 -15.1953125 14.10546875 C-14.62828613 13.50887451 -14.06125977 12.91228027 -13.47705078 12.29760742 C-12 11 -12 11 -10 11 C-10 10.34 -10 9.68 -10 9 C-9.34 9 -8.68 9 -8 9 C-8 8.34 -8 7.68 -8 7 C-7.34 7 -6.68 7 -6 7 C-6 6.34 -6 5.68 -6 5 C-5.34 5 -4.68 5 -4 5 C-4 4.34 -4 3.68 -4 3 C-3.34 3 -2.68 3 -2 3 C-2 2.34 -2 1.68 -2 1 C-1.34 0.67 -0.68 0.34 0 0 Z " fill="#DADCE3" transform="translate(260,267)"/>
<path d="M0 0 C4.59808129 0.53894425 7.86784369 1.76571528 11.875 4.0625 C12.84179688 4.61035156 13.80859375 5.15820312 14.8046875 5.72265625 C15.89136719 6.35494141 15.89136719 6.35494141 17 7 C17 7.66 17 8.32 17 9 C17.58265625 9.24492187 18.1653125 9.48984375 18.765625 9.7421875 C21.36302236 11.20435874 22.83975831 12.84740414 24.75 15.125 C25.36359375 15.84945312 25.9771875 16.57390625 26.609375 17.3203125 C27.06828125 17.87460938 27.5271875 18.42890625 28 19 C27.67 19.66 27.34 20.32 27 21 C25.68 20.67 24.36 20.34 23 20 C23 18.68 23 17.36 23 16 C21.35 17.32 19.7 18.64 18 20 C16.68373308 16.38026598 16 13.90432869 16 10 C15.01 10 14.02 10 13 10 C12.78601563 9.39671875 12.57203125 8.7934375 12.3515625 8.171875 C10.51184645 5.21556828 8.55622729 4.58167654 5.375 3.25 C4.37210937 2.82203125 3.36921875 2.3940625 2.3359375 1.953125 C1.56507813 1.63859375 0.79421875 1.3240625 0 1 C0 0.67 0 0.34 0 0 Z " fill="#1E2237" transform="translate(336,177)"/>
<path d="M0 0 C2.68475092 2.34723938 3.84717014 4.56471634 5.125 7.875 C5.45757812 8.71804687 5.79015625 9.56109375 6.1328125 10.4296875 C9.87468013 21.5204483 9.05942712 35.09559744 5 46 C3.81604848 48.24908354 2.60121231 50.01228817 1 52 C0 50 0 50 0.7421875 47.72265625 C1.30292969 46.40587891 1.30292969 46.40587891 1.875 45.0625 C6.47037062 34.15251171 7.29259749 19.62460709 3.0625 8.375 C2.38455743 6.91219918 1.698497 5.45309817 1 4 C0.63356753 2.67538076 0.28880057 1.34368267 0 0 Z " fill="#D0D1D7" transform="translate(364,198)"/>
<path d="M0 0 C0 3 0 3 -1.5 6.5 C-3.99486917 13.00575931 -4.08371717 19.93389512 -1.6875 26.5 C0.92624656 31.77501578 5.28476181 35.56747981 9.5390625 39.51953125 C11.68189245 41.67936779 12.89487251 43.21117828 14 46 C9.64006399 44.3610843 6.99806921 41.10723788 3.9375 37.75 C3.40833984 37.18925781 2.87917969 36.62851562 2.33398438 36.05078125 C-3.55611665 29.65074676 -6 23.70509126 -6 15 C-5.38535268 9.01679251 -3.65187348 4.74743553 0 0 Z " fill="#D5D7DE" transform="translate(249,328)"/>
<path d="M0 0 C0.99 0.33 1.98 0.66 3 1 C-11.36727177 7.85106015 -25.64384648 9.3391411 -41 4 C-41.33 3.34 -41.66 2.68 -42 2 C-41.27039063 2.144375 -40.54078125 2.28875 -39.7890625 2.4375 C-27.36672981 4.6459147 -12.82329538 6.39455321 -1 1 C-0.67 0.67 -0.34 0.34 0 0 Z " fill="#E4E6E9" transform="translate(240,320)"/>
<path d="M0 0 C3.375 -0.125 3.375 -0.125 7 0 C7.66 0.66 8.32 1.32 9 2 C8.34 2 7.68 2 7 2 C6.896875 2.763125 6.79375 3.52625 6.6875 4.3125 C5.95288806 7.18416484 5.3283935 8.23042094 3 10 C2.34 10 1.68 10 1 10 C-0.83691257 6.21812119 -1.15837626 4.05431692 0 0 Z " fill="#171B30" transform="translate(305,297)"/>
<path d="M0 0 C0.53625 0.721875 1.0725 1.44375 1.625 2.1875 C5.90135592 7.2516057 10.46850082 11.54789986 17.234375 12.4140625 C18.39453125 12.48367188 19.5546875 12.55328125 20.75 12.625 C21.92046875 12.69976562 23.0909375 12.77453125 24.296875 12.8515625 C25.63492188 12.92503906 25.63492188 12.92503906 27 13 C26.67 13.66 26.34 14.32 26 15 C17.88856632 15.69394395 11.71218578 14.84098291 5 10 C2.05448484 6.96824228 0 4.3784379 0 0 Z " fill="#D1D4DA" transform="translate(198,286)"/>
<path d="M0 0 C2 1.1875 2 1.1875 4 4.1875 C2.845 3.8575 1.69 3.5275 0.5 3.1875 C-7.33977666 1.26896311 -12.58461008 2.1710702 -20 5.1875 C-20.99 5.1875 -21.98 5.1875 -23 5.1875 C-21.89932004 4.37028283 -20.79430269 3.55890549 -19.6875 2.75 C-19.07261719 2.29753906 -18.45773437 1.84507812 -17.82421875 1.37890625 C-12.67771629 -1.98229985 -5.74004669 -1.55459598 0 0 Z " fill="#BCBFC5" transform="translate(331,200.8125)"/>
<path d="M0 0 C0.66 0 1.32 0 2 0 C2.33 0.99 2.66 1.98 3 3 C0.47043472 6.0916909 -2.22454612 6.90931332 -6 8 C-6 8.66 -6 9.32 -6 10 C-7.32 10 -8.64 10 -10 10 C-8.71111971 7.1248055 -7.46733017 4.9928436 -5 3 C-3.67139075 2.64830932 -2.33841672 2.31229724 -1 2 C-0.67 1.34 -0.34 0.68 0 0 Z " fill="#191E31" transform="translate(284,297)"/>
<path d="M0 0 C0 0.99 0 1.98 0 3 C-0.61875 3.2475 -1.2375 3.495 -1.875 3.75 C-4.45879805 5.2698812 -4.92372237 6.23242895 -6 9 C-6.350625 9.86625 -6.70125 10.7325 -7.0625 11.625 C-8.29172168 16.05019806 -8.65690849 20.43146575 -9 25 C-9.33 25 -9.66 25 -10 25 C-10.44823064 17.52948931 -10.69421057 11.15937326 -6 5 C-4.09070151 3.09535834 -2.19256839 1.59459519 0 0 Z " fill="#C9CBD3" transform="translate(206,258)"/>
<path d="M0 0 C0.78761719 0.13277344 1.57523438 0.26554687 2.38671875 0.40234375 C10.24797974 1.67689139 18.0525645 2.50572414 26 3 C26 3.33 26 3.66 26 4 C8.14350797 4.55353075 8.14350797 4.55353075 0 1 C0 0.67 0 0.34 0 0 Z " fill="#B4B7BF" transform="translate(198,322)"/>
<path d="M0 0 C0.556875 0.268125 1.11375 0.53625 1.6875 0.8125 C0.6975 1.1425 -0.2925 1.4725 -1.3125 1.8125 C-1.6425 2.8025 -1.9725 3.7925 -2.3125 4.8125 C-2.9725 4.8125 -3.6325 4.8125 -4.3125 4.8125 C-4.621875 5.43125 -4.93125 6.05 -5.25 6.6875 C-5.9375 8.0625 -6.625 9.4375 -7.3125 10.8125 C-7.9725 10.8125 -8.6325 10.8125 -9.3125 10.8125 C-8.0966464 6.05961775 -5.84586916 -0.47398939 0 0 Z " fill="#2B2E3D" transform="translate(255.3125,326.1875)"/>
<path d="M0 0 C0.66 0 1.32 0 2 0 C0.71480435 2.86697492 -0.57129254 4.97607712 -3 7 C-3.66 7 -4.32 7 -5 7 C-5.33 8.32 -5.66 9.64 -6 11 C-6.99 11 -7.98 11 -9 11 C-9.66 12.32 -10.32 13.64 -11 15 C-11.66 14.67 -12.32 14.34 -13 14 C-11.625 12 -11.625 12 -10 10 C-9.34 10 -8.68 10 -8 10 C-8 9.34 -8 8.68 -8 8 C-7.34 8 -6.68 8 -6 8 C-6 7.34 -6 6.68 -6 6 C-5.34 6 -4.68 6 -4 6 C-4 5.34 -4 4.68 -4 4 C-3.34 4 -2.68 4 -2 4 C-2 3.34 -2 2.68 -2 2 C-1.34 2 -0.68 2 0 2 C0 1.34 0 0.68 0 0 Z " fill="#D6D7DE" transform="translate(276,250)"/>
<path d="M0 0 C0.99 0.33 1.98 0.66 3 1 C2.69381595 4.67420866 2.24228216 5.78135513 -0.5625 8.3125 C-1.366875 8.869375 -2.17125 9.42625 -3 10 C-3.66 9.67 -4.32 9.34 -5 9 C-4.505 8.21625 -4.01 7.4325 -3.5 6.625 C-1.83462035 4.21447673 -1.83462035 4.21447673 -2 2 C-1.34 2 -0.68 2 0 2 C0 1.34 0 0.68 0 0 Z " fill="#5F6270" transform="translate(248,310)"/>
<path d="M0 0 C2.56160784 1.28080392 2.76461393 2.4565581 4 5 C4.97581759 6.35113205 5.97029741 7.68946944 7 9 C4.625 9.125 4.625 9.125 2 9 C1.34 8.34 0.68 7.68 0 7 C-0.66 6.67 -1.32 6.34 -2 6 C-1.34 4.02 -0.68 2.04 0 0 Z " fill="#646978" transform="translate(271,343)"/>
<path d="M0 0 C0 3.68553144 -0.8522582 5.03759752 -3 8 C-5.86119618 9.98082813 -8.89263922 11.4496183 -12 13 C-8.19524578 8.43969176 -4.25030379 4.14910608 0 0 Z " fill="#2D3140" transform="translate(288,190)"/>
<path d="M0 0 C3.44428265 1.44781793 5.36130962 3.27694609 7.75 6.125 C8.36359375 6.84945312 8.9771875 7.57390625 9.609375 8.3203125 C10.29773438 9.15175781 10.29773438 9.15175781 11 10 C10.67 10.66 10.34 11.32 10 12 C8.125 11.875 8.125 11.875 6 11 C5.27954236 9.0187415 4.61998741 7.01495907 4 5 C1.9884805 2.19195735 1.9884805 2.19195735 0 0 Z " fill="#A2A5AD" transform="translate(353,186)"/>
<path d="M0 0 C4.59808129 0.53894425 7.86784369 1.76571528 11.875 4.0625 C12.84179688 4.61035156 13.80859375 5.15820312 14.8046875 5.72265625 C15.89136719 6.35494141 15.89136719 6.35494141 17 7 C16.67 7.66 16.34 8.32 16 9 C13.66082838 8.59669455 12.32292609 8.33794591 10.65625 6.59375 C8.68801417 4.69978722 6.82321958 3.86772997 4.3125 2.8125 C3.50425781 2.46832031 2.69601562 2.12414062 1.86328125 1.76953125 C1.24839844 1.51558594 0.63351562 1.26164063 0 1 C0 0.67 0 0.34 0 0 Z " fill="#C3C5CC" transform="translate(336,177)"/>
<path d="M0 0 C0.66 0.66 1.32 1.32 2 2 C1.67 2.99 1.34 3.98 1 5 C1.66 5 2.32 5 3 5 C3 5.66 3 6.32 3 7 C0.5 8.625 0.5 8.625 -2 10 C-2.625 8.125 -2.625 8.125 -3 6 C-2.34 5.34 -1.68 4.68 -1 4 C-0.3574765 1.93125966 -0.3574765 1.93125966 0 0 Z " fill="#4F5362" transform="translate(277,331)"/>
<path d="M0 0 C0.66 0 1.32 0 2 0 C2.33 0.99 2.66 1.98 3 3 C2.319375 3.61875 2.319375 3.61875 1.625 4.25 C-0.05950374 6.06408095 -0.99265971 7.75285627 -2 10 C-2.33 10 -2.66 10 -3 10 C-2.25 2.25 -2.25 2.25 0 0 Z " fill="#313344" transform="translate(344,265)"/>
<path d="M0 0 C3.34072178 1.38779449 4.90199421 2.81588196 6.8125 5.875 C7.25207031 6.55304688 7.69164062 7.23109375 8.14453125 7.9296875 C9.16843185 10.40762047 8.90457722 11.52489914 8 14 C7.75765625 13.49210938 7.5153125 12.98421875 7.265625 12.4609375 C5.12201863 8.05829981 2.80799656 4.01142366 0 0 Z " fill="#D5D6DC" transform="translate(286,156)"/>
<path d="M0 0 C0.33 1.32 0.66 2.64 1 4 C-1.18565143 6.18565143 -3.28068905 7.54085754 -6 9 C-6.99 9 -7.98 9 -9 9 C-6.03 6.03 -3.06 3.06 0 0 Z " fill="#303544" transform="translate(260,168)"/>
<path d="M0 0 C0.66 0.33 1.32 0.66 2 1 C0.92807816 2.3218362 -0.15802695 3.63217927 -1.25 4.9375 C-1.85328125 5.66839844 -2.4565625 6.39929688 -3.078125 7.15234375 C-5.10741134 9.10326334 -6.254407 9.61731779 -9 10 C-8.06409496 8.8944811 -7.12620142 7.79064547 -6.1875 6.6875 C-5.66542969 6.07261719 -5.14335937 5.45773438 -4.60546875 4.82421875 C-3.12827531 3.14575321 -1.59960869 1.56117966 0 0 Z " fill="#A2A6AD" transform="translate(313,214)"/>
<path d="M0 0 C0.33 0 0.66 0 1 0 C1.66131596 5.2905277 0.04553852 8.15696618 -2.7109375 12.4609375 C-3.13632812 12.96882812 -3.56171875 13.47671875 -4 14 C-4.66 14 -5.32 14 -6 14 C-5.67 13.01 -5.34 12.02 -5 11 C-4.34 11 -3.68 11 -3 11 C-2.01 7.37 -1.02 3.74 0 0 Z " fill="#DFE0E7" transform="translate(344,226)"/>
<path d="M0 0 C0.99 0.33 1.98 0.66 3 1 C3 1.66 3 2.32 3 3 C-0.465 4.485 -0.465 4.485 -4 6 C-3.67 4.68 -3.34 3.36 -3 2 C-2.01 2.33 -1.02 2.66 0 3 C0 2.01 0 1.02 0 0 Z " fill="#626572" transform="translate(335,277)"/>
<path d="M0 0 C1.875 0.25 1.875 0.25 4 1 C5.38495802 3.14668494 6 4.43871412 6 7 C5.01 6.67 4.02 6.34 3 6 C3 4.68 3 3.36 3 2 C2.01 2 1.02 2 0 2 C0 1.34 0 0.68 0 0 Z " fill="#242A3A" transform="translate(349,185)"/>
<path d="M0 0 C-0.99 0.33 -1.98 0.66 -3 1 C-3.33 1.99 -3.66 2.98 -4 4 C-4.99 3.67 -5.98 3.34 -7 3 C-6.67 2.01 -6.34 1.02 -6 0 C-3.50907189 -1.24546405 -2.58919267 -0.7767578 0 0 Z " fill="#232939" transform="translate(257,327)"/>
<path d="M0 0 C0.33 0.66 0.66 1.32 1 2 C-0.25 4.5625 -0.25 4.5625 -2 7 C-2.99 7.33 -3.98 7.66 -5 8 C-3.8141763 4.62496331 -2.72426311 2.35277269 0 0 Z " fill="#2E3343" transform="translate(236,292)"/>
<path d="M0 0 C0.33 0.66 0.66 1.32 1 2 C0.34 2 -0.32 2 -1 2 C-1 2.66 -1 3.32 -1 4 C-1.66 4 -2.32 4 -3 4 C-3 4.66 -3 5.32 -3 6 C-3.66 6 -4.32 6 -5 6 C-4.67 4.35 -4.34 2.7 -4 1 C-2.68 0.67 -1.36 0.34 0 0 Z " fill="#90939C" transform="translate(214,250)"/>
<path d="M0 0 C0.33 0.66 0.66 1.32 1 2 C0.00390625 4.1640625 0.00390625 4.1640625 -1.4375 6.625 C-1.91058594 7.44226563 -2.38367188 8.25953125 -2.87109375 9.1015625 C-3.24363281 9.72804687 -3.61617188 10.35453125 -4 11 C-4.33 10.34 -4.66 9.68 -5 9 C-4.2578125 7.08984375 -4.2578125 7.08984375 -3.125 4.9375 C-2.75632812 4.22464844 -2.38765625 3.51179687 -2.0078125 2.77734375 C-1 1 -1 1 0 0 Z " fill="#E0E2E6" transform="translate(369,239)"/>
<path d="M0 0 C0 4.38968456 -2.12805101 5.76905739 -5 9 C-5.66 8.34 -6.32 7.68 -7 7 C-4.69 4.69 -2.38 2.38 0 0 Z " fill="#2B303E" transform="translate(193,235)"/>
<path d="M0 0 C0.66 0 1.32 0 2 0 C1.67 1.65 1.34 3.3 1 5 C0.34 5 -0.32 5 -1 5 C-1 5.66 -1 6.32 -1 7 C-1.66 6.67 -2.32 6.34 -3 6 C-3.625 3.9375 -3.625 3.9375 -4 2 C-3.01 2 -2.02 2 -1 2 C-0.67 1.34 -0.34 0.68 0 0 Z " fill="#6C707D" transform="translate(238,223)"/>
<path d="M0 0 C1.23666047 3.57257469 0.89093449 6.35526801 0 10 C-0.99 10.495 -0.99 10.495 -2 11 C-1.125 3.375 -1.125 3.375 0 0 Z " fill="#444756" transform="translate(173,261)"/>
<path d="M0 0 C0.99 0 1.98 0 3 0 C2.67 0.99 2.34 1.98 2 3 C1.01 3 0.02 3 -1 3 C-1.66 4.32 -2.32 5.64 -3 7 C-3.66 6.67 -4.32 6.34 -5 6 C-3.625 4 -3.625 4 -2 2 C-1.34 2 -0.68 2 0 2 C0 1.34 0 0.68 0 0 Z " fill="#A2A5AF" transform="translate(268,258)"/>
<path d="M0 0 C0.78375 0.04125 1.5675 0.0825 2.375 0.125 C1.055 1.445 -0.265 2.765 -1.625 4.125 C-2.615 3.465 -3.605 2.805 -4.625 2.125 C-2.625 0.125 -2.625 0.125 0 0 Z " fill="#151B2C" transform="translate(162.625,217.875)"/>
<path d="M0 0 C0 0.99 0 1.98 0 3 C-0.66 3 -1.32 3 -2 3 C-2 3.66 -2 4.32 -2 5 C-2.99 5.33 -3.98 5.66 -5 6 C-5.33 4.68 -5.66 3.36 -6 2 C-4.02 1.34 -2.04 0.68 0 0 Z " fill="#9799A3" transform="translate(280,184)"/>
<path d="M0 0 C0.66 0 1.32 0 2 0 C2.33 0.99 2.66 1.98 3 3 C2.34 3.66 1.68 4.32 1 5 C-1.125 4.625 -1.125 4.625 -3 4 C-2.67 3.34 -2.34 2.68 -2 2 C-1.34 2 -0.68 2 0 2 C0 1.34 0 0.68 0 0 Z " fill="#4A4E5F" transform="translate(237,173)"/>
</svg>
